<svg xmlns="http://www.w3.org/2000/svg" width="160" height="53" viewBox="0 0 160 53" fill="none">
<g clip-path="url(#clip0_2412_27106)">
<path d="M11.2901 51.8409C10.8827 51.8409 10.4852 51.8358 10.081 51.8267C9.24371 51.8159 8.40837 51.7437 7.58183 51.6106C6.81113 51.4791 6.06452 51.2344 5.36664 50.8847C4.67516 50.5378 4.04448 50.083 3.49875 49.5377C2.94512 48.9988 2.48419 48.3737 2.13425 47.6873C1.78044 46.9964 1.53559 46.2559 1.40821 45.4915C1.27066 44.6702 1.19624 43.8397 1.18559 43.0071C1.17711 42.7277 1.16602 41.7973 1.16602 41.7973V11.189C1.16602 11.189 1.17784 10.2729 1.18566 10.0038C1.19585 9.17258 1.26984 8.34336 1.40698 7.52329C1.53459 6.7568 1.77964 6.01413 2.13363 5.321C2.48229 4.63507 2.94066 4.00956 3.49095 3.46872C4.04063 2.92274 4.67333 2.46559 5.36599 2.11395C6.06226 1.76532 6.80746 1.52236 7.5766 1.39323C8.40585 1.25883 9.2441 1.18616 10.0843 1.17585L11.2908 1.15967H148.7L149.921 1.1765C150.754 1.1863 151.584 1.25831 152.406 1.39193C153.183 1.52268 153.936 1.76733 154.64 2.11783C156.028 2.8265 157.157 3.94768 157.869 5.32424C158.217 6.01258 158.459 6.74919 158.585 7.50905C158.723 8.33586 158.801 9.1716 158.817 10.0096C158.821 10.3848 158.821 10.7879 158.821 11.189C158.831 11.6859 158.831 12.1589 158.831 12.6357V40.3662C158.831 40.8475 158.831 41.3172 158.821 41.7908C158.821 42.2217 158.821 42.6164 158.816 43.0226C158.8 43.8457 158.724 44.6665 158.587 45.4785C158.462 46.2484 158.219 46.9947 157.865 47.6913C157.513 48.3702 157.054 48.9899 156.507 49.5273C155.961 50.0756 155.329 50.5331 154.636 50.8822C153.934 51.2346 153.182 51.4802 152.406 51.6106C151.579 51.7444 150.744 51.8166 149.907 51.8267C149.515 51.8358 149.105 51.8409 148.707 51.8409L147.257 51.8436L11.2901 51.8409Z" fill="white"/>
<path d="M33.4221 26.3534C33.4371 25.2034 33.7453 24.0758 34.3182 23.0755C34.8911 22.0752 35.71 21.2348 36.6987 20.6325C36.0706 19.7435 35.242 19.012 34.2787 18.4959C33.3154 17.9798 32.2439 17.6934 31.1494 17.6595C28.8145 17.4166 26.551 19.044 25.3611 19.044C24.1483 19.044 22.3165 17.6836 20.3438 17.7238C19.0679 17.7647 17.8243 18.1323 16.7344 18.791C15.6445 19.4497 14.7454 20.377 14.1246 21.4824C11.4356 26.0961 13.4413 32.8766 16.0172 36.606C17.306 38.4321 18.8122 40.472 20.7831 40.3997C22.7117 40.3204 23.432 39.181 25.7599 39.181C28.0663 39.181 28.7421 40.3997 30.7529 40.3537C32.8224 40.3204 34.1263 38.5194 35.3699 36.676C36.2958 35.3748 37.0084 33.9367 37.4811 32.4149C36.2788 31.911 35.2528 31.0675 34.531 29.9896C33.8092 28.9117 33.4235 27.6471 33.4221 26.3534Z" fill="black"/>
<path d="M29.6254 15.2066C30.7538 13.8643 31.3097 12.1389 31.1751 10.397C29.4512 10.5764 27.8588 11.3929 26.7152 12.6837C26.156 13.3143 25.7278 14.0479 25.4549 14.8426C25.1821 15.6373 25.0699 16.4775 25.1249 17.3152C25.9872 17.324 26.8402 17.1388 27.6198 16.7736C28.3993 16.4083 29.0851 15.8725 29.6254 15.2066Z" fill="black"/>
<path d="M56.5607 35.9592H50.2318L48.7119 40.4065H46.0312L52.0259 23.9526H54.811L60.8057 40.4065H58.0793L56.5607 35.9592ZM50.8873 33.907H55.904L53.4309 26.6894H53.3617L50.8873 33.907Z" fill="black"/>
<path d="M73.7527 34.4092C73.7527 38.137 71.7392 40.5321 68.7008 40.5321C67.9311 40.572 67.1656 40.3963 66.492 40.0251C65.8184 39.654 65.2639 39.1023 64.8919 38.4333H64.8344V44.3751H62.3496V28.4104H64.7548V30.4057H64.8005C65.1895 29.7399 65.7534 29.1911 66.4321 28.8177C67.1109 28.4442 67.8791 28.2601 68.655 28.2849C71.7275 28.2849 73.7527 30.6917 73.7527 34.4092ZM71.1986 34.4092C71.1986 31.9805 69.9321 30.3837 67.9996 30.3837C66.101 30.3837 64.824 32.0141 64.824 34.4092C64.824 36.8263 66.101 38.445 67.9996 38.445C69.9321 38.445 71.1986 36.8599 71.1986 34.4092H71.1986Z" fill="black"/>
<path d="M87.0756 34.4092C87.0756 38.137 85.0615 40.5321 82.023 40.5321C81.2533 40.572 80.4879 40.3963 79.8142 40.0251C79.1406 39.654 78.5861 39.1023 78.2142 38.4333H78.1567V44.3751H75.6719V28.4104H78.077V30.4057H78.1227C78.5118 29.7399 79.0757 29.1911 79.7544 28.8177C80.4331 28.4442 81.2013 28.2601 81.9773 28.2849C85.0497 28.2849 87.0756 30.6917 87.0756 34.4092ZM84.5209 34.4092C84.5209 31.9805 83.2543 30.3837 81.3218 30.3837C79.4233 30.3837 78.1463 32.0141 78.1463 34.4092C78.1463 36.8263 79.4233 38.445 81.3218 38.445C83.2543 38.445 84.5209 36.8599 84.5209 34.4092Z" fill="black"/>
<path d="M95.8815 35.8225C96.0656 37.4541 97.6652 38.5255 99.851 38.5255C101.945 38.5255 103.452 37.4541 103.452 35.9828C103.452 34.7057 102.543 33.941 100.392 33.417L98.2397 32.9033C95.1908 32.1735 93.7754 30.7605 93.7754 28.4676C93.7754 25.6287 96.272 23.6787 99.8157 23.6787C103.326 23.6787 105.731 25.6287 105.812 28.4676H103.303C103.153 26.8256 101.783 25.8344 99.7818 25.8344C97.7801 25.8344 96.4103 26.8372 96.4103 28.2968C96.4103 29.4601 97.2852 30.1446 99.4253 30.6686L101.255 31.1137C104.661 31.912 106.075 33.2681 106.075 35.6748C106.075 38.7531 103.602 40.6811 99.6668 40.6811C95.9846 40.6811 93.4985 38.7984 93.3379 35.8223L95.8815 35.8225Z" fill="black"/>
<path d="M111.44 25.5718V28.4107H113.742V30.3607H111.44V36.974C111.44 38.0014 111.901 38.4802 112.913 38.4802C113.186 38.4755 113.459 38.4564 113.731 38.4232V40.3615C113.276 40.4458 112.813 40.4839 112.35 40.4754C109.9 40.4754 108.944 39.5632 108.944 37.2367V30.3607H107.184V28.4107H108.944V25.5718H111.44Z" fill="black"/>
<path d="M115.074 34.4099C115.074 30.6355 117.317 28.2637 120.816 28.2637C124.325 28.2637 126.558 30.6354 126.558 34.4099C126.558 38.1947 124.337 40.5561 120.816 40.5561C117.295 40.5561 115.074 38.1947 115.074 34.4099ZM124.026 34.4099C124.026 31.8207 122.829 30.2926 120.816 30.2926C118.802 30.2926 117.605 31.8324 117.605 34.4099C117.605 37.0094 118.802 38.526 120.816 38.526C122.829 38.526 124.026 37.0094 124.026 34.4099H124.026Z" fill="black"/>
<path d="M128.607 28.4103H130.977V30.4522H131.035C131.195 29.8145 131.572 29.2509 132.102 28.8562C132.633 28.4615 133.284 28.2597 133.947 28.2848C134.233 28.2838 134.519 28.3146 134.798 28.3767V30.6799C134.436 30.5704 134.059 30.5202 133.682 30.5311C133.321 30.5166 132.961 30.5797 132.627 30.716C132.293 30.8523 131.992 31.0587 131.746 31.3209C131.5 31.5831 131.314 31.8949 131.202 32.235C131.089 32.5751 131.051 32.9354 131.092 33.2911V40.4065H128.607L128.607 28.4103Z" fill="black"/>
<path d="M146.254 36.8839C145.92 39.0616 143.78 40.5561 141.041 40.5561C137.52 40.5561 135.334 38.218 135.334 34.4668C135.334 30.7041 137.532 28.2637 140.937 28.2637C144.286 28.2637 146.392 30.5436 146.392 34.1809V35.0245H137.842V35.1733C137.803 35.6148 137.859 36.0596 138.006 36.4781C138.153 36.8966 138.389 37.2792 138.697 37.6006C139.005 37.922 139.378 38.1747 139.792 38.3421C140.207 38.5094 140.652 38.5875 141.099 38.5712C141.686 38.6258 142.275 38.491 142.779 38.187C143.283 37.883 143.674 37.426 143.894 36.8839L146.254 36.8839ZM137.854 33.3036H143.906C143.928 32.9066 143.868 32.5094 143.728 32.1368C143.588 31.7642 143.372 31.4243 143.093 31.1384C142.814 30.8525 142.479 30.6268 142.108 30.4754C141.737 30.3241 141.338 30.2504 140.937 30.2589C140.532 30.2565 140.131 30.3336 139.757 30.4856C139.382 30.6377 139.042 30.8617 138.755 31.1447C138.469 31.4278 138.242 31.7643 138.087 32.1348C137.932 32.5054 137.853 32.9026 137.854 33.3036V33.3036Z" fill="black"/>
<path d="M50.5771 11.569C51.098 11.532 51.6208 11.61 52.1076 11.7974C52.5945 11.9848 53.0333 12.2769 53.3924 12.6527C53.7515 13.0285 54.022 13.4786 54.1843 13.9705C54.3466 14.4625 54.3968 14.984 54.3311 15.4974C54.3311 18.0232 52.9535 19.4751 50.5771 19.4751H47.6953V11.569H50.5771ZM48.9344 18.357H50.4387C50.8109 18.3791 51.1834 18.3186 51.5291 18.18C51.8748 18.0413 52.185 17.8281 52.437 17.5557C52.689 17.2833 52.8766 16.9587 52.986 16.6054C53.0955 16.2522 53.1241 15.8792 53.0697 15.5136C53.1201 15.1494 53.0887 14.7787 52.9775 14.428C52.8664 14.0773 52.6783 13.7554 52.4269 13.4852C52.1754 13.2149 51.8668 13.0032 51.523 12.8651C51.1793 12.727 50.809 12.6659 50.4387 12.6863H48.9344V18.357Z" fill="black"/>
<path d="M55.7302 16.4897C55.6924 16.0977 55.7376 15.702 55.8631 15.3283C55.9886 14.9546 56.1915 14.6109 56.4588 14.3195C56.7262 14.028 57.052 13.7951 57.4155 13.6357C57.779 13.4764 58.1721 13.394 58.5696 13.394C58.967 13.394 59.3601 13.4764 59.7236 13.6357C60.0871 13.7951 60.413 14.028 60.6803 14.3195C60.9476 14.6109 61.1505 14.9546 61.276 15.3283C61.4015 15.702 61.4467 16.0977 61.4089 16.4897C61.4475 16.8822 61.4027 17.2784 61.2776 17.6527C61.1525 18.0271 60.9497 18.3713 60.6823 18.6634C60.4149 18.9554 60.0888 19.1888 59.7249 19.3485C59.3611 19.5082 58.9675 19.5907 58.5696 19.5907C58.1716 19.5907 57.7781 19.5082 57.4142 19.3485C57.0504 19.1888 56.7243 18.9554 56.4569 18.6634C56.1895 18.3713 55.9867 18.0271 55.8615 17.6527C55.7364 17.2784 55.6917 16.8822 55.7302 16.4897ZM60.1867 16.4897C60.1867 15.1965 59.6004 14.4401 58.5715 14.4401C57.5387 14.4401 56.9577 15.1965 56.9577 16.4898C56.9577 17.7934 57.5387 18.5439 58.5715 18.5439C59.6005 18.5439 60.1867 17.7882 60.1867 16.4897H60.1867Z" fill="black"/>
<path d="M68.9582 19.4747H67.7256L66.4812 15.0804H66.3872L65.148 19.4747H63.9272L62.2676 13.5083H63.4728L64.5513 18.061H64.6401L65.878 13.5083H67.0179L68.2557 18.061H68.3497L69.423 13.5083H70.6112L68.9582 19.4747Z" fill="black"/>
<path d="M72.0059 13.5087H73.1497V14.4565H73.2385C73.3891 14.1161 73.6432 13.8308 73.9652 13.6402C74.2873 13.4497 74.6613 13.3635 75.0352 13.3936C75.3281 13.3717 75.6223 13.4155 75.8958 13.5216C76.1694 13.6278 76.4154 13.7935 76.6155 14.0066C76.8156 14.2198 76.9648 14.4748 77.052 14.7528C77.1392 15.0308 77.1621 15.3247 77.1191 15.6127V19.4751H75.9309V15.9084C75.9309 14.9496 75.5105 14.4727 74.6317 14.4727C74.4328 14.4635 74.2342 14.4971 74.0497 14.5711C73.8651 14.645 73.6988 14.7577 73.5622 14.9013C73.4257 15.0449 73.3221 15.2161 73.2586 15.4031C73.195 15.5901 73.173 15.7885 73.1941 15.9847V19.4751H72.0059L72.0059 13.5087Z" fill="black"/>
<path d="M79.0137 11.1797H80.2019V19.4752H79.0137V11.1797Z" fill="black"/>
<path d="M81.8532 16.4899C81.8154 16.0977 81.8607 15.7021 81.9862 15.3284C82.1117 14.9546 82.3147 14.611 82.582 14.3195C82.8494 14.028 83.1753 13.7951 83.5388 13.6357C83.9023 13.4764 84.2954 13.394 84.6929 13.394C85.0904 13.394 85.4835 13.4764 85.847 13.6357C86.2105 13.7951 86.5364 14.028 86.8038 14.3195C87.0711 14.611 87.2741 14.9546 87.3996 15.3284C87.5251 15.7021 87.5704 16.0977 87.5326 16.4899C87.5711 16.8824 87.5263 17.2785 87.4011 17.6529C87.276 18.0272 87.0731 18.3715 86.8057 18.6635C86.5383 18.9555 86.2121 19.1889 85.8483 19.3486C85.4844 19.5083 85.0909 19.5908 84.6929 19.5908C84.2949 19.5908 83.9014 19.5083 83.5375 19.3486C83.1737 19.1889 82.8475 18.9555 82.5801 18.6635C82.3127 18.3715 82.1098 18.0272 81.9847 17.6529C81.8595 17.2785 81.8147 16.8824 81.8532 16.4899ZM86.3097 16.4899C86.3097 15.1966 85.7234 14.4403 84.6945 14.4403C83.6617 14.4403 83.0807 15.1966 83.0807 16.4899C83.0807 17.7935 83.6617 18.544 84.6945 18.544C85.7234 18.544 86.3097 17.7883 86.3097 16.4899H86.3097Z" fill="black"/>
<path d="M88.7832 17.7883C88.7832 16.7143 89.5902 16.0951 91.0225 16.0072L92.6534 15.914V15.399C92.6534 14.7689 92.233 14.413 91.4208 14.413C90.7575 14.413 90.2979 14.6543 90.166 15.0762H89.0156C89.1371 14.0514 90.1098 13.394 91.4756 13.394C92.9851 13.394 93.8364 14.1387 93.8364 15.399V19.4756H92.6926V18.6371H92.5986C92.4077 18.9379 92.1398 19.1831 91.8221 19.3476C91.5044 19.5122 91.1482 19.5903 90.7901 19.5739C90.5374 19.5999 90.2819 19.5732 90.0402 19.4954C89.7985 19.4177 89.576 19.2906 89.3869 19.1223C89.1978 18.9541 89.0464 18.7485 88.9424 18.5187C88.8384 18.2889 88.7842 18.0401 88.7832 17.7883ZM92.6534 17.2785V16.7796L91.1831 16.8728C90.354 16.9278 89.9779 17.2073 89.9779 17.7333C89.9779 18.2703 90.448 18.5827 91.0944 18.5827C91.2838 18.6017 91.4751 18.5828 91.6569 18.527C91.8388 18.4713 92.0075 18.3798 92.1529 18.2581C92.2984 18.1364 92.4176 17.987 92.5036 17.8187C92.5896 17.6504 92.6405 17.4667 92.6534 17.2785Z" fill="black"/>
<path d="M95.3984 16.4894C95.3984 14.6041 96.3764 13.4098 97.8976 13.4098C98.2739 13.3926 98.6473 13.4819 98.9743 13.6673C99.3012 13.8527 99.5682 14.1264 99.7439 14.4566H99.8327V11.1797H101.021V19.4752H99.8824V18.5325H99.7883C99.599 18.8604 99.3227 19.1308 98.9895 19.3143C98.6562 19.4978 98.2786 19.5874 97.8976 19.5735C96.366 19.5736 95.3984 18.3792 95.3984 16.4894ZM96.6259 16.4894C96.6259 17.7549 97.2278 18.5164 98.2346 18.5164C99.236 18.5164 99.855 17.7439 99.855 16.4946C99.855 15.2511 99.2295 14.4676 98.2346 14.4676C97.2343 14.4676 96.6258 15.2343 96.6258 16.4894H96.6259Z" fill="black"/>
<path d="M105.937 16.4897C105.899 16.0977 105.945 15.702 106.07 15.3283C106.196 14.9546 106.399 14.6109 106.666 14.3195C106.933 14.028 107.259 13.7951 107.623 13.6357C107.986 13.4764 108.379 13.394 108.777 13.394C109.174 13.394 109.567 13.4764 109.931 13.6357C110.294 13.7951 110.62 14.028 110.887 14.3195C111.155 14.6109 111.358 14.9546 111.483 15.3283C111.608 15.702 111.654 16.0977 111.616 16.4897C111.654 16.8822 111.61 17.2784 111.485 17.6527C111.359 18.0271 111.157 18.3713 110.889 18.6634C110.622 18.9554 110.296 19.1888 109.932 19.3485C109.568 19.5082 109.175 19.5907 108.777 19.5907C108.379 19.5907 107.985 19.5082 107.621 19.3485C107.257 19.1888 106.931 18.9554 106.664 18.6634C106.396 18.3713 106.194 18.0271 106.069 17.6527C105.943 17.2784 105.899 16.8822 105.937 16.4897ZM110.394 16.4897C110.394 15.1965 109.807 14.4401 108.779 14.4401C107.746 14.4401 107.165 15.1965 107.165 16.4898C107.165 17.7934 107.746 18.5439 108.779 18.5439C109.807 18.5439 110.394 17.7882 110.394 16.4897Z" fill="black"/>
<path d="M113.211 13.5087H114.355V14.4565H114.444C114.594 14.1161 114.848 13.8308 115.17 13.6402C115.492 13.4497 115.866 13.3635 116.24 13.3936C116.533 13.3717 116.827 13.4155 117.101 13.5216C117.374 13.6278 117.62 13.7935 117.821 14.0066C118.021 14.2198 118.17 14.4748 118.257 14.7528C118.344 15.0308 118.367 15.3247 118.324 15.6127V19.4751H117.136V15.9084C117.136 14.9496 116.716 14.4727 115.837 14.4727C115.638 14.4635 115.439 14.4971 115.255 14.5711C115.07 14.645 114.904 14.7577 114.767 14.9013C114.631 15.0449 114.527 15.2161 114.464 15.4031C114.4 15.5901 114.378 15.7885 114.399 15.9847V19.4751H113.211V13.5087Z" fill="black"/>
<path d="M125.038 12.0229V13.5356H126.342V14.5274H125.038V17.5953C125.038 18.2203 125.298 18.494 125.889 18.494C126.041 18.4935 126.192 18.4844 126.342 18.4668V19.4476C126.129 19.4854 125.913 19.5056 125.696 19.5078C124.375 19.5078 123.848 19.0471 123.848 17.8968V14.5273H122.893V13.5355H123.848V12.0229H125.038Z" fill="black"/>
<path d="M127.967 11.1797H129.145V14.4676H129.239C129.397 14.124 129.658 13.837 129.986 13.6458C130.315 13.4545 130.695 13.3683 131.074 13.3988C131.366 13.3831 131.657 13.4313 131.928 13.54C132.198 13.6487 132.441 13.8152 132.639 14.0277C132.837 14.2401 132.985 14.4933 133.073 14.7691C133.161 15.0448 133.187 15.3364 133.148 15.6231V19.4752H131.958V15.9136C131.958 14.9606 131.511 14.4779 130.671 14.4779C130.467 14.4613 130.261 14.4892 130.069 14.5595C129.877 14.6298 129.702 14.7408 129.558 14.8849C129.414 15.029 129.303 15.2026 129.233 15.3936C129.164 15.5846 129.137 15.7883 129.155 15.9906V19.4752H127.967L127.967 11.1797Z" fill="black"/>
<path d="M140.074 17.8647C139.913 18.41 139.563 18.8817 139.086 19.1972C138.609 19.5128 138.035 19.6521 137.465 19.5908C137.068 19.6012 136.674 19.5259 136.31 19.3702C135.946 19.2145 135.62 18.982 135.355 18.689C135.091 18.396 134.893 18.0495 134.777 17.6734C134.662 17.2973 134.63 16.9008 134.684 16.5113C134.631 16.1205 134.664 15.7231 134.779 15.3459C134.895 14.9687 135.091 14.6206 135.354 14.325C135.617 14.0294 135.942 13.7934 136.305 13.6328C136.668 13.4722 137.062 13.3908 137.46 13.3941C139.135 13.3941 140.146 14.5283 140.146 16.4019V16.8128H135.894V16.8787C135.876 17.0977 135.903 17.3181 135.976 17.5258C136.048 17.7335 136.164 17.9239 136.315 18.0848C136.465 18.2457 136.649 18.3736 136.852 18.4603C137.056 18.5469 137.276 18.5904 137.498 18.588C137.782 18.6218 138.07 18.5711 138.325 18.4423C138.58 18.3135 138.791 18.1124 138.93 17.8647L140.074 17.8647ZM135.894 15.9419H138.935C138.95 15.7417 138.923 15.5405 138.855 15.3514C138.787 15.1623 138.679 14.9895 138.54 14.8439C138.4 14.6983 138.231 14.5833 138.044 14.5062C137.857 14.4291 137.656 14.3917 137.453 14.3963C137.248 14.3937 137.044 14.432 136.853 14.5088C136.663 14.5855 136.49 14.6993 136.345 14.8433C136.2 14.9874 136.085 15.1588 136.008 15.3475C135.93 15.5362 135.892 15.7383 135.894 15.9419H135.894Z" fill="black"/>
</g>
<defs>
<clipPath id="clip0_2412_27106">
<rect width="160" height="53" fill="white"/>
</clipPath>
</defs>
</svg>
