<svg width="491" height="489" viewBox="0 0 491 489" fill="none" xmlns="http://www.w3.org/2000/svg">
<path d="M359.297 489C358.765 488.446 358.242 487.884 357.71 487.33C357.733 486.775 357.941 486.136 357.733 485.69C356.678 483.427 355.291 481.294 354.413 478.962C350.222 467.853 349.337 456.114 348.304 444.443C347.765 438.293 347.958 432.072 347.819 425.891C348.081 423.835 348.458 421.788 348.589 419.717C349.198 410.017 351.701 400.749 354.783 391.603C355.622 389.102 356.416 386.584 357.232 384.075C357.795 382.874 358.357 381.673 358.927 380.472C361.223 375.93 363.511 371.388 365.806 366.854C368.148 362.089 370.498 357.316 372.839 352.551C373.779 350.211 374.711 347.878 375.651 345.538C375.643 345.399 375.636 345.261 375.636 345.122C375.921 344.668 376.298 344.245 376.468 343.752C377.877 339.58 379.241 335.399 380.62 331.227C381.413 328.625 382.207 326.023 383.008 323.421C384.132 318.641 385.249 313.86 386.374 309.08C386.936 306.901 387.506 304.715 388.069 302.536C388.146 302.39 388.223 302.236 388.292 302.09C389.694 297.448 391.096 292.813 392.498 288.171C393.623 285.723 394.747 283.283 395.872 280.835C399 277.079 401.727 272.86 405.347 269.65C414.514 261.513 426.262 260.997 436.784 267.51C444.588 272.336 448.231 279.858 450.666 288.233C450.851 288.88 450.935 289.557 451.143 290.604C448.763 290.889 446.444 291.128 444.133 291.443C440.343 291.967 436.761 292.875 434.419 296.339C432.193 299.642 431.515 303.152 433.249 306.786C434.959 310.373 438.317 311.751 441.999 311.889C445.304 312.013 448.64 311.512 452.33 311.266C451.983 313.267 451.813 315.354 451.243 317.317C448.717 325.954 446.044 334.545 443.486 343.167C442.015 348.14 440.52 353.113 441.637 358.425C442.492 362.474 445.674 364.337 449.21 362.166C452.36 360.234 455.134 357.616 457.845 355.06C461.396 351.712 464.917 348.386 469.724 346.947C477.45 344.63 486.008 349.372 488.805 357.678C491.948 367.016 491.894 376.2 487.457 385.283C484.391 391.557 480.454 397.138 475.763 402.235C465.88 412.958 454.594 422.111 443.309 431.287C429.813 442.265 416.132 453.096 404.369 465.998C399.693 471.125 395.618 476.799 391.32 482.264C390.703 483.049 390.303 484.035 389.964 484.989C388.839 488.153 388.346 488.538 384.918 488.577C384.44 488.584 383.963 488.615 383.485 488.638C381.244 488.623 378.994 488.554 376.753 488.607C375.443 488.638 374.133 488.869 372.824 489.008C368.31 489 363.803 489 359.297 489Z" fill="#002249"/>
<path d="M132.304 126.241C132.427 125.456 132.651 124.671 132.651 123.886C132.666 95.8955 132.458 67.8974 132.751 39.9071C132.912 24.7803 139.707 13.056 153.003 5.39638C157.355 2.8868 161.992 1.27019 167.023 0.785208C167.477 0.73902 167.893 0.269434 168.325 0C169.01 0 169.688 0 170.374 0C171.221 0.138566 172.061 0.392604 172.908 0.392604C227.802 0.408 282.688 0.408 337.581 0.408C339.091 0.662038 340.609 0.877586 342.111 1.16242C357.841 4.21087 369.95 16.2969 373.109 31.9241C373.725 34.9649 374.002 38.1211 374.01 41.2311C374.072 81.3152 374.049 121.407 374.049 161.491C368.995 161.491 363.934 161.491 358.881 161.483C358.881 121.184 358.919 80.8842 358.811 40.5845C358.804 37.3898 358.226 34.0488 357.178 31.0311C354.028 21.9319 345.323 15.5887 335.779 15.2346C326.643 14.8959 317.476 15.1961 308.324 15.1268C306.745 15.1114 306.321 15.6426 306.391 17.136C306.491 19.3146 306.629 21.5393 306.321 23.6794C305.72 27.8287 302.015 30.3152 296.862 30.3229C272.889 30.3306 248.916 30.3229 224.951 30.3229C219.829 30.3229 214.706 30.3768 209.583 30.3075C203.529 30.2305 199.9 27.0204 200.262 21.0236C200.332 19.8688 200.17 18.691 200.293 17.544C200.493 15.7042 199.9 15.0883 197.951 15.1114C189.146 15.2192 180.334 15.0652 171.521 15.1884C164.881 15.2808 159.134 17.952 154.582 22.6479C150.021 27.3437 147.78 33.1173 147.78 39.8378C147.818 174.401 147.803 308.956 147.803 443.52C145.715 441.587 143.628 439.655 141.532 437.715C141.702 435.144 139.268 434.651 137.974 433.25C136.618 431.995 135.262 430.733 133.899 429.478C133.475 428.978 133.051 428.485 132.627 427.985C132.635 378.139 132.635 328.294 132.627 278.441C132.627 277.864 132.404 277.279 132.289 276.701C132.304 275.477 132.281 274.246 132.342 273.022C132.681 266.709 133.043 260.397 133.398 254.084C133.536 249.188 133.675 244.292 133.814 239.396C134.838 236.802 135.84 234.192 136.895 231.606C139.36 225.555 141.224 219.404 140.408 212.738C140.2 211.052 140.177 209.343 140.077 207.641C139.36 194.716 138.644 181.799 137.927 168.874C140.415 167.704 140.847 165.733 140.154 163.293C140.061 162.969 140.084 162.623 140.046 162.284C139.352 156.164 138.852 150.013 137.897 143.939C136.964 137.789 135.84 131.615 132.304 126.241Z" fill="#F2F2F2"/>
<path d="M337.574 0.408C282.68 0.408 227.794 0.408 172.9 0.392604C172.053 0.392604 171.213 0.138566 170.366 0C226.099 0 281.84 0 337.574 0C337.574 0.138566 337.574 0.277132 337.574 0.408Z" fill="#F5F5F5"/>
<path d="M372.824 489C374.133 488.861 375.443 488.63 376.752 488.6C378.994 488.546 381.243 488.615 383.485 488.63C383.485 488.754 383.477 488.877 383.477 489C379.926 489 376.375 489 372.824 489Z" fill="#F2FBFB"/>
<path d="M358.881 161.491C363.934 161.491 368.995 161.491 374.049 161.499C379.217 161.499 384.394 161.545 389.563 161.483C391.065 161.46 391.751 161.737 391.705 163.477C391.581 168.104 391.597 172.73 391.697 177.357C391.735 179.012 391.312 179.605 389.563 179.566C384.394 179.459 379.217 179.536 374.049 179.536C368.995 179.536 363.934 179.536 358.881 179.543C298.734 179.536 238.586 179.536 178.447 179.528C177.83 179.528 177.145 179.697 176.621 179.474C176.089 179.251 175.35 178.643 175.342 178.196C175.25 173.077 175.25 167.958 175.342 162.838C175.35 162.392 176.089 161.784 176.621 161.56C177.145 161.337 177.83 161.507 178.447 161.507C238.594 161.499 298.741 161.499 358.881 161.491Z" fill="#DEDEDE"/>
<path d="M374.056 259.457C384.286 259.457 394.516 259.527 404.739 259.404C406.911 259.373 407.543 260.066 407.258 262.059C407.065 263.376 406.98 264.7 406.842 266.024C390.857 266.163 374.873 266.293 358.889 266.432C299.08 266.432 239.28 266.432 179.471 266.432C175.281 266.432 175.281 266.432 175.288 262.236C175.288 259.465 175.288 259.465 178.039 259.465C238.324 259.465 298.603 259.465 358.889 259.465C363.942 259.457 368.995 259.457 374.056 259.457Z" fill="#F1F1F1"/>
<path d="M406.834 244.708C395.903 244.708 384.98 244.708 374.049 244.708C368.988 244.708 363.934 244.708 358.873 244.708C299.065 244.708 239.264 244.708 179.456 244.708C175.273 244.708 175.273 244.708 175.273 240.505C175.273 237.741 175.273 237.741 178.023 237.741C238.309 237.741 298.587 237.741 358.873 237.741C365.059 237.88 371.237 238.087 377.423 238.134C386.482 238.203 395.548 238.203 404.608 238.111C406.449 238.087 407.034 238.642 406.857 240.42C406.726 241.829 406.834 243.276 406.834 244.708Z" fill="#F1F1F1"/>
<path d="M395.872 280.827C394.747 283.275 393.623 285.716 392.498 288.164C391.789 288.025 391.088 287.771 390.38 287.763C384.933 287.733 379.487 287.748 374.041 287.748C368.988 287.748 363.926 287.748 358.873 287.748C299.065 287.748 239.264 287.748 179.456 287.748C175.273 287.748 175.273 287.748 175.273 283.545C175.273 280.781 175.273 280.781 178.023 280.781C238.309 280.781 298.587 280.781 358.873 280.781C363.926 280.781 368.988 280.781 374.041 280.781C381.328 280.797 388.6 280.812 395.872 280.827Z" fill="#F1F1F1"/>
<path d="M358.881 179.536C363.934 179.536 368.995 179.536 374.049 179.528C374.049 191.691 374.049 203.846 374.049 216.009C374.049 216.148 374.049 216.279 374.049 216.417C373.263 216.279 372.477 216.032 371.684 216.025C367.416 215.986 363.149 216.009 358.881 216.002C358.881 203.854 358.881 191.699 358.881 179.536Z" fill="#F2F2F2"/>
<path d="M374.049 216.425C374.049 216.286 374.049 216.156 374.049 216.017C384.433 216.017 394.809 216.048 405.193 215.986C406.803 215.978 407.296 216.417 407.281 218.057C407.234 223.399 407.304 223.399 401.942 223.399C393.338 223.399 384.733 223.43 376.129 223.369C374.573 223.361 373.941 223.707 374.01 225.401C374.141 228.811 374.149 232.237 374.01 235.647C373.941 237.425 374.603 237.787 376.244 237.78C385.804 237.71 395.371 237.803 404.931 237.703C406.88 237.679 407.496 238.295 407.265 240.135C407.065 241.652 406.98 243.191 406.842 244.716C406.842 243.284 406.726 241.844 406.872 240.428C407.05 238.649 406.464 238.095 404.623 238.118C395.564 238.218 386.497 238.211 377.438 238.141C371.252 238.095 365.074 237.887 358.889 237.749C358.889 232.968 358.889 228.188 358.889 223.407C368.217 223.269 377.538 223.107 386.867 223.007C392.051 222.953 397.236 222.999 402.42 222.999C406.872 222.999 406.765 222.999 406.888 218.634C406.942 216.741 406.264 216.394 404.538 216.402C394.378 216.463 384.217 216.425 374.049 216.425Z" fill="#F2F2F2"/>
<path d="M374.049 280.774C368.995 280.774 363.934 280.774 358.881 280.774C358.881 275.993 358.881 271.213 358.881 266.432C374.865 266.293 390.85 266.155 406.834 266.024C406.056 266.163 405.278 266.409 404.507 266.417C395.094 266.447 385.681 266.486 376.267 266.394C374.418 266.378 373.956 266.94 374.01 268.711C374.133 272.721 374.049 276.748 374.049 280.774Z" fill="#F2F2F2"/>
<path d="M358.881 244.708C363.942 244.708 368.995 244.708 374.056 244.708C374.056 249.627 374.056 254.546 374.056 259.457C368.995 259.457 363.942 259.457 358.881 259.457C358.881 254.538 358.881 249.627 358.881 244.708Z" fill="#F2F2F2"/>
<path d="M133.421 254.092C133.067 260.404 132.705 266.717 132.366 273.029C132.296 274.253 132.327 275.477 132.312 276.709C131.903 283.714 131.48 290.72 131.095 297.725C130.532 308.063 129.993 318.402 129.446 328.741C128.891 339.148 128.329 349.549 127.805 359.956C127.335 369.21 126.919 378.463 126.465 387.716C126.319 390.641 126.118 393.566 125.98 396.492C125.594 404.659 125.225 412.819 124.847 420.987C124.716 423.297 124.578 425.614 124.447 427.923C124.316 430.656 124.185 433.389 124.054 436.114C123.915 438.708 123.784 441.31 123.646 443.904C123.646 445.128 123.653 446.352 123.653 447.576C123.391 449.555 123.045 451.526 122.891 453.512C122.644 456.753 122.529 460.009 122.359 463.258C116.466 463.234 110.573 463.219 104.68 463.204C104.256 461.602 103.709 460.032 103.44 458.408C101.807 448.554 100.228 438.701 98.6407 428.839C98.2401 426.761 97.8395 424.682 97.4312 422.596C97.2926 422.188 97.1539 421.78 97.0153 421.372C96.7457 419.324 96.476 417.269 96.2064 415.221C95.7981 412.627 95.3899 410.033 94.9739 407.438C94.4116 403.412 93.9185 399.379 93.2869 395.368C91.5459 384.398 89.7511 373.428 87.9485 362.466C86.2153 351.904 84.4358 341.35 82.6717 330.796C81.8552 325.738 81.0309 320.688 80.2144 315.631C80.1528 315.1 80.1142 314.568 80.0295 314.045C79.5519 311.158 79.0589 308.271 78.5736 305.384C78.1653 303.745 77.757 302.105 77.3488 300.465C77.2101 299.103 77.0714 297.733 76.9405 296.37C76.5322 293.637 76.1162 290.904 75.708 288.171C75.2997 285.577 74.8914 282.983 74.4754 280.381C74.3368 279.696 74.2058 279.011 74.0672 278.333C73.9285 277.517 73.7976 276.694 73.6589 275.878C73.5202 274.784 73.3816 273.691 73.2506 272.598C73.112 271.913 72.981 271.236 72.8423 270.551C72.7037 269.457 72.565 268.364 72.4341 267.271C71.8486 264.785 71.2709 262.298 70.6854 259.812C70.7085 259.396 70.7393 258.98 70.7625 258.557C74.8683 258.88 78.9819 259.203 83.0877 259.519C85.7145 259.519 88.3337 259.519 90.9528 259.519L91.1223 259.55L91.2917 259.519C92.6552 259.496 94.0187 259.473 95.3822 259.458C96.0678 259.45 96.7457 259.434 97.4312 259.427C99.203 259.304 100.982 259.18 102.754 259.057C103.748 258.942 104.734 258.819 105.728 258.703C106.498 258.711 107.268 258.711 108.039 258.718C107.053 264.207 106.205 269.719 105.027 275.162C104.534 277.44 104.811 279.165 106.352 280.897C108.224 282.998 109.903 285.262 111.898 287.756C114.355 282.96 116.713 278.664 118.785 274.238C121.496 268.449 123.977 262.552 126.557 256.702C129.03 256.324 131.695 256.463 133.421 254.092Z" fill="#002249"/>
<path d="M351.093 479.986C345.724 482.749 339.877 483.989 333.976 484.004C280.454 484.127 226.931 484.143 173.416 484.019C164.041 483.996 155.337 481.256 147.849 475.305C147.279 474.851 146.555 474.597 145.908 474.25C148.874 470.017 151.839 465.775 154.805 461.541C155.36 462.026 155.922 462.503 156.469 463.004C160.691 466.837 165.806 468.839 171.352 468.846C226.03 468.954 280.708 468.931 335.378 468.839C337.635 468.839 339.892 467.769 342.142 467.199C342.927 468.231 343.713 469.254 344.499 470.286C346.694 473.519 348.89 476.752 351.093 479.986Z" fill="#F2F2F2"/>
<path d="M83.0723 259.504C78.9664 259.18 74.8529 258.857 70.747 258.541C69.6686 252.067 68.4669 245.601 67.5425 239.104C66.6797 233.068 66.1097 226.994 65.401 220.944C65.3393 220.413 65.1622 219.889 65.0389 219.358C64.9156 217.595 64.7462 215.84 64.6691 214.077C64.3687 207.072 64.0914 200.074 63.8064 193.069C63.7987 189.997 63.868 186.918 63.7756 183.846C63.452 172.869 64.7924 162.053 67.6811 151.514C69.7456 143.978 72.149 136.472 75.1841 129.29C77.8341 123.039 81.4623 117.158 86.508 112.4C87.7713 111.215 89.389 110.414 90.8449 109.436C90.8449 109.714 90.8449 109.991 90.8372 110.26C90.583 110.576 90.3057 110.876 90.09 111.215C83.6809 121.361 80.5841 132.662 79.0358 144.378C77.9727 152.361 77.3642 160.421 77.0021 168.466C76.7171 174.963 77.0714 181.491 77.2255 187.996C77.3333 192.684 77.4643 197.38 77.757 202.053C78.0729 206.987 78.589 211.906 79.0358 216.833C79.5442 222.499 80.1528 228.149 80.5764 233.823C80.8538 237.479 80.8229 241.159 81.0386 244.823C81.1542 246.779 81.4469 248.726 81.7165 250.666C82.1479 253.622 82.6255 256.563 83.0723 259.504Z" fill="#E7EFFF"/>
<path d="M122.036 472.126C122.136 474.628 122.274 477.13 122.328 479.639C122.382 481.887 122.321 484.143 122.351 486.39C122.367 487.584 121.92 488.107 120.664 488.107C106.413 488.084 92.1622 488.107 77.9034 488.038C77.2949 488.038 76.1779 487.322 76.1779 486.929C76.1702 485.428 75.4307 483.604 77.6415 482.757C83.9351 480.355 90.1979 477.876 96.4684 475.405C99.5035 474.204 102.515 472.957 105.543 471.725C110.042 471.718 114.54 471.695 119.039 471.733C120.04 471.741 121.034 471.987 122.036 472.126Z" fill="black"/>
<path d="M154.798 461.549C151.832 465.783 148.866 470.024 145.9 474.258C143.42 477.769 140.87 481.225 138.498 484.805C137.419 486.429 136.549 486.729 134.962 485.436C132.35 483.311 132.296 483.396 133.19 480.255C134.684 475.013 136.148 469.77 137.627 464.52C138.575 461.21 139.514 457.892 140.462 454.574C142.68 451.51 144.868 448.423 147.148 445.406C147.549 444.874 148.327 444.636 148.928 444.266C152.302 447.207 155.707 450.117 158.996 453.142C159.358 453.473 159.381 454.659 159.081 455.159C157.748 457.338 156.238 459.424 154.798 461.549Z" fill="black"/>
<path d="M74.4677 280.366C74.876 282.96 75.2843 285.554 75.7003 288.156C75.4538 288.556 75.0378 288.926 74.9839 289.349C74.1057 296.401 72.8269 303.437 72.5342 310.511C72.1876 319.072 72.5804 327.67 72.8655 336.246C73.058 341.866 73.5125 347.485 74.0749 353.074C74.7836 360.072 75.2381 367.154 76.6632 374.021C78.9048 384.829 81.5779 395.576 84.613 406.191C86.5619 413.027 89.6894 419.486 94.1111 425.198C91.6615 423.235 89.2118 421.264 86.7699 419.301C85.6837 416.661 84.4666 414.067 83.5191 411.38C79.7676 400.733 76.6093 389.917 74.8375 378.755C73.2275 368.594 71.5713 358.424 70.462 348.201C69.5993 340.257 69.4221 332.228 69.1833 324.229C69.0446 319.611 69.3142 314.976 69.5608 310.35C69.8843 304.199 70.0152 298.01 70.8934 291.928C71.4789 287.987 73.2352 284.215 74.4677 280.366Z" fill="#002249"/>
<path d="M61.3258 397.67C58.3138 394.944 55.3018 392.227 52.2899 389.502C51.6197 387.015 50.8031 384.567 50.3178 382.05C49.2239 376.407 48.184 370.749 47.3366 365.06C46.5278 359.641 45.9963 354.191 45.3415 348.748C46.6819 343.79 47.9991 338.825 49.3626 333.868C49.8787 331.989 50.5027 330.134 51.0804 328.263C51.3578 329.002 51.8354 329.734 51.8739 330.48C52.0819 334.291 52.1743 338.117 52.313 341.935C52.3977 344.399 52.3669 346.87 52.6134 349.318C52.9523 352.682 53.5147 356.023 53.9692 359.379C54.3466 362.174 54.5931 364.991 55.0862 367.77C55.7101 371.265 56.4573 374.737 57.2739 378.193C58.4063 382.989 59.7158 387.747 60.8097 392.55C61.1949 394.213 61.1718 395.961 61.3258 397.67Z" fill="#002249"/>
<path d="M0 162.777C4.03652 160.675 8.05764 158.543 12.1327 156.51C12.7412 156.21 13.7581 156.064 14.2819 156.372C22.3704 161.145 30.4126 166.002 38.4625 170.844C38.5704 170.906 38.6474 171.037 38.763 171.16C37.5612 171.937 36.3595 172.715 35.1655 173.493C32.5464 175.078 29.8965 176.603 27.339 178.281C26.1604 179.051 25.3053 179.081 24.0805 178.304C18.5726 174.801 12.9877 171.414 7.43367 167.988C5.41541 166.687 3.38174 165.409 1.38659 164.078C0.855065 163.731 0.454494 163.216 0 162.777Z" fill="black"/>
<path d="M72.4186 267.248C72.5572 268.341 72.6959 269.434 72.8268 270.527C71.4325 273.152 69.7686 275.67 68.7056 278.418C65.0388 287.879 64.6845 297.917 64.307 307.871C64.0143 315.623 64.4225 323.398 64.6536 331.165C64.7923 335.846 65.0234 340.534 65.5087 345.191C66.1635 351.519 66.9569 357.839 67.9352 364.121C69.1138 371.681 70.2 379.279 71.9641 386.707C74.0825 395.606 76.8865 404.344 79.39 413.15C78.1421 412.103 76.9019 411.056 75.6539 410.01C75.5846 409.409 75.6385 408.762 75.4305 408.216C71.9949 399.163 69.8148 389.764 68.0046 380.295C65.6088 367.77 63.398 355.207 62.9204 342.412C62.6816 336.038 61.9652 329.68 61.8188 323.306C61.6879 317.663 62.0961 312.005 62.1578 306.347C62.2425 298.749 62.774 291.197 64.2377 283.73C65.3932 277.841 67.9121 272.513 71.1937 267.525C71.3555 267.263 71.9949 267.333 72.4186 267.248Z" fill="#002249"/>
<path d="M72.4186 267.248C72.0026 267.333 71.3555 267.263 71.1937 267.517C67.9121 272.498 65.3932 277.833 64.2377 283.722C62.774 291.189 62.2425 298.741 62.1578 306.339C62.0962 311.989 61.6879 317.648 61.8188 323.298C61.9729 329.672 62.6816 336.031 62.9204 342.405C63.398 355.199 65.6088 367.762 68.0046 380.287C69.8148 389.756 71.9949 399.155 75.4305 408.208C75.6385 408.755 75.5846 409.401 75.6539 410.002C74.5755 409.109 73.497 408.216 72.4109 407.331C72.0103 406.245 71.5173 405.191 71.2323 404.074C69.5298 397.569 67.7427 391.088 66.2559 384.537C64.9233 378.671 63.7447 372.751 62.8665 366.8C61.8651 359.972 61.1409 353.097 60.5324 346.223C59.8468 338.448 59.0919 330.657 58.9763 322.867C58.8531 314.437 59.4231 306 59.6927 297.563C61.58 290.673 63.4596 283.784 65.3469 276.901C66.7489 271.782 68.1432 266.663 69.5914 261.567C69.7686 260.928 70.2925 260.397 70.6545 259.812C71.2554 262.275 71.8331 264.761 72.4186 267.248Z" fill="#002249"/>
<path d="M94.111 425.198C89.697 419.486 86.5695 413.027 84.6128 406.191C81.5777 395.576 78.9047 384.829 76.663 374.021C75.2379 367.154 74.7834 360.08 74.0747 353.074C73.5124 347.478 73.0502 341.858 72.8653 336.246C72.5726 327.671 72.1874 319.072 72.5341 310.511C72.8191 303.437 74.0978 296.401 74.9837 289.349C75.0376 288.926 75.4536 288.549 75.7001 288.156C76.1084 290.889 76.5244 293.622 76.9327 296.355C76.8171 296.516 76.6091 296.67 76.5937 296.847C76.016 303.922 75.2148 310.996 74.9529 318.079C74.7372 323.922 74.9914 329.795 75.3227 335.638C75.885 345.507 76.1469 355.445 77.495 365.214C78.8585 375.122 81.4083 384.86 83.4034 394.683C84.8747 401.919 87.6556 408.709 90.8063 415.321C92.1312 418.1 94.2265 420.51 96.0445 423.035C96.7224 423.974 97.277 423.735 97.4157 422.588C97.8163 424.667 98.2168 426.745 98.6251 428.832C97.123 427.623 95.6131 426.414 94.111 425.198Z" fill="#002249"/>
<path d="M61.326 397.669C61.1642 395.961 61.195 394.213 60.8099 392.55C59.716 387.747 58.4065 382.989 57.2741 378.193C56.4575 374.737 55.7103 371.265 55.0863 367.77C54.5933 364.999 54.3468 362.173 53.9694 359.379C53.5149 356.023 52.9525 352.682 52.6136 349.318C52.3671 346.87 52.3979 344.398 52.3132 341.935C52.1745 338.117 52.0821 334.299 51.8741 330.48C51.8355 329.726 51.3579 329.002 51.0806 328.263C52.5828 322.928 54.0772 317.586 55.5794 312.251C55.4561 315.761 55.2404 319.264 55.2404 322.774C55.2327 325.623 55.4638 328.479 55.6179 331.327C55.8798 336.208 55.9722 341.111 56.496 345.961C57.2587 353.09 58.0752 360.241 59.354 367.293C61.041 376.554 63.1902 385.73 65.1776 394.937C65.7323 397.508 66.4256 400.048 67.0573 402.604C65.1468 400.964 63.2364 399.317 61.326 397.669Z" fill="#002249"/>
<path d="M73.2352 272.575C73.3738 273.668 73.5125 274.761 73.6434 275.854C72.0412 280.512 69.6994 285.069 69.0061 289.857C67.866 297.733 67.6349 305.762 67.319 313.737C67.1111 318.956 67.4192 324.191 67.4962 329.426C67.5039 330.172 67.4654 330.927 67.527 331.674C68.0509 338.209 68.5747 344.745 69.1447 351.281C69.5299 355.653 69.8149 360.041 70.4774 364.375C71.371 370.256 72.4957 376.115 73.6743 381.95C75.4383 390.726 77.472 399.44 80.5533 407.87C81.6009 410.726 82.4945 413.643 83.4574 416.538C82.4945 415.729 81.5316 414.929 80.5687 414.12C80.5071 413.659 80.5148 413.166 80.3684 412.727C78.7584 407.685 77.0252 402.681 75.523 397.616C72.3878 387.077 70.331 376.292 68.8058 365.414C67.8968 358.917 67.2497 352.374 66.6874 345.838C66.0249 338.14 65.2546 330.434 65.1313 322.721C65.0004 314.645 65.5011 306.547 65.9016 298.472C66.0788 294.83 66.5025 291.174 67.165 287.594C68.0894 282.59 69.3604 277.656 72.1336 273.276C72.3339 272.937 72.8577 272.806 73.2352 272.575Z" fill="#002249"/>
<path d="M67.0571 402.612C66.4254 400.056 65.7321 397.515 65.1775 394.944C63.19 385.737 61.0408 376.561 59.3538 367.3C58.0673 360.249 57.2585 353.105 56.4959 345.969C55.972 341.111 55.8796 336.215 55.6177 331.335C55.4636 328.486 55.2325 325.638 55.2402 322.782C55.2479 319.272 55.4559 315.769 55.5792 312.259C56.5344 308.849 57.4973 305.431 58.4525 302.02C58.3216 304.73 58.0442 307.448 58.0982 310.157C58.2984 319.749 58.5604 329.341 58.907 338.933C59.0534 342.997 59.2922 347.077 59.7929 351.111C60.5863 357.493 61.4414 363.875 62.6123 370.187C64.0913 378.178 65.8477 386.115 67.6194 394.051C68.5053 398.016 69.6993 401.919 70.7547 405.845C69.5298 404.767 68.2973 403.689 67.0571 402.612Z" fill="#002249"/>
<path d="M351.093 479.985C348.897 476.752 346.694 473.519 344.499 470.286C344.376 468.192 344.137 466.098 344.16 464.004C344.26 456.899 344.152 449.77 344.722 442.696C345.215 436.522 346.517 430.417 347.457 424.274C347.58 424.282 347.703 424.29 347.834 424.297C347.834 424.828 347.834 425.36 347.834 425.883C347.973 432.072 347.781 438.285 348.32 444.436C349.352 456.106 350.238 467.838 354.428 478.954C355.307 481.279 356.685 483.411 357.749 485.682C357.957 486.129 357.741 486.775 357.725 487.322C355.507 484.881 353.296 482.433 351.093 479.985Z" fill="#E7EFFF"/>
<path d="M7.41836 167.988C12.9724 171.414 18.5573 174.801 24.0652 178.304C25.29 179.081 26.1528 179.051 27.3237 178.281C29.8812 176.603 32.5388 175.078 35.1502 173.492C35.8358 173.993 36.5214 174.501 37.1993 175.001C36.9297 175.602 36.4675 176.187 36.4135 176.81C35.9359 181.968 35.5277 187.126 35.104 192.284C31.2215 186.926 25.706 184.424 19.5279 182.545C16.2155 181.537 13.1881 179.189 10.4149 176.964C7.68027 174.778 6.54789 171.606 7.41836 167.988Z" fill="#E19B78"/>
<path d="M45.3415 348.748C45.9963 354.183 46.5278 359.641 47.3367 365.06C48.184 370.742 49.224 376.407 50.3178 382.05C50.8031 384.567 51.6274 387.023 52.2899 389.502C47.976 385.353 43.5775 381.273 39.41 376.977C38.6165 376.161 38.1466 374.36 38.4317 373.259C40.6117 365.06 43.0151 356.916 45.3415 348.748Z" fill="#002249"/>
<path d="M122.035 472.126C121.034 471.987 120.033 471.741 119.031 471.733C114.532 471.695 110.034 471.725 105.535 471.725C105.242 468.885 104.957 466.044 104.665 463.196C110.558 463.211 116.451 463.234 122.344 463.25C122.243 466.214 122.143 469.17 122.035 472.126Z" fill="#DF9A7B"/>
<path d="M83.4575 416.538C82.4946 413.651 81.601 410.733 80.5533 407.87C77.4643 399.44 75.4384 390.726 73.6743 381.95C72.4957 376.115 71.371 370.257 70.4774 364.375C69.815 360.041 69.5299 355.653 69.1448 351.281C68.567 344.753 68.0509 338.209 67.5271 331.674C67.4655 330.927 67.5117 330.172 67.4963 329.426C67.4192 324.199 67.1111 318.956 67.3191 313.737C67.6349 305.762 67.866 297.74 69.0061 289.857C69.6994 285.061 72.0412 280.512 73.6435 275.854C73.7821 276.67 73.9131 277.494 74.0518 278.31C73.0966 280.62 71.9334 282.86 71.2247 285.246C68.7211 293.668 68.6903 302.428 68.4284 311.073C68.1665 319.68 68.8058 328.325 69.1448 336.947C69.3528 342.158 69.5299 347.393 70.0923 352.574C70.801 359.164 71.7408 365.738 72.8423 372.273C74.6064 382.774 76.6863 393.228 80.0218 403.366C81.6318 408.262 83.4113 413.104 85.1137 417.977C84.5668 417.5 84.0121 417.023 83.4575 416.538Z" fill="#002249"/>
<path d="M41.2511 177.496C43.2924 178.858 45.3338 180.228 47.3752 181.591C46.9823 183.131 46.3198 184.663 46.2428 186.218C45.9809 191.645 45.9193 197.072 45.7806 202.507C43.5852 200.49 41.382 198.465 39.1866 196.448C39.4793 191.714 39.6873 186.964 40.0956 182.238C40.2265 180.636 40.8505 179.074 41.2511 177.496Z" fill="#E09975"/>
<path d="M73.2351 272.575C72.8576 272.798 72.3338 272.937 72.1258 273.268C69.3526 277.648 68.0816 282.583 67.1572 287.586C66.4947 291.174 66.0788 294.823 65.8939 298.464C65.4933 306.539 65.0003 314.638 65.1235 322.713C65.2468 330.426 66.0171 338.14 66.6796 345.83C67.2419 352.374 67.889 358.91 68.798 365.407C70.3233 376.284 72.38 387.062 75.5153 397.608C77.0251 402.681 78.7507 407.685 80.3606 412.719C80.4993 413.158 80.4993 413.643 80.5609 414.113C80.1681 413.789 79.7752 413.458 79.3823 413.135C76.8788 404.328 74.0748 395.591 71.9564 386.692C70.1846 379.263 69.1061 371.665 67.9275 364.106C66.9492 357.824 66.1558 351.504 65.501 345.176C65.0234 340.519 64.7923 335.831 64.6459 331.15C64.4148 323.39 63.9989 315.608 64.2993 307.856C64.6768 297.91 65.0311 287.871 68.6979 278.403C69.7609 275.654 71.4325 273.137 72.8191 270.512C72.9655 271.213 73.0964 271.898 73.2351 272.575Z" fill="#002249"/>
<path d="M85.1292 417.977C83.4267 413.112 81.6473 408.262 80.0373 403.366C76.7018 393.228 74.6219 382.774 72.8578 372.273C71.7486 365.738 70.8165 359.164 70.1 352.574C69.5377 347.393 69.3605 342.166 69.1525 336.947C68.8136 328.325 68.1742 319.68 68.4361 311.073C68.698 302.428 68.7289 293.668 71.2324 285.246C71.9411 282.868 73.1043 280.62 74.0595 278.31C74.1982 278.995 74.3292 279.68 74.4678 280.358C73.243 284.207 71.4789 287.971 70.9089 291.92C70.0307 297.994 69.8998 304.191 69.5762 310.342C69.3297 314.961 69.0601 319.603 69.1988 324.222C69.4376 332.22 69.6147 340.249 70.4775 348.194C71.5868 358.417 73.243 368.586 74.853 378.748C76.6247 389.91 79.7831 400.726 83.5346 411.372C84.4821 414.059 85.6915 416.653 86.7854 419.294C86.223 418.862 85.6761 418.424 85.1292 417.977Z" fill="#002249"/>
<path d="M70.7625 405.845C69.7071 401.919 68.5131 398.016 67.6273 394.051C65.8555 386.122 64.0991 378.178 62.6201 370.187C61.4492 363.867 60.5941 357.485 59.8007 351.111C59.3 347.077 59.0612 342.997 58.9148 338.933C58.5682 329.341 58.3063 319.757 58.106 310.157C58.0521 307.448 58.3294 304.73 58.4603 302.02C58.8763 300.527 59.2923 299.041 59.7083 297.548C59.4387 305.985 58.8609 314.422 58.9919 322.851C59.1074 330.642 59.8623 338.432 60.5479 346.208C61.1565 353.082 61.8806 359.956 62.882 366.785C63.7602 372.735 64.9388 378.655 66.2715 384.521C67.7582 391.072 69.5531 397.562 71.2478 404.059C71.5405 405.167 72.0335 406.23 72.4264 407.315C71.8641 406.83 71.3171 406.338 70.7625 405.845Z" fill="#002249"/>
<path d="M63.8063 193.069C64.0913 200.074 64.3687 207.079 64.6691 214.077C64.7461 215.84 64.9156 217.595 65.0389 219.358C63.5213 218.011 62.0038 216.664 60.4862 215.309C60.363 213.761 60.1473 212.222 60.1396 210.675C60.0933 205.371 60.0702 200.074 60.1627 194.77C60.1858 193.623 60.7404 192.492 61.0563 191.352C61.9729 191.922 62.8896 192.492 63.8063 193.069Z" fill="#DD8E67"/>
<path d="M123.646 447.576C123.646 446.352 123.638 445.128 123.638 443.904C124.115 444.32 124.524 444.897 125.078 445.121C129.569 446.93 132.612 443.589 134.238 438.916C135.308 435.837 134.808 432.604 133.914 429.486C135.27 430.741 136.626 432.003 137.989 433.258C138.79 437.299 137.727 441.01 135.832 444.52C134.006 447.892 131.357 450.094 127.297 450.078C126.087 449.239 124.87 448.408 123.646 447.576Z" fill="#002249"/>
<path d="M41.2511 177.496C40.8506 179.074 40.2343 180.636 40.0956 182.238C39.6874 186.964 39.4794 191.706 39.1867 196.448C37.8309 195.063 36.4751 193.677 35.1193 192.291C35.543 187.134 35.9513 181.968 36.4289 176.818C36.4828 176.195 36.945 175.61 37.2146 175.009C38.555 175.833 39.9031 176.664 41.2511 177.496Z" fill="#E19A77"/>
<path d="M61.0562 191.352C60.7481 192.491 60.1857 193.631 60.1626 194.77C60.0702 200.066 60.0933 205.37 60.1395 210.674C60.1549 212.222 60.3629 213.761 60.4862 215.309C59.3923 214.37 58.2907 213.423 57.1969 212.483C57.0813 209.704 56.8502 206.918 56.8733 204.139C56.8964 200.467 57.0582 196.795 57.2893 193.13C57.374 191.837 57.8208 190.559 58.1058 189.274C59.0919 189.966 60.0779 190.659 61.0562 191.352Z" fill="#DE9069"/>
<path d="M51.5658 184.693C52.6135 185.44 53.6688 186.187 54.7165 186.933C54.47 187.272 54.0309 187.596 54.0078 187.95C53.8152 190.367 53.6149 192.792 53.5841 195.209C53.5225 199.951 53.5687 204.693 53.5687 209.435C52.6135 208.604 51.666 207.772 50.7108 206.949C50.7031 202.476 50.5952 197.996 50.7339 193.531C50.8263 190.575 51.2808 187.634 51.5658 184.693Z" fill="#DF946F"/>
<path d="M45.7729 202.507C45.9116 197.08 45.9732 191.645 46.2351 186.218C46.3122 184.662 46.9747 183.131 47.3675 181.591C48.238 182.245 49.1085 182.9 49.9866 183.554C49.6785 185.178 49.1624 186.787 49.0931 188.419C48.8466 193.954 48.7618 199.497 48.6155 205.039C47.668 204.2 46.7205 203.354 45.7729 202.507Z" fill="#E09772"/>
<path d="M127.305 450.071C131.364 450.086 134.014 447.884 135.84 444.513C137.735 441.002 138.798 437.292 137.997 433.25C139.291 434.651 141.725 435.144 141.556 437.715C139.291 442.095 137.026 446.483 134.754 450.864C134.315 451.541 133.876 452.211 133.436 452.888C132.327 452.619 131.141 452.496 130.124 452.026C129.099 451.564 128.237 450.74 127.305 450.071Z" fill="#002249"/>
<path d="M133.436 452.896C133.876 452.218 134.315 451.549 134.754 450.871C136.656 452.103 138.559 453.335 140.462 454.574C139.514 457.892 138.575 461.202 137.627 464.52C137.589 464.05 137.65 463.542 137.481 463.127C136.156 459.701 134.792 456.298 133.436 452.896Z" fill="#F1F1F1"/>
<path d="M58.1059 189.274C57.8209 190.559 57.3741 191.829 57.2894 193.13C57.0583 196.795 56.9042 200.467 56.8734 204.139C56.8503 206.918 57.0814 209.704 57.1969 212.483C56.519 211.914 55.8411 211.352 55.171 210.782C55.3327 203.053 55.4945 195.317 55.664 187.588C56.4728 188.15 57.2894 188.712 58.1059 189.274Z" fill="#DE926B"/>
<path d="M48.6154 205.039C48.7617 199.497 48.8465 193.954 49.093 188.419C49.1623 186.787 49.6784 185.178 49.9865 183.554C50.5104 183.931 51.0419 184.308 51.5657 184.693C51.273 187.634 50.8262 190.575 50.7338 193.523C50.5951 197.996 50.7107 202.468 50.7107 206.941C50.0174 206.31 49.3164 205.678 48.6154 205.039Z" fill="#DF9670"/>
<path d="M55.6562 187.588C55.4945 195.317 55.3327 203.053 55.1632 210.782C54.6317 210.336 54.1002 209.882 53.5686 209.435C53.5686 204.693 53.5224 199.951 53.584 195.209C53.6149 192.784 53.8151 190.367 54.0077 187.95C54.0385 187.595 54.4699 187.272 54.7164 186.933C55.0323 187.149 55.3481 187.365 55.6562 187.588Z" fill="#DE936D"/>
<path d="M388.069 302.528C387.506 304.707 386.936 306.893 386.374 309.072C382.268 309.072 378.162 309.064 374.049 309.064C368.857 309.064 363.665 309.064 358.465 309.064C344.661 309.064 330.849 309.072 317.044 309.072C316.651 308.656 316.251 308.24 315.858 307.832C314.479 305.923 313.108 304.014 311.729 302.105C327.444 302.105 343.158 302.097 358.873 302.097C368.618 302.236 378.339 302.382 388.069 302.528Z" fill="#F1F1F1"/>
<path d="M347.827 425.891C347.827 425.36 347.827 424.828 347.827 424.305C347.704 424.297 347.58 424.29 347.449 424.282C346.509 430.417 345.208 436.53 344.715 442.704C344.145 449.778 344.26 456.907 344.152 464.012C344.121 466.106 344.368 468.2 344.491 470.294C343.706 469.262 342.92 468.238 342.134 467.207C341.826 466.598 341.518 465.998 341.21 465.39C341.086 461.495 340.84 457.607 340.871 453.712C340.925 446.16 340.786 438.585 341.402 431.072C341.903 424.975 343.22 418.916 344.499 412.912C345.708 407.246 347.249 401.642 348.797 396.053C350.423 390.195 352.233 384.39 353.997 378.57C354.043 378.424 354.482 378.401 354.737 378.316C355.569 380.233 356.408 382.15 357.24 384.075C356.424 386.584 355.63 389.102 354.791 391.603C351.709 400.749 349.206 410.017 348.597 419.717C348.466 421.788 348.089 423.835 347.827 425.891Z" fill="#E7EFFF"/>
<path d="M383.008 323.413C382.214 326.015 381.421 328.617 380.619 331.219C380.604 331.081 380.596 330.934 380.589 330.796C379.957 330.657 379.318 330.373 378.686 330.396C375.836 330.48 372.993 330.711 370.143 330.765C366.392 330.834 362.64 330.781 358.889 330.781C350.708 330.781 342.534 330.765 334.354 330.796C333.653 330.796 332.944 331.065 332.243 331.204C331.827 330.657 331.403 330.111 330.987 329.564C330.602 329.118 330.217 328.671 329.832 328.225C329.662 327.855 329.485 327.486 329.316 327.116C328.907 326.431 328.499 325.754 328.091 325.069C327.875 324.645 327.659 324.222 327.444 323.798C337.928 323.798 348.404 323.806 358.889 323.806C363.942 323.806 369.003 323.806 374.056 323.806C377.037 323.683 380.026 323.544 383.008 323.413Z" fill="#F1F1F1"/>
<path d="M374.049 287.748C379.495 287.748 384.941 287.733 390.387 287.763C391.096 287.771 391.797 288.025 392.506 288.164C391.104 292.806 389.702 297.44 388.3 302.082C384.217 302.09 380.127 302.005 376.044 302.136C374.334 302.19 373.995 301.543 374.026 300.011C374.11 295.923 374.049 291.836 374.049 287.748Z" fill="#FEFEFE"/>
<path d="M375.659 345.538C374.719 347.878 373.787 350.211 372.847 352.551C372.146 352.397 371.445 352.127 370.744 352.12C366.792 352.081 362.833 352.104 358.881 352.104C353.65 352.112 348.42 352.127 343.189 352.135C342.704 351.404 342.219 350.68 341.733 349.949C341.063 348.34 340.393 346.723 339.715 345.114C346.101 345.122 352.495 345.13 358.881 345.138C364.473 345.268 370.066 345.399 375.659 345.538Z" fill="#F1F1F1"/>
<path d="M374.049 287.748C374.049 291.836 374.103 295.923 374.018 300.011C373.987 301.543 374.326 302.19 376.036 302.136C380.119 302.005 384.209 302.09 388.292 302.082C388.215 302.228 388.138 302.382 388.069 302.528C378.339 302.382 368.61 302.236 358.881 302.09C358.881 297.309 358.881 292.529 358.881 287.748C363.942 287.748 368.995 287.748 374.049 287.748Z" fill="#F2F2F2"/>
<path d="M375.659 345.538C370.066 345.399 364.474 345.261 358.881 345.13C358.881 340.349 358.881 335.569 358.881 330.788C362.632 330.788 366.384 330.842 370.135 330.773C372.986 330.719 375.828 330.488 378.678 330.403C379.31 330.388 379.949 330.665 380.581 330.804C378.879 330.796 377.169 330.827 375.466 330.773C374.403 330.742 374.018 331.165 374.033 332.212C374.072 336.038 374.087 339.857 374.026 343.683C374.002 344.922 374.565 345.245 375.636 345.122C375.651 345.261 375.651 345.399 375.659 345.538Z" fill="#F2F2F2"/>
<path d="M358.881 352.097C362.833 352.097 366.792 352.074 370.744 352.112C371.445 352.12 372.146 352.397 372.847 352.543C370.505 357.308 368.156 362.081 365.814 366.846C363.364 366.846 360.922 366.846 358.473 366.846C358.611 366.061 358.858 365.276 358.866 364.483C358.904 360.364 358.881 356.231 358.881 352.097Z" fill="#F2F2F2"/>
<path d="M383.008 323.413C380.019 323.544 377.037 323.683 374.049 323.814C374.049 318.895 374.049 313.976 374.049 309.064C378.154 309.064 382.26 309.072 386.374 309.072C385.257 313.852 384.132 318.633 383.008 323.413Z" fill="#FEFEFE"/>
<path d="M358.473 366.854C360.922 366.854 363.364 366.854 365.814 366.854C363.518 371.396 361.23 375.938 358.935 380.472C358.919 378.786 358.835 377.1 358.904 375.414C358.958 374.152 358.457 373.736 357.248 373.805C355.838 373.882 354.413 373.844 353.003 373.852C352.495 372.889 351.986 371.927 351.47 370.965C351.339 370.688 351.216 370.411 351.085 370.141C350.792 369.456 350.5 368.771 350.207 368.093C350.099 367.678 349.991 367.27 349.883 366.854C352.741 366.854 355.607 366.854 358.473 366.854Z" fill="#F1F1F1"/>
<path d="M375.643 345.122C374.565 345.245 374.01 344.922 374.033 343.683C374.095 339.864 374.079 336.038 374.041 332.212C374.033 331.158 374.411 330.734 375.474 330.773C377.176 330.827 378.886 330.796 380.589 330.804C380.597 330.942 380.612 331.088 380.62 331.227C379.241 335.407 377.87 339.587 376.468 343.76C376.306 344.245 375.921 344.668 375.643 345.122Z" fill="#FEFEFE"/>
<path d="M353.003 373.851C354.421 373.844 355.838 373.882 357.248 373.805C358.457 373.736 358.958 374.159 358.904 375.414C358.835 377.1 358.919 378.786 358.935 380.472C358.372 381.673 357.81 382.874 357.24 384.075C356.408 382.158 355.568 380.241 354.736 378.316C354.197 377.092 353.658 375.861 353.119 374.637C353.08 374.375 353.042 374.113 353.003 373.851Z" fill="#FDFEFE"/>
<path d="M77.7724 70.815C73.6512 71.8158 69.5684 72.2161 65.5935 70.2069C60.9177 67.8436 58.8378 64.1793 60.1935 59.1524C61.3876 54.7106 61.2951 50.4997 60.3553 46.0656C59.0535 39.9379 62.3736 34.2336 67.6965 32.9788C70.9088 32.2167 74.0672 32.7016 77.0791 34.0796C81.7319 36.1966 86.5619 37.5592 91.7231 37.2435C93.8954 37.1127 96.0755 36.8509 98.2093 36.4044C110.057 33.941 115.703 41.5699 116.582 50.2919C116.967 54.1486 118.531 57.0354 121.812 59.2756C126.373 62.3933 127.359 66.7966 124.724 71.6233C122.575 75.5571 119.809 79.0058 115.457 80.7687C115.041 80.4454 114.509 80.199 114.24 79.7757C113.662 78.8673 113.323 77.8049 112.722 76.9196C111.151 74.6025 109.695 74.5486 107.453 76.1498C106.598 76.758 105.158 77.0505 104.133 76.8196C101.722 76.2884 101.345 75.0028 102.099 71.4386C103.178 66.3424 100.944 61.8467 95.9753 60.3225C91.1762 58.8522 86.1998 57.9592 80.8461 56.7044C80.0295 60.9384 79.3285 64.7027 78.5659 68.4594C78.3887 69.2677 78.0421 70.0298 77.7724 70.815Z" fill="#9F8268"/>
<path d="M132.304 126.242C135.84 131.615 136.957 137.789 137.927 143.947C138.883 150.021 139.376 156.172 140.077 162.292C140.115 162.631 140.1 162.977 140.184 163.3C140.878 165.741 140.446 167.719 137.958 168.881C137.303 169.028 136.618 169.112 135.986 169.336C129.523 171.653 122.86 172.684 116.012 172.553C113.508 172.507 111.004 172.299 108.501 172.168C106.991 171.476 105.489 170.783 103.979 170.09C103.702 167.757 103.301 165.44 103.193 163.1C103.055 160.252 103.162 157.388 103.162 154.532C103.432 153.023 103.748 151.522 103.956 150.006C105.019 142.207 107.076 134.733 111.151 127.912C111.836 126.765 112.653 125.71 113.416 124.609C116.458 122.231 119.416 119.644 123.699 120.083C127.466 120.876 130.155 123.178 132.304 126.242Z" fill="#E7EFFF"/>
<path d="M77.7724 70.815C78.0343 70.0298 78.3887 69.2677 78.5504 68.4594C79.3054 64.7027 80.0141 60.9306 80.8306 56.7043C86.1921 57.9591 91.1684 58.8521 95.9599 60.3224C100.921 61.8467 103.162 66.3424 102.084 71.4385C101.329 75.0028 101.714 76.2883 104.118 76.8195C105.142 77.0428 106.583 76.7579 107.438 76.1498C109.679 74.5486 111.135 74.6025 112.707 76.9196C113.308 77.8049 113.654 78.8672 114.224 79.7756C114.486 80.1913 115.026 80.4376 115.441 80.7687C115.026 81.2228 114.378 81.6231 114.24 82.1466C113.685 84.2944 112.483 85.8725 110.534 86.9041C110.026 87.5199 109.317 88.0588 109.032 88.767C107.669 92.1157 106.059 95.2642 103.147 97.5583C99.8269 99.6675 96.345 101.199 92.2546 100.614C92.1005 100.591 91.8771 101.03 91.6922 101.253C91.6922 101.8 91.6922 102.339 91.6922 102.885C91.6845 103.57 91.6845 104.256 91.6768 104.933C91.5536 105.072 91.4303 105.202 91.3071 105.341C92.0081 101.823 90.6369 99.7676 87.2166 98.5205C85.7838 97.9971 84.5513 96.3958 83.6731 95.0025C79.4286 88.3205 78.1884 80.8764 78.458 73.0782C78.4888 72.3392 78.0189 71.5694 77.7724 70.815Z" fill="#E19C79"/>
<path d="M116.22 110.699C116.52 110.938 116.828 111.176 117.129 111.423C114.509 114.533 111.813 117.581 109.287 120.753C105.281 125.78 103.085 131.723 101.136 137.735C98.9179 144.594 97.7855 151.653 97.3002 158.882C96.8457 165.656 97.1924 172.33 98.995 178.781C100.52 184.231 102.608 189.589 105.088 194.678C108.501 201.675 112.522 208.38 116.281 215.216C115.465 219.45 114.648 223.677 113.832 227.911C113.007 226.017 111.913 224.192 111.42 222.214C110.581 218.835 110.465 215.247 109.425 211.945C107.885 207.041 105.974 202.23 103.902 197.518C100.913 190.721 97.9704 183.9 96.7148 176.572C95.49 169.42 95.4206 162.207 96.1062 154.932C96.8689 146.888 98.5559 139.136 101.56 131.661C104.819 123.532 109.302 116.257 116.22 110.699Z" fill="#E7EFFF"/>
<path d="M116.22 110.699C109.302 116.257 104.819 123.532 101.553 131.653C98.5483 139.128 96.8536 146.88 96.0986 154.925C95.413 162.199 95.4824 169.42 96.7072 176.564C97.9628 183.9 100.913 190.721 103.894 197.511C105.967 202.222 107.877 207.033 109.418 211.937C110.458 215.239 110.573 218.827 111.413 222.206C111.906 224.185 113 226.009 113.824 227.903C113.678 228.857 113.531 229.812 113.385 230.767C112.907 230.351 112.26 230.02 111.975 229.496C109.556 225.055 109.109 220.105 108.509 215.224C107.977 210.89 106.914 206.748 105.065 202.568C104.927 202.953 104.803 203.107 104.842 203.192C107.068 208.173 107.492 213.5 108.162 218.827C108.616 222.391 109.911 225.855 110.904 229.342C111.359 230.944 112.006 232.491 112.568 234.061C112.43 234.746 112.291 235.424 112.16 236.109C112.121 235.909 112.137 235.67 112.029 235.516C108.008 229.927 106.953 223.322 106.567 216.818C106.128 209.443 103.91 202.722 101.137 196.086C97.362 187.057 94.6889 177.734 94.1728 167.95C93.7029 158.958 94.3885 149.975 96.9075 141.299C98.4327 136.033 100.389 130.86 102.592 125.833C105.35 119.544 109.264 114.009 114.91 109.883C115.357 110.16 115.788 110.429 116.22 110.699Z" fill="#E7EFFF"/>
<path d="M114.925 109.891C109.271 114.009 105.358 119.552 102.608 125.841C100.405 130.868 98.448 136.041 96.9228 141.307C94.4038 149.982 93.7182 158.966 94.1881 167.958C94.6965 177.75 97.3773 187.064 101.152 196.094C103.925 202.738 106.144 209.45 106.583 216.825C106.968 223.33 108.023 229.943 112.044 235.524C112.152 235.678 112.137 235.917 112.175 236.117C111.898 237.749 111.621 239.381 111.343 241.013C110.689 240.089 109.911 239.235 109.41 238.234C105.72 230.936 104.603 223.038 103.956 215.009C103.686 211.652 103.532 208.219 102.669 204.993C101.514 200.675 99.6344 196.556 98.2246 192.299C95.7519 184.816 93.7336 177.272 93.1867 169.297C92.7168 162.315 93.2021 155.464 94.1496 148.612C94.581 145.464 95.4129 142.369 96.1987 139.282C98.4634 130.368 101.891 122 108.046 114.964C108.339 114.625 108.324 114.017 108.455 113.532C108.732 112.169 109.009 110.807 109.294 109.444C109.31 108.49 109.317 107.527 109.333 106.573C110.18 107.112 111.012 107.666 111.875 108.174C112.876 108.767 113.909 109.321 114.925 109.891Z" fill="#E7EFFF"/>
<path d="M113.408 124.617C112.653 125.718 111.829 126.78 111.143 127.92C107.068 134.733 105.011 142.207 103.948 150.013C103.74 151.53 103.424 153.031 103.155 154.54C103.155 153.855 103.155 153.177 103.155 152.492C102.685 153.154 102.654 153.801 102.569 154.44C101.175 164.44 101.475 174.324 105.373 183.77C107.006 187.734 108.832 191.737 112.198 194.693C112.468 196.063 112.73 197.426 113 198.796C112.26 198.242 111.336 197.826 110.796 197.118C107.045 192.153 103.971 186.833 102.377 180.744C100.412 173.208 99.3801 165.633 100.212 157.796C101.113 149.313 102.708 141.045 105.99 133.154C108.67 126.711 111.929 120.614 116.951 115.649C117.722 114.887 118.877 114.51 119.855 113.955C120.295 114.502 120.741 115.048 121.18 115.595C118.068 118.151 115.303 121.015 113.408 124.617Z" fill="#E7EFFF"/>
<path d="M119.855 113.955C118.877 114.51 117.722 114.887 116.951 115.649C111.929 120.614 108.67 126.711 105.99 133.154C102.708 141.053 101.113 149.32 100.212 157.796C99.3801 165.64 100.412 173.208 102.377 180.744C103.964 186.833 107.045 192.153 110.796 197.118C111.336 197.826 112.252 198.25 113 198.796C113.554 201.252 114.109 203.708 114.656 206.171C114.117 205.663 113.485 205.224 113.061 204.631C111.374 202.253 109.733 199.835 108.116 197.403C102.092 188.365 99.0797 178.265 98.3479 167.565C98.0167 162.731 98.579 157.796 99.0874 152.939C100.012 144.101 102.454 135.672 106.429 127.689C109.371 121.777 113.154 116.55 118.276 112.339C118.8 112.877 119.324 113.416 119.855 113.955Z" fill="#E7EFFF"/>
<path d="M118.269 112.339C113.146 116.55 109.356 121.777 106.421 127.689C102.446 135.672 100.012 144.101 99.0798 152.939C98.5714 157.796 98.009 162.731 98.3403 167.565C99.0798 178.265 102.084 188.365 108.108 197.403C109.726 199.828 111.367 202.245 113.054 204.631C113.47 205.224 114.109 205.663 114.648 206.171C115.318 208.481 116.05 210.775 116.612 213.115C116.767 213.746 116.397 214.508 116.274 215.209C112.514 208.38 108.493 201.675 105.081 194.67C102.6 189.582 100.513 184.224 98.9873 178.773C97.1848 172.322 96.8381 165.648 97.2926 158.874C97.7779 151.645 98.9103 144.594 101.129 137.727C103.078 131.715 105.273 125.772 109.279 120.745C111.813 117.566 114.502 114.517 117.121 111.415C117.506 111.723 117.891 112.031 118.269 112.339Z" fill="#E7EFFF"/>
<path d="M91.2377 108.128C91.2454 107.881 91.2531 107.635 91.2608 107.389C92.9401 107.25 94.6348 107.15 96.3064 106.973C100.713 106.496 104.919 105.287 108.886 103.293C108.886 103.771 108.809 104.263 108.901 104.717C109.356 107.027 108.216 108.151 106.105 108.543C102.199 109.275 98.3016 110.045 94.3729 110.668C92.0234 111.045 91.3609 110.414 91.2377 108.128Z" fill="#DF9670"/>
<path d="M91.2377 108.128C91.3533 110.406 92.0157 111.045 94.3729 110.668C98.2939 110.045 102.199 109.275 106.105 108.544C108.216 108.151 109.356 107.027 108.901 104.718C108.809 104.256 108.886 103.771 108.886 103.293C109.009 103.024 109.132 102.755 109.248 102.485C109.271 103.848 109.294 105.21 109.325 106.573C109.31 107.527 109.302 108.49 109.287 109.444C103.517 112.4 97.2078 112.939 90.9065 113.54C90.8911 112.446 90.8679 111.353 90.8525 110.26C90.8525 109.983 90.8525 109.706 90.8602 109.437C90.9912 109.005 91.1145 108.567 91.2377 108.128Z" fill="#E09873"/>
<path d="M109.256 102.485C109.132 102.755 109.009 103.024 108.894 103.293C104.926 105.295 100.728 106.496 96.3141 106.973C94.6348 107.158 92.9478 107.258 91.2685 107.389C91.2839 106.704 91.2993 106.019 91.3147 105.333C91.438 105.195 91.5612 105.064 91.6845 104.925C97.7778 104.548 103.709 103.486 109.271 100.83C109.263 101.384 109.263 101.939 109.256 102.485Z" fill="#DE936D"/>
<path d="M109.271 100.838C103.71 103.486 97.778 104.548 91.6847 104.933C91.6924 104.248 91.6924 103.563 91.7001 102.885C97.9398 103.062 103.81 101.661 109.333 98.7823C109.31 99.4675 109.294 100.153 109.271 100.838Z" fill="#DE916A"/>
<path d="M109.333 98.7746C103.81 101.654 97.9396 103.055 91.7 102.878C91.7 102.331 91.7 101.792 91.7 101.246C93.0788 101.246 94.4577 101.269 95.8366 101.238C100.043 101.13 103.894 99.7138 107.646 97.9663C108.855 97.4044 109.61 96.5499 109.302 95.0949C109.425 95.0949 109.541 95.0949 109.664 95.0949C109.556 96.3189 109.441 97.5506 109.333 98.7746Z" fill="#DD8F68"/>
<path d="M113.408 124.617C115.311 121.014 118.076 118.151 121.188 115.595C122.02 117.096 122.86 118.597 123.692 120.091C119.401 119.652 116.451 122.238 113.408 124.617Z" fill="#E7EFFF"/>
<path d="M109.664 95.0949C109.541 95.0949 109.425 95.0949 109.302 95.0949C108.832 95.3643 108.378 95.6954 107.877 95.8878C106.313 96.4729 104.726 97.004 103.155 97.5506C106.074 95.2566 107.684 92.1003 109.04 88.7594C109.325 88.0511 110.034 87.5123 110.542 86.8964C110.249 89.6292 109.957 92.3621 109.664 95.0949Z" fill="#DC8B64"/>
<path d="M358.881 287.748C358.881 292.529 358.881 297.309 358.881 302.09C343.166 302.09 327.451 302.097 311.737 302.097C310.943 301.266 310.15 300.435 309.349 299.603C306.545 296.739 303.941 293.629 300.875 291.074C297.432 288.195 294.181 289.303 292.971 293.637C292.209 296.362 292.078 299.264 291.662 302.09C254.309 302.09 216.955 302.09 179.602 302.09C175.273 302.09 175.273 302.09 175.281 306.354C175.281 309.056 175.281 309.056 178.1 309.056C215.045 309.056 251.99 309.056 288.927 309.056C289.782 309.056 290.637 309.056 291.377 309.056C291.646 310.242 291.839 311.089 292.032 311.928C292.332 315.731 292.633 319.541 292.941 323.344C292.101 323.498 291.269 323.791 290.429 323.791C253.708 323.814 216.979 323.814 180.257 323.814C175.204 323.814 175.265 323.814 175.25 328.864C175.242 330.426 175.751 330.811 177.253 330.811C216.093 330.765 254.933 330.773 293.773 330.765C293.88 330.804 293.988 330.842 294.096 330.888C294.512 334.907 294.928 338.925 295.352 343.028C299.519 343.028 303.379 343.028 307.23 343.028C308.185 343.213 309.141 343.398 310.088 343.583C310.774 344.098 311.467 344.614 312.153 345.13C268.182 345.13 224.22 345.13 180.249 345.13C175.188 345.13 175.258 345.13 175.242 350.18C175.242 351.743 175.743 352.127 177.245 352.12C217.048 352.074 256.851 352.074 296.654 352.066C297.039 353.921 297.516 355.769 297.778 357.639C297.963 358.963 298.603 359.087 299.735 358.986C303.186 358.671 306.645 358.455 310.104 358.209C310.928 358.348 311.744 358.494 312.569 358.632C313.262 359.033 313.948 359.425 314.641 359.826C314.618 360.48 314.595 361.134 314.571 361.789C313.77 362.404 312.969 363.013 312.168 363.628C310.936 364.16 309.703 364.691 308.47 365.23C307.107 365.661 305.744 366.092 304.38 366.523C303.579 366.646 302.77 366.762 301.969 366.885C301.152 366.877 300.328 366.862 299.512 366.862C259.508 366.862 219.505 366.862 179.502 366.862C175.281 366.862 175.281 366.862 175.281 371.026C175.281 373.828 175.281 373.828 178.192 373.828C219.29 373.828 260.379 373.828 301.476 373.836C301.63 374.283 301.792 374.729 301.923 375.176C303.409 380.095 304.896 385.006 306.375 389.925C307.207 392.489 308.039 395.052 308.871 397.608C309.002 398.293 309.133 398.971 309.264 399.656C281.07 399.656 252.876 399.656 224.674 399.656C219.829 399.656 219.89 399.656 219.906 404.536C219.913 406.168 220.507 406.646 222.078 406.646C251.982 406.607 281.879 406.607 311.783 406.599C311.891 406.638 311.999 406.676 312.114 406.707C312.807 408.593 313.501 410.479 314.194 412.365C314.625 413.697 315.049 415.029 315.48 416.368C314.649 416.538 313.824 416.853 312.992 416.853C283.442 416.876 253.893 416.876 224.351 416.876C219.937 416.876 219.937 416.876 219.937 421.257C219.937 423.843 219.937 423.843 222.656 423.843C254.663 423.843 286.662 423.843 318.67 423.851C318.947 424.274 319.224 424.705 319.502 425.129C320.056 426.345 320.611 427.554 321.158 428.77C321.427 429.332 321.697 429.886 321.967 430.448C322.236 431.002 322.506 431.557 322.775 432.103C323.184 432.927 323.592 433.758 323.993 434.582C324.54 435.675 325.079 436.776 325.626 437.869C326.034 438.685 326.45 439.509 326.858 440.325C327.267 441.133 327.675 441.949 328.091 442.757C328.507 443.566 328.923 444.382 329.339 445.19C329.755 445.991 330.171 446.799 330.587 447.6C330.979 448.323 331.38 449.039 331.773 449.763C332.451 451.002 333.136 452.242 333.814 453.481C334.508 454.682 335.201 455.89 335.894 457.091C336.302 457.769 336.718 458.454 337.127 459.131C337.25 459.316 337.366 459.501 337.489 459.686C338.051 460.586 338.613 461.495 339.176 462.395C339.846 463.396 340.508 464.405 341.179 465.405C341.487 466.013 341.795 466.614 342.103 467.222C339.846 467.792 337.589 468.862 335.34 468.862C280.662 468.954 225.984 468.977 171.313 468.869C165.775 468.862 160.652 466.86 156.431 463.027C155.884 462.534 155.321 462.049 154.767 461.564C156.207 459.439 157.717 457.361 159.05 455.167C159.35 454.666 159.327 453.481 158.965 453.15C155.668 450.125 152.263 447.215 148.897 444.274C148.527 444.028 148.157 443.781 147.788 443.543C147.788 308.979 147.803 174.424 147.764 39.8609C147.764 33.1481 150.014 27.3668 154.566 22.671C159.119 17.9828 164.866 15.3116 171.506 15.2115C180.311 15.0883 189.123 15.2423 197.936 15.1345C199.885 15.1114 200.478 15.7273 200.278 17.5671C200.155 18.7142 200.316 19.892 200.247 21.0467C199.885 27.0512 203.513 30.2536 209.568 30.3306C214.691 30.3922 219.813 30.346 224.936 30.346C248.909 30.346 272.881 30.346 296.846 30.346C302 30.346 305.697 27.8518 306.306 23.7025C306.622 21.5625 306.475 19.3377 306.375 17.1591C306.306 15.6657 306.737 15.1422 308.309 15.1499C317.46 15.2192 326.619 14.919 335.763 15.2577C345.308 15.6118 354.012 21.9551 357.163 31.0542C358.211 34.0719 358.788 37.4129 358.796 40.6076C358.904 80.9073 358.865 121.207 358.865 161.507C298.718 161.514 238.571 161.514 178.431 161.522C177.815 161.522 177.129 161.353 176.606 161.576C176.074 161.799 175.335 162.407 175.327 162.854C175.234 167.973 175.234 173.092 175.327 178.212C175.335 178.658 176.074 179.266 176.606 179.489C177.129 179.713 177.815 179.543 178.431 179.543C238.579 179.551 298.726 179.551 358.865 179.559C358.865 191.714 358.865 203.877 358.865 216.032C299.196 216.032 239.526 216.032 179.856 216.032C175.257 216.032 175.258 216.032 175.265 220.644C175.265 223.407 175.265 223.407 178.015 223.407C238.301 223.407 298.579 223.407 358.865 223.407C358.865 228.188 358.865 232.968 358.865 237.749C298.579 237.749 238.301 237.749 178.015 237.749C175.265 237.749 175.265 237.749 175.265 240.512C175.265 244.716 175.265 244.716 179.448 244.716C239.256 244.716 299.057 244.716 358.865 244.716C358.865 249.635 358.865 254.546 358.865 259.465C298.579 259.465 238.301 259.465 178.015 259.465C175.273 259.465 175.273 259.465 175.265 262.237C175.265 266.432 175.265 266.432 179.448 266.432C239.256 266.432 299.057 266.432 358.865 266.432C358.865 271.213 358.865 275.993 358.865 280.774C298.579 280.774 238.301 280.774 178.015 280.774C175.265 280.774 175.265 280.774 175.265 283.537C175.265 287.74 175.265 287.74 179.448 287.74C239.272 287.748 299.08 287.748 358.881 287.748ZM252.83 147.558C281.44 147.558 310.05 147.535 338.66 147.596C340.647 147.604 341.317 147.219 341.31 145.048C341.225 118.005 341.233 90.961 341.302 63.9175C341.31 61.9237 340.732 61.4387 338.783 61.4464C281.563 61.5003 224.343 61.5003 167.115 61.431C164.92 61.431 164.573 62.1316 164.581 64.0946C164.642 91.0688 164.65 118.051 164.573 145.025C164.565 147.15 165.158 147.612 167.2 147.604C195.748 147.535 224.289 147.558 252.83 147.558ZM210.939 409.994C210.978 401.011 203.267 393.081 194.431 393.105C184.347 393.128 177.499 400.71 177.014 410.064C176.575 418.408 185.603 427.461 193.946 427.015C203.274 426.522 210.523 419.856 210.939 409.994ZM228.896 202.076C229.758 202.076 230.482 202.076 231.214 202.076C237.007 202.076 242.8 202.091 248.593 202.068C250.688 202.06 253.677 202.738 254.648 201.652C255.765 200.405 255.033 197.557 255.218 195.409C255.349 193.87 254.786 193.423 253.261 193.438C245.696 193.508 238.132 193.469 230.567 193.477C229.997 193.477 229.427 193.615 228.896 193.685C228.896 196.502 228.896 199.073 228.896 202.076ZM177.83 193.469C174.017 193.469 170.196 193.515 166.383 193.446C165.074 193.423 164.535 193.808 164.604 195.178C164.696 196.879 164.689 198.588 164.604 200.29C164.542 201.568 164.904 202.114 166.306 202.099C173.94 202.045 181.574 202.053 189.2 202.091C190.418 202.099 190.934 201.745 190.872 200.467C190.787 198.766 190.757 197.049 190.88 195.355C191.003 193.754 190.333 193.4 188.862 193.438C185.195 193.531 181.513 193.469 177.83 193.469ZM209.707 202.076C213.527 202.076 217.356 202.037 221.177 202.099C222.402 202.114 222.902 201.737 222.848 200.467C222.764 198.627 222.794 196.779 222.841 194.94C222.864 193.916 222.525 193.462 221.439 193.469C213.728 193.5 206.009 193.492 198.298 193.469C197.073 193.469 196.565 193.985 196.596 195.194C196.634 196.833 196.673 198.473 196.588 200.105C196.511 201.652 197.189 202.13 198.66 202.099C202.335 202.03 206.024 202.076 209.707 202.076Z" fill="#FEFEFE"/>
<path d="M116.273 215.209C116.404 214.508 116.766 213.746 116.612 213.115C116.05 210.775 115.318 208.48 114.648 206.171C114.093 203.715 113.539 201.26 112.992 198.796C112.722 197.426 112.46 196.063 112.191 194.693C111.906 192.915 111.613 191.137 111.328 189.366C110.92 186.964 110.511 184.57 110.119 182.168C109.572 178.835 109.04 175.502 108.501 172.176C111.004 172.307 113.508 172.507 116.012 172.561C122.86 172.692 129.523 171.66 135.986 169.343C136.618 169.12 137.296 169.035 137.958 168.889C138.675 181.814 139.391 194.732 140.107 207.657C140.2 209.358 140.231 211.067 140.439 212.753C141.255 219.42 139.391 225.57 136.926 231.621C135.871 234.208 134.869 236.817 133.845 239.412C131.41 245.17 128.984 250.928 126.55 256.686C123.969 262.537 121.489 268.433 118.777 274.222C116.705 278.657 114.348 282.952 111.89 287.74C109.895 285.246 108.208 282.983 106.344 280.881C104.803 279.149 104.526 277.425 105.019 275.146C106.198 269.704 107.053 264.184 108.031 258.703C108.185 257.725 108.339 256.755 108.493 255.778C108.909 253.591 109.325 251.413 109.741 249.227C110.011 247.725 110.288 246.232 110.558 244.731C110.82 243.492 111.089 242.252 111.351 241.013C111.628 239.381 111.906 237.749 112.183 236.117C112.322 235.432 112.46 234.754 112.591 234.069C112.861 232.968 113.123 231.867 113.392 230.767C113.539 229.812 113.685 228.857 113.832 227.903C114.648 223.677 115.465 219.443 116.273 215.209Z" fill="#E19B78"/>
<path d="M124.847 420.979C125.225 412.812 125.587 404.652 125.98 396.484C126.118 393.559 126.326 390.633 126.465 387.708C126.919 378.455 127.335 369.202 127.805 359.949C128.329 349.541 128.899 339.141 129.446 328.733C129.993 318.394 130.532 308.056 131.095 297.717C131.48 290.712 131.903 283.707 132.312 276.701C132.427 277.279 132.651 277.864 132.651 278.441C132.658 328.286 132.658 378.132 132.651 427.977C130.047 425.652 127.443 423.32 124.847 420.979Z" fill="#FEFEFE"/>
<path d="M124.847 420.979C127.451 423.312 130.047 425.652 132.651 427.985C133.074 428.485 133.498 428.978 133.922 429.478C134.815 432.596 135.308 435.829 134.245 438.908C132.62 443.581 129.577 446.922 125.086 445.113C124.531 444.89 124.123 444.312 123.646 443.897C123.784 441.302 123.915 438.701 124.054 436.106C124.054 436.584 124.1 437.061 124.054 437.53C123.915 438.955 124.169 439.932 125.849 440.371C127.459 440.787 128.722 440.571 129.608 439.255C131.349 436.676 131.303 433.843 130.294 431.041C129.392 428.531 127.397 427.692 124.847 427.962C124.716 427.977 124.578 427.931 124.447 427.915C124.578 425.606 124.709 423.297 124.847 420.979Z" fill="#002249"/>
<path d="M147.818 443.527C148.188 443.774 148.558 444.02 148.928 444.258C148.319 444.628 147.541 444.874 147.148 445.398C144.868 448.416 142.68 451.502 140.462 454.566C138.559 453.335 136.656 452.103 134.754 450.863C137.018 446.483 139.291 442.095 141.556 437.715C143.643 439.655 145.731 441.587 147.818 443.527Z" fill="#DF9A7B"/>
<path d="M126.542 256.678C128.976 250.92 131.403 245.162 133.837 239.404C133.698 244.3 133.56 249.196 133.421 254.092C131.696 256.463 129.03 256.324 126.542 256.678Z" fill="#E7EFFF"/>
<path d="M358.881 223.392C298.595 223.392 238.317 223.392 178.031 223.392C175.281 223.392 175.281 223.392 175.281 220.628C175.281 216.017 175.281 216.017 179.872 216.017C239.541 216.017 299.211 216.017 358.881 216.017C363.148 216.017 367.416 215.994 371.684 216.04C372.469 216.048 373.255 216.294 374.049 216.433C384.209 216.433 394.378 216.471 404.538 216.394C406.264 216.379 406.934 216.725 406.888 218.627C406.765 222.991 406.865 222.991 402.42 222.991C397.236 222.991 392.051 222.945 386.867 222.999C377.538 223.092 368.21 223.253 358.881 223.392Z" fill="#F1F1F1"/>
<path d="M90.8525 110.26C90.868 111.353 90.8911 112.446 90.9065 113.54C91.0297 113.809 91.1453 114.071 91.2685 114.34C90.1361 116.603 88.7187 118.774 87.9407 121.153C85.9687 127.15 83.8348 133.147 82.6177 139.313C81.3082 145.926 80.507 152.715 80.3067 159.459C80.0217 169.259 80.4146 179.074 80.6457 188.881C80.7304 192.399 81.2003 195.909 81.4622 199.42C81.8705 204.893 82.3019 210.367 82.6408 215.848C82.9567 220.99 83.0953 226.148 83.4574 231.29C83.6808 234.431 84.3972 237.549 84.5281 240.689C84.7515 246.055 85.5373 251.282 86.9624 256.478C87.6095 258.842 88.5184 259.904 90.9296 259.511C88.3028 259.511 85.6836 259.511 83.0568 259.511C82.61 256.571 82.1324 253.63 81.7164 250.682C81.4391 248.742 81.1464 246.794 81.0386 244.839C80.8306 241.174 80.8537 237.495 80.5764 233.838C80.1527 228.165 79.5518 222.514 79.0357 216.848C78.5889 211.922 78.0728 207.002 77.757 202.068C77.4565 197.388 77.3333 192.699 77.2254 188.011C77.0791 181.499 76.717 174.971 77.002 168.481C77.3564 160.437 77.9726 152.377 79.0357 144.394C80.5918 132.677 83.6808 121.376 90.0899 111.23C90.321 110.876 90.606 110.584 90.8525 110.26Z" fill="#E7EFFF"/>
<path d="M102.739 259.034C100.967 259.157 99.1876 259.28 97.4158 259.404C97.0692 258.449 96.684 257.502 96.3682 256.54C94.9276 252.167 93.0634 247.872 92.1776 243.384C91.0991 237.918 90.7525 232.291 90.2749 226.725C89.6817 219.766 89.389 212.791 88.7727 205.832C88.3259 200.852 87.7636 195.856 86.8854 190.937C85.4834 183.115 84.4589 175.263 84.3356 167.326C84.2663 163.116 84.4512 158.897 84.7439 154.694C85.0212 150.645 85.2908 146.557 86.0843 142.592C87.9485 133.324 90.7679 124.34 95.3667 116.003C96.1833 116.142 97.0075 116.28 97.8241 116.411C94.3422 123.339 90.9065 130.275 89.3196 137.958C87.6557 146.01 86.5234 154.109 86.3231 162.346C86.0766 172.407 87.494 182.261 89.7972 191.983C91.9388 201.006 92.4549 210.205 93.3099 219.366C93.8877 225.501 94.2575 231.667 94.9816 237.787C95.8828 245.447 98.448 252.575 102.739 259.034Z" fill="#E7EFFF"/>
<path d="M95.3668 259.434C94.0034 259.457 92.6399 259.481 91.2764 259.496C90.7217 257.841 89.9899 256.232 89.651 254.538C88.7112 249.896 87.7021 245.254 87.1474 240.559C86.1691 232.352 85.4142 224.123 84.7517 215.886C84.405 211.552 84.4667 207.18 84.2895 202.83C84.1817 200.082 84.0507 197.334 83.7888 194.601C83.1879 188.427 82.0864 182.268 81.94 176.079C81.6858 165.548 81.4393 154.986 83.0647 144.501C84.3126 136.48 86.2307 128.666 89.651 121.269C90.6447 119.128 91.5537 116.95 92.5012 114.787C93.1945 115.187 93.8801 115.595 94.5734 115.995C94.142 116.58 93.6028 117.119 93.2869 117.766C89.9899 124.502 87.132 131.422 86.0073 138.874C84.952 145.879 84.043 152.931 83.5808 159.998C83.2496 165.071 83.6424 170.205 83.9352 175.294C84.2048 179.89 84.6978 184.478 85.237 189.05C85.9457 195.032 87.0165 200.975 87.5326 206.972C88.2798 215.663 88.5263 224.4 89.2504 233.091C89.6664 238.126 90.2904 243.191 91.3919 248.118C92.2547 251.99 94.0111 255.67 95.3668 259.434Z" fill="#E7EFFF"/>
<path d="M108.485 255.77C108.331 256.748 108.177 257.718 108.023 258.695C107.253 258.688 106.483 258.68 105.712 258.68C104.487 257.387 102.985 256.255 102.092 254.762C97.3079 246.74 95.9444 237.726 95.0046 228.657C94.3653 222.545 94.4038 216.363 93.6643 210.266C92.84 203.492 91.7076 196.741 90.2979 190.067C88.8112 183.031 87.44 176.002 87.1781 168.797C86.8699 160.421 87.232 152.053 88.9113 143.855C90.0591 138.243 91.7847 132.723 93.6566 127.304C94.9584 123.547 96.9536 120.037 98.6406 116.419C98.9179 116.419 99.1952 116.426 99.4725 116.426C99.85 116.68 100.22 116.927 100.52 117.127C99.0026 120.168 97.3618 123.07 96.06 126.111C89.8973 140.529 88.0794 155.594 89.1424 171.168C89.6354 178.412 91.1915 185.363 93.1173 192.299C94.0956 195.825 95.2126 199.366 95.6979 202.976C96.5068 208.996 97.0229 215.078 97.3772 221.144C97.824 228.834 98.9256 236.394 101.183 243.753C102.585 248.349 104.626 252.637 108.485 255.77Z" fill="#E7EFFF"/>
<path d="M92.501 114.779C91.5535 116.942 90.6445 119.121 89.6508 121.261C86.2305 128.659 84.3047 136.472 83.0645 144.494C81.4391 154.979 81.6856 165.54 81.9398 176.071C82.0938 182.253 83.1877 188.412 83.7886 194.593C84.0505 197.326 84.1814 200.074 84.2893 202.822C84.4665 207.172 84.3971 211.544 84.7515 215.878C85.414 224.115 86.1689 232.352 87.1472 240.551C87.7095 245.247 88.711 249.889 89.6508 254.531C89.9974 256.224 90.7215 257.841 91.2762 259.488L91.1067 259.519L90.9372 259.488C88.5338 259.881 87.6171 258.819 86.97 256.455C85.5449 251.259 84.7592 246.032 84.5358 240.666C84.4048 237.526 83.6884 234.408 83.465 231.267C83.0953 226.125 82.9643 220.967 82.6485 215.825C82.3095 210.343 81.8782 204.87 81.4699 199.397C81.208 195.886 80.7304 192.376 80.6533 188.858C80.4222 179.051 80.0294 169.235 80.3144 159.436C80.5147 152.7 81.3158 145.902 82.6254 139.29C83.8502 133.124 85.984 127.127 87.9483 121.13C88.7264 118.751 90.1515 116.58 91.2762 114.317C91.6844 114.486 92.0927 114.633 92.501 114.779Z" fill="#E7EFFF"/>
<path d="M82.6563 330.788C84.4127 341.342 86.1921 351.896 87.9331 362.458C89.7356 373.42 91.5228 384.383 93.2715 395.36C93.9108 399.371 94.4038 403.405 94.9585 407.431C94.92 407.854 94.8814 408.277 94.8429 408.701C94.6735 408.747 94.504 408.786 94.3345 408.832C93.0018 405.306 91.6229 401.796 90.3442 398.239C89.4737 395.822 88.5879 393.397 88.0024 390.903C86.8546 386.03 85.8455 381.111 84.9057 376.192C84.3125 373.066 83.8195 369.918 83.5037 366.754C83.003 361.735 82.6563 356.7 82.3251 351.673C82.1479 349.048 82.094 346.415 82.0555 343.79C82.0169 340.957 82.0092 338.125 82.1094 335.299C82.171 333.79 82.4714 332.289 82.6563 330.788Z" fill="#002249"/>
<path d="M96.191 415.213C96.4606 417.261 96.7302 419.317 96.9998 421.364C96.8072 421.303 96.5453 421.295 96.4375 421.164C92.971 416.845 90.4751 411.965 88.5416 406.815C85.2754 398.108 83.0569 389.132 81.2928 379.987C78.8586 367.393 77.4258 354.714 76.9096 341.92C76.8942 341.481 76.6554 341.05 76.5168 340.619C76.6554 331.566 76.7556 322.505 76.9482 313.452C77.0098 310.542 77.2794 307.632 77.4643 304.453C78.0497 304.938 78.3039 305.153 78.5659 305.361C79.0512 308.248 79.5442 311.135 80.0218 314.022C80.1065 314.545 80.145 315.084 80.2067 315.608C79.937 316.208 79.4363 316.808 79.4286 317.409C79.3747 325.484 79.1436 333.567 79.4517 341.627C79.783 350.218 80.3222 358.825 81.3544 367.347C82.2865 375.06 83.704 382.743 85.4911 390.302C86.8315 396.007 88.9422 401.542 90.999 407.053C92.0312 409.832 93.6874 412.381 95.1202 414.998C95.2204 415.213 95.8212 415.152 96.191 415.213Z" fill="#002249"/>
<path d="M96.191 415.213C95.8213 415.152 95.2204 415.206 95.1049 415.006C93.672 412.388 92.0235 409.84 90.9836 407.061C88.9268 401.557 86.8238 396.014 85.4757 390.31C83.6963 382.75 82.2789 375.06 81.3391 367.354C80.3068 358.825 79.7676 350.218 79.4364 341.635C79.1282 333.575 79.3593 325.492 79.4132 317.417C79.4209 316.816 79.9217 316.216 80.1913 315.615C81.0078 320.673 81.8321 325.723 82.6486 330.78C82.456 332.282 82.1556 333.783 82.1094 335.299C82.0092 338.124 82.017 340.957 82.0555 343.79C82.0863 346.415 82.1479 349.048 82.3251 351.673C82.664 356.708 83.0107 361.742 83.5037 366.754C83.8195 369.918 84.3048 373.074 84.9057 376.192C85.8455 381.111 86.8546 386.022 88.0024 390.903C88.5879 393.397 89.4814 395.822 90.3442 398.239C91.623 401.788 92.9941 405.298 94.3345 408.832C94.504 408.786 94.6735 408.747 94.8429 408.701C94.8815 408.277 94.92 407.854 94.9585 407.431C95.3668 410.025 95.7827 412.619 96.191 415.213Z" fill="#002249"/>
<path d="M95.3668 259.434C94.0033 255.67 92.2546 251.99 91.3841 248.118C90.2826 243.191 89.6586 238.126 89.2426 233.091C88.5185 224.4 88.272 215.663 87.5248 206.972C87.0087 200.975 85.9379 195.032 85.2292 189.05C84.69 184.478 84.1893 179.89 83.9274 175.294C83.6346 170.198 83.2418 165.063 83.573 159.998C84.0352 152.931 84.9442 145.879 85.9995 138.874C87.1242 131.43 89.9821 124.502 93.2792 117.766C93.595 117.119 94.1342 116.588 94.5656 115.995C94.8275 115.995 95.0971 115.995 95.3668 115.995C90.7679 124.332 87.9485 133.316 86.0843 142.585C85.2831 146.549 85.0212 150.637 84.7439 154.686C84.4512 158.889 84.2663 163.108 84.3356 167.319C84.4589 175.255 85.4757 183.107 86.8854 190.929C87.7713 195.848 88.3336 200.836 88.7727 205.825C89.3967 212.776 89.6894 219.758 90.2749 226.717C90.7525 232.291 91.0991 237.91 92.1776 243.376C93.0635 247.864 94.92 252.16 96.3682 256.532C96.684 257.494 97.0615 258.441 97.4158 259.396C96.7302 259.411 96.0523 259.427 95.3668 259.434Z" fill="#E7EFFF"/>
<path d="M76.5168 340.619C76.6555 341.05 76.8943 341.481 76.9097 341.92C77.4335 354.722 78.8663 367.393 81.2928 379.987C83.0569 389.125 85.2754 398.101 88.5416 406.815C90.4752 411.973 92.9633 416.845 96.4375 421.164C96.5454 421.295 96.8073 421.303 96.9998 421.364C97.1385 421.772 97.2772 422.18 97.4158 422.588C97.2772 423.728 96.7225 423.974 96.0446 423.035C94.2267 420.51 92.1237 418.093 90.8064 415.321C87.6558 408.709 84.8826 401.919 83.4035 394.683C81.4007 384.868 78.8586 375.122 77.4951 365.214C76.147 355.438 75.8774 345.507 75.3228 335.638C74.9915 329.795 74.7373 323.921 74.953 318.079C75.2149 310.989 76.0084 303.922 76.5938 296.847C76.6092 296.678 76.8172 296.524 76.9328 296.355C77.0714 297.717 77.2101 299.087 77.341 300.45C76.9328 305.292 76.2857 310.126 76.1624 314.976C75.9622 323.021 76.1008 331.073 76.1239 339.118C76.1239 339.618 76.3781 340.118 76.5168 340.619Z" fill="#002249"/>
<path d="M98.6483 116.419C96.9613 120.037 94.9584 123.547 93.6643 127.304C91.7847 132.723 90.0669 138.251 88.9191 143.855C87.2397 152.053 86.8777 160.421 87.1858 168.797C87.4554 176.002 88.8266 183.031 90.3057 190.067C91.7154 196.741 92.8477 203.492 93.672 210.267C94.4115 216.363 94.3807 222.545 95.0124 228.657C95.9599 237.726 97.3156 246.74 102.099 254.762C102.993 256.255 104.495 257.379 105.72 258.68C104.726 258.795 103.74 258.919 102.746 259.034C98.4557 252.575 95.8905 245.447 94.9893 237.78C94.2728 231.66 93.8954 225.501 93.3176 219.358C92.4549 210.19 91.9465 200.998 89.8049 191.976C87.5017 182.253 86.0842 172.399 86.3308 162.338C86.531 154.101 87.6711 146.003 89.3273 137.95C90.9142 130.26 94.3499 123.324 97.8318 116.403C98.1014 116.411 98.371 116.411 98.6483 116.419Z" fill="#E7EFFF"/>
<path d="M124.447 427.923C124.578 427.938 124.716 427.985 124.847 427.969C127.397 427.7 129.392 428.547 130.293 431.049C131.303 433.851 131.349 436.684 129.608 439.262C128.714 440.579 127.451 440.794 125.849 440.379C124.169 439.94 123.915 438.955 124.054 437.538C124.1 437.068 124.061 436.591 124.054 436.114C124.185 433.381 124.316 430.656 124.447 427.923Z" fill="#002249"/>
<path d="M76.5168 340.619C76.3781 340.118 76.1239 339.618 76.1239 339.118C76.1008 331.065 75.9621 323.013 76.1624 314.976C76.278 310.126 76.925 305.292 77.341 300.45C77.7493 302.09 78.1576 303.729 78.5658 305.369C78.3116 305.153 78.0574 304.946 77.4643 304.461C77.2717 307.64 77.0021 310.55 76.9481 313.46C76.7556 322.513 76.6554 331.566 76.5168 340.619Z" fill="#002249"/>
<path d="M358.881 323.814C348.397 323.814 337.92 323.806 327.436 323.806C327.143 323.49 326.858 323.175 326.566 322.852C326.257 322.359 325.949 321.858 325.641 321.366C325.133 320.627 324.624 319.888 324.108 319.156C323.685 318.525 323.253 317.886 322.829 317.255C322.521 316.847 322.221 316.447 321.913 316.039C321.281 315.169 320.657 314.307 320.025 313.437C319.609 312.898 319.201 312.351 318.785 311.812C318.207 310.896 317.63 309.988 317.052 309.072C330.856 309.072 344.668 309.064 358.473 309.064C358.611 309.849 358.858 310.635 358.865 311.427C358.904 315.554 358.881 319.68 358.881 323.814Z" fill="#FEFEFE"/>
<path d="M317.052 309.064C317.63 309.98 318.208 310.889 318.785 311.805C316.42 314.314 314.063 316.832 311.683 319.333C310.327 320.758 308.756 322.02 307.6 323.591C303.448 329.249 302.331 335.8 302.331 342.636C301.037 342.643 299.735 342.582 298.441 342.682C297.031 342.79 296.554 342.297 296.554 340.842C296.577 333.991 297.617 327.347 299.905 320.865C302.601 313.221 307.985 309.033 315.858 307.817C316.266 308.24 316.659 308.656 317.052 309.064Z" fill="#E7EFFF"/>
<path d="M315.866 307.825C307.985 309.041 302.601 313.229 299.912 320.873C297.624 327.355 296.584 333.998 296.561 340.85C296.553 342.305 297.031 342.797 298.448 342.69C299.735 342.589 301.037 342.651 302.339 342.643C303.433 342.643 304.526 342.651 305.613 342.651C306.152 342.774 306.691 342.905 307.23 343.028C303.371 343.028 299.519 343.028 295.352 343.028C294.928 338.925 294.512 334.907 294.096 330.888C294.597 327.824 294.743 324.653 295.675 321.735C297.231 316.855 299.357 312.166 301.114 307.34C302.57 303.321 305.328 300.819 309.364 299.611C310.157 300.442 310.951 301.274 311.752 302.105C313.116 304.006 314.494 305.916 315.866 307.825Z" fill="#E7EFFF"/>
<path d="M358.881 323.814C358.881 319.68 358.904 315.554 358.866 311.42C358.858 310.635 358.611 309.849 358.473 309.056C363.665 309.056 368.857 309.056 374.056 309.056C374.056 313.976 374.056 318.895 374.056 323.806C368.995 323.814 363.942 323.814 358.881 323.814Z" fill="#F2F2F2"/>
<path d="M341.21 465.39C340.539 464.389 339.877 463.381 339.207 462.38C339.06 455.883 338.829 449.393 338.806 442.896C338.791 438.454 338.752 433.966 339.299 429.578C340.254 421.949 341.495 414.351 342.912 406.792C344.799 396.746 347.727 386.969 351.232 377.37C351.601 376.369 352.472 375.545 353.111 374.644C353.65 375.868 354.19 377.1 354.729 378.324C354.475 378.409 354.028 378.432 353.989 378.578C352.225 384.398 350.415 390.202 348.79 396.061C347.241 401.649 345.693 407.254 344.491 412.92C343.212 418.924 341.895 424.975 341.394 431.079C340.778 438.593 340.917 446.168 340.863 453.72C340.84 457.607 341.086 461.495 341.21 465.39Z" fill="#E7EFFF"/>
<path d="M358.881 330.781C358.881 335.561 358.881 340.342 358.881 345.122C352.495 345.114 346.101 345.107 339.715 345.099C339.538 344.837 339.353 344.576 339.176 344.306C338.614 343.221 338.059 342.128 337.497 341.042C336.826 339.81 336.156 338.571 335.486 337.339C335.047 336.531 334.616 335.715 334.177 334.907C333.522 333.806 332.875 332.697 332.22 331.597C332.228 331.466 332.235 331.327 332.228 331.196C332.929 331.058 333.637 330.788 334.338 330.788C342.527 330.773 350.708 330.781 358.881 330.781Z" fill="#FEFEFE"/>
<path d="M321.181 428.755C320.626 427.538 320.072 426.33 319.525 425.113C319.255 415.737 318.932 406.368 318.755 396.992C318.693 393.605 319.009 390.21 319.124 386.815C319.201 384.59 319.186 382.366 319.286 380.149C319.625 372.697 320.049 365.245 320.341 357.786C320.603 351.273 320.904 344.745 322.883 338.509C324.332 333.945 326.327 329.549 328.083 325.076C328.491 325.761 328.9 326.439 329.308 327.124C329 327.647 328.63 328.148 328.391 328.702C324.347 338.332 322.591 348.455 321.998 358.817C321.705 363.898 321.404 368.986 321.189 374.075C320.873 381.819 320.511 389.571 320.395 397.323C320.318 402.358 320.634 407.392 320.765 412.427C320.911 417.862 321.042 423.304 321.181 428.755Z" fill="#E7EFFF"/>
<path d="M328.083 325.069C326.334 329.541 324.339 333.937 322.883 338.502C320.904 344.745 320.596 351.273 320.341 357.778C320.049 365.237 319.625 372.681 319.286 380.141C319.186 382.358 319.201 384.583 319.124 386.807C319.009 390.202 318.685 393.597 318.754 396.984C318.932 406.361 319.255 415.737 319.525 425.106C319.247 424.682 318.97 424.251 318.693 423.828C318.292 422.735 317.899 421.634 317.499 420.541C317.36 417.207 317.091 413.882 317.114 410.548C317.152 404.213 317.352 397.877 317.499 391.542C317.622 386.23 317.745 380.918 317.915 375.607C318.161 367.855 318.454 360.103 318.724 352.351C318.955 345.723 320.233 339.272 322.352 333.021C323.53 329.549 325.156 326.231 326.573 322.851C326.866 323.167 327.151 323.483 327.444 323.806C327.659 324.222 327.875 324.645 328.083 325.069Z" fill="#E7EFFF"/>
<path d="M332.235 331.212C332.243 331.343 332.243 331.481 332.227 331.612C331.989 331.843 331.619 332.043 331.542 332.32C330.117 337.47 328.191 342.559 327.451 347.809C326.196 356.716 325.61 365.722 324.902 374.698C324.47 380.179 324.239 385.676 324.07 391.172C323.846 398.632 323.677 406.091 323.669 413.558C323.661 420.564 323.892 427.577 324.016 434.582C323.607 433.758 323.199 432.927 322.799 432.103C322.668 424.344 322.321 416.576 322.467 408.816C322.668 398.031 323.207 387.254 323.646 376.469C323.854 371.38 324 366.284 324.501 361.227C325.148 354.699 325.826 348.148 327.051 341.712C327.837 337.57 329.639 333.613 330.979 329.58C331.403 330.119 331.819 330.665 332.235 331.212Z" fill="#E7EFFF"/>
<path d="M321.181 428.755C321.042 423.312 320.911 417.869 320.773 412.419C320.642 407.385 320.326 402.35 320.403 397.315C320.526 389.563 320.881 381.819 321.196 374.067C321.404 368.979 321.713 363.898 322.005 358.809C322.598 348.448 324.355 338.325 328.399 328.694C328.63 328.14 329.008 327.64 329.316 327.116C329.485 327.486 329.662 327.855 329.832 328.225C329.054 330.757 328.16 333.252 327.521 335.815C326.296 340.75 324.779 345.661 324.17 350.68C323.238 358.347 322.853 366.092 322.46 373.821C322.036 382.181 321.767 390.549 321.643 398.917C321.566 404.159 321.928 409.401 321.998 414.644C322.067 419.902 322.005 425.159 321.998 430.425C321.72 429.871 321.451 429.309 321.181 428.755Z" fill="#E7EFFF"/>
<path d="M321.99 430.433C321.998 425.175 322.052 419.909 321.99 414.652C321.921 409.409 321.559 404.167 321.636 398.924C321.759 390.556 322.028 382.181 322.452 373.828C322.845 366.107 323.23 358.355 324.162 350.688C324.771 345.669 326.288 340.757 327.513 335.823C328.153 333.259 329.046 330.757 329.824 328.233C330.209 328.679 330.594 329.125 330.98 329.572C329.632 333.613 327.837 337.563 327.051 341.704C325.826 348.14 325.148 354.691 324.501 361.219C324 366.277 323.854 371.38 323.646 376.461C323.199 387.239 322.66 398.024 322.468 408.809C322.329 416.568 322.676 424.328 322.799 432.096C322.529 431.534 322.26 430.979 321.99 430.433Z" fill="#E7EFFF"/>
<path d="M331.804 449.747C331.411 449.024 331.01 448.308 330.617 447.584C330.479 440.163 330.271 432.742 330.232 425.313C330.209 421.641 330.325 417.954 330.671 414.305C331.365 407.023 332.104 399.74 333.106 392.489C334.153 384.914 335.301 377.339 336.811 369.849C338.159 363.159 340.069 356.577 341.733 349.949C342.219 350.68 342.704 351.404 343.189 352.135C343.821 353.744 344.445 355.353 345.069 356.962C343.813 359.056 342.103 361.003 341.402 363.259C339.561 369.133 338.097 375.129 336.618 381.111C335.956 383.782 335.486 386.523 335.139 389.256C334.369 395.368 333.622 401.488 333.052 407.616C332.405 414.567 331.696 421.526 331.496 428.493C331.295 435.575 331.673 442.665 331.804 449.747Z" fill="#E7EFFF"/>
<path d="M341.733 349.941C340.07 356.569 338.159 363.151 336.811 369.841C335.301 377.331 334.146 384.906 333.106 392.481C332.104 399.725 331.365 407.007 330.672 414.297C330.325 417.946 330.209 421.634 330.232 425.306C330.279 432.727 330.479 440.148 330.618 447.576C330.202 446.776 329.786 445.968 329.37 445.167C329.239 442.804 328.946 440.433 329 438.077C329.208 428.901 329.431 419.725 329.824 410.564C330.063 404.952 330.487 399.332 331.095 393.743C331.704 388.17 332.651 382.627 333.468 377.077C334.7 368.717 335.879 360.341 337.227 351.997C337.643 349.395 338.521 346.87 339.184 344.314C339.361 344.576 339.546 344.837 339.723 345.107C340.393 346.723 341.063 348.332 341.733 349.941Z" fill="#E7EFFF"/>
<path d="M345.077 356.962C344.453 355.353 343.821 353.744 343.197 352.135C348.428 352.127 353.658 352.112 358.889 352.104C358.889 356.238 358.912 360.364 358.873 364.498C358.866 365.284 358.619 366.069 358.48 366.862C355.615 366.862 352.749 366.862 349.884 366.862C349.183 365.499 348.474 364.144 347.773 362.782C346.872 360.834 345.97 358.902 345.077 356.962Z" fill="#FEFEFE"/>
<path d="M347.773 362.774C348.474 364.136 349.182 365.491 349.883 366.854C349.991 367.27 350.099 367.678 350.207 368.093C349.845 368.455 349.36 368.755 349.136 369.186C344.761 377.554 342.334 386.615 340.116 395.699C338.852 400.872 338.113 406.199 337.566 411.511C336.58 421.133 335.671 430.787 335.216 440.448C334.954 445.968 335.655 451.533 335.925 457.084C335.232 455.883 334.538 454.674 333.845 453.473C333.722 452.126 333.506 450.779 333.498 449.432C333.46 444.081 333.29 438.716 333.522 433.373C333.899 424.959 334.223 416.515 335.201 408.162C336.156 400.048 337.735 391.996 339.353 383.975C340.87 376.423 343.143 369.109 347.773 362.774Z" fill="#E7EFFF"/>
<path d="M353.119 374.644C352.48 375.545 351.609 376.369 351.239 377.37C347.727 386.961 344.807 396.746 342.92 406.792C341.502 414.351 340.262 421.949 339.307 429.578C338.76 433.974 338.798 438.454 338.814 442.896C338.837 449.393 339.068 455.883 339.214 462.38C338.652 461.479 338.09 460.571 337.527 459.663C337.273 455.059 336.719 450.456 336.834 445.867C337.034 437.661 337.551 429.455 338.128 421.264C338.398 417.431 339.045 413.62 339.677 409.825C340.355 405.783 341.056 401.742 342.034 397.77C343.128 393.328 344.376 388.909 345.87 384.59C347.472 379.956 348.582 375.083 351.478 370.972C351.987 371.935 352.495 372.897 353.011 373.859C353.042 374.113 353.08 374.375 353.119 374.644Z" fill="#E7EFFF"/>
<path d="M335.925 457.068C335.656 451.518 334.955 445.952 335.216 440.433C335.671 430.771 336.58 421.126 337.566 411.495C338.113 406.191 338.852 400.857 340.116 395.683C342.327 386.6 344.761 377.539 349.136 369.171C349.36 368.74 349.845 368.44 350.207 368.078C350.5 368.763 350.793 369.448 351.085 370.126C349.868 372.566 348.366 374.906 347.488 377.462C345.262 383.975 343.051 390.518 341.356 397.185C340.062 402.273 339.384 407.538 338.775 412.766C337.812 421.072 336.773 429.393 336.449 437.731C336.179 444.836 336.88 451.972 337.15 459.093C336.742 458.431 336.333 457.753 335.925 457.068Z" fill="#E7EFFF"/>
<path d="M337.158 459.108C336.888 451.988 336.187 444.844 336.457 437.746C336.772 429.409 337.82 421.08 338.783 412.781C339.392 407.554 340.069 402.281 341.364 397.2C343.058 390.533 345.269 383.99 347.495 377.477C348.366 374.922 349.876 372.581 351.093 370.141C351.224 370.418 351.347 370.695 351.478 370.965C348.574 375.076 347.472 379.948 345.87 384.583C344.376 388.901 343.128 393.32 342.034 397.762C341.055 401.734 340.347 405.783 339.677 409.817C339.045 413.612 338.398 417.431 338.128 421.257C337.55 429.447 337.034 437.654 336.834 445.86C336.718 450.448 337.273 455.059 337.527 459.655C337.396 459.478 337.281 459.293 337.158 459.108Z" fill="#E7EFFF"/>
<path d="M111.328 189.366C111.613 191.144 111.906 192.923 112.191 194.693C108.824 191.737 107.006 187.734 105.366 183.77C101.468 174.324 101.167 164.44 102.562 154.44C102.654 153.801 102.685 153.146 103.147 152.492C103.147 153.177 103.147 153.855 103.147 154.54C103.147 157.396 103.039 160.26 103.178 163.108C103.294 165.448 103.694 167.765 103.964 170.098C104.711 173.508 105.165 177.018 106.29 180.298C107.415 183.562 108.578 186.941 111.328 189.366Z" fill="#E7EFFF"/>
<path d="M111.328 189.366C108.578 186.949 107.407 183.562 106.298 180.298C105.181 177.011 104.719 173.508 103.971 170.098C105.481 170.791 106.983 171.483 108.493 172.176C109.032 175.509 109.564 178.843 110.111 182.168C110.511 184.57 110.927 186.964 111.328 189.366Z" fill="#E7EFFF"/>
<path d="M103.155 97.5506C104.734 96.9964 106.313 96.4729 107.877 95.8878C108.378 95.7031 108.832 95.3644 109.302 95.0949C109.61 96.5499 108.855 97.3967 107.646 97.9663C103.894 99.7138 100.043 101.138 95.8366 101.238C94.4577 101.269 93.0788 101.246 91.7 101.246C91.8925 101.022 92.1082 100.584 92.2623 100.607C96.3527 101.192 99.8346 99.6599 103.155 97.5506Z" fill="#DD8E66"/>
<path d="M113.392 230.767C113.123 231.867 112.861 232.968 112.591 234.069C112.029 232.499 111.382 230.951 110.927 229.35C109.934 225.863 108.632 222.399 108.185 218.834C107.515 213.507 107.091 208.18 104.865 203.2C104.826 203.115 104.942 202.961 105.088 202.576C106.929 206.756 108 210.898 108.532 215.232C109.125 220.112 109.572 225.062 111.998 229.504C112.268 230.028 112.915 230.351 113.392 230.767Z" fill="#E7EFFF"/>
<path d="M111.343 241.013C111.081 242.252 110.812 243.492 110.55 244.731C108.809 241.228 106.56 237.872 105.419 234.185C102.947 226.178 102.384 217.818 101.899 209.481C101.799 207.803 101.599 206.079 101.106 204.485C99.5341 199.428 97.7085 194.455 96.1601 189.389C93.9955 182.307 92.3855 175.094 92.1005 167.65C91.7769 159.266 92.4317 150.922 94.242 142.739C96.4836 132.562 100.212 122.97 106.837 114.733C107.376 114.332 107.915 113.932 108.455 113.532C108.324 114.017 108.339 114.625 108.046 114.964C101.891 122 98.4634 130.36 96.1986 139.282C95.4129 142.369 94.5886 145.471 94.1495 148.612C93.202 155.464 92.7167 162.315 93.1866 169.297C93.7259 177.272 95.7441 184.816 98.2246 192.299C99.6343 196.556 101.514 200.675 102.669 204.993C103.532 208.219 103.686 211.652 103.956 215.008C104.603 223.038 105.728 230.936 109.41 238.234C109.91 239.234 110.689 240.089 111.343 241.013Z" fill="#E7EFFF"/>
<path d="M108.455 113.532C107.915 113.932 107.376 114.332 106.837 114.733C105.882 115.148 104.927 115.572 103.979 115.988C102.477 116.134 100.983 116.28 99.4804 116.434C99.203 116.434 98.9257 116.426 98.6484 116.426C98.3788 116.419 98.1015 116.419 97.8319 116.411C97.0153 116.272 96.1911 116.134 95.3745 116.003C95.1049 116.003 94.843 116.003 94.5734 116.003C93.8801 115.603 93.1945 115.195 92.5012 114.794C92.0929 114.648 91.6846 114.502 91.2764 114.356C91.1531 114.086 91.0299 113.824 90.9143 113.555C97.2079 112.955 103.525 112.416 109.294 109.46C109.009 110.807 108.732 112.169 108.455 113.532Z" fill="#E09A75"/>
<path d="M252.83 147.558C224.289 147.558 195.748 147.535 167.2 147.604C165.159 147.611 164.565 147.142 164.573 145.025C164.65 118.051 164.642 91.0688 164.581 64.0946C164.573 62.1239 164.92 61.4233 167.115 61.431C224.335 61.5003 281.555 61.4926 338.783 61.4464C340.724 61.4464 341.302 61.9237 341.302 63.9175C341.233 90.961 341.225 118.005 341.31 145.048C341.317 147.219 340.647 147.604 338.66 147.596C310.05 147.542 281.44 147.558 252.83 147.558Z" fill="#F1F1F1"/>
<path d="M296.661 352.074C256.858 352.081 217.056 352.081 177.253 352.127C175.758 352.127 175.25 351.75 175.25 350.188C175.265 345.138 175.196 345.138 180.257 345.138C224.227 345.138 268.19 345.138 312.16 345.138C312.284 345.168 312.415 345.207 312.538 345.245C312.276 345.884 312.014 346.523 311.752 347.162C309.973 347.863 308.201 348.571 306.421 349.271C303.587 349.795 300.736 350.272 297.917 350.888C297.432 350.988 297.077 351.666 296.661 352.074Z" fill="#F1F1F1"/>
<path d="M210.939 409.994C210.523 419.856 203.275 426.53 193.946 427.022C185.603 427.461 176.575 418.416 177.014 410.071C177.499 400.718 184.348 393.135 194.431 393.112C203.267 393.074 210.978 401.011 210.939 409.994Z" fill="#F1F1F1"/>
<path d="M301.484 373.828C260.387 373.828 219.297 373.829 178.2 373.821C175.288 373.821 175.288 373.821 175.288 371.019C175.288 366.854 175.288 366.854 179.51 366.854C219.513 366.854 259.516 366.854 299.519 366.854C300.336 366.854 301.16 366.869 301.977 366.877C301.376 367.139 300.775 367.401 300.089 367.693C300.552 369.772 301.021 371.796 301.484 373.828Z" fill="#F1F1F1"/>
<path d="M293.773 330.765C254.933 330.773 216.093 330.773 177.253 330.811C175.758 330.811 175.25 330.426 175.25 328.864C175.265 323.814 175.196 323.814 180.257 323.814C216.979 323.814 253.708 323.814 290.429 323.791C291.269 323.791 292.101 323.498 292.941 323.344C293.218 325.823 293.495 328.294 293.773 330.765Z" fill="#F1F1F1"/>
<path d="M292.032 311.936C291.839 311.096 291.647 310.25 291.377 309.064C290.645 309.064 289.79 309.064 288.927 309.064C251.982 309.064 215.037 309.064 178.1 309.064C175.288 309.064 175.288 309.064 175.281 306.362C175.281 302.097 175.281 302.097 179.602 302.097C216.955 302.097 254.309 302.097 291.662 302.097C291.793 305.369 291.908 308.656 292.032 311.936Z" fill="#F1F1F1"/>
<path d="M317.499 420.541C317.899 421.634 318.292 422.735 318.693 423.828C286.686 423.828 254.686 423.828 222.679 423.82C219.96 423.82 219.96 423.82 219.96 421.233C219.952 416.853 219.952 416.853 224.374 416.853C253.924 416.853 283.473 416.861 313.015 416.83C313.847 416.83 314.672 416.515 315.504 416.345C315.619 416.384 315.735 416.422 315.85 416.461C316.397 417.831 316.944 419.186 317.499 420.541Z" fill="#F1F1F1"/>
<path d="M311.806 406.592C281.902 406.599 252.005 406.599 222.101 406.638C220.53 406.638 219.937 406.161 219.929 404.529C219.906 399.648 219.852 399.648 224.697 399.648C252.891 399.648 281.085 399.648 309.287 399.648C310.119 401.965 310.959 404.275 311.806 406.592Z" fill="#F1F1F1"/>
<path d="M292.032 311.936C291.908 308.656 291.793 305.377 291.67 302.097C292.086 299.272 292.217 296.37 292.979 293.645C294.189 289.311 297.439 288.202 300.883 291.081C303.941 293.637 306.552 296.747 309.356 299.611C305.328 300.82 302.57 303.321 301.106 307.34C299.358 312.159 297.224 316.855 295.668 321.735C294.736 324.661 294.589 327.832 294.088 330.888C293.981 330.842 293.873 330.804 293.765 330.765C293.488 328.294 293.21 325.823 292.933 323.352C292.633 319.541 292.332 315.738 292.032 311.936Z" fill="#E7EFFF"/>
<path d="M324.016 434.567C323.892 427.561 323.661 420.548 323.669 413.543C323.677 406.084 323.854 398.616 324.07 391.157C324.231 385.66 324.462 380.164 324.902 374.683C325.61 365.707 326.196 356.7 327.451 347.793C328.191 342.543 330.117 337.455 331.542 332.305C331.619 332.028 331.996 331.835 332.227 331.597C332.882 332.697 333.529 333.806 334.184 334.907C333.961 335.322 333.622 335.707 333.522 336.154C332.127 342.351 330.302 348.502 329.493 354.776C328.368 363.528 327.952 372.374 327.351 381.188C326.851 388.424 326.45 395.668 326.126 402.92C325.88 408.485 325.78 414.066 325.71 419.64C325.633 425.706 325.672 431.78 325.657 437.846C325.11 436.761 324.563 435.66 324.016 434.567Z" fill="#E7EFFF"/>
<path d="M347.773 362.774C343.151 369.109 340.871 376.43 339.361 383.967C337.743 391.988 336.164 400.04 335.209 408.154C334.23 416.507 333.899 424.952 333.529 433.366C333.291 438.708 333.46 444.074 333.506 449.424C333.514 450.771 333.73 452.118 333.853 453.465C333.175 452.226 332.489 450.987 331.812 449.747C331.688 442.665 331.311 435.575 331.511 428.508C331.711 421.541 332.42 414.575 333.067 407.631C333.637 401.495 334.377 395.383 335.155 389.271C335.501 386.538 335.971 383.797 336.634 381.126C338.113 375.145 339.576 369.148 341.417 363.274C342.126 361.011 343.836 359.063 345.084 356.977C345.97 358.902 346.871 360.834 347.773 362.774Z" fill="#E7EFFF"/>
<path d="M228.896 202.076C228.896 199.073 228.896 196.502 228.896 193.685C229.427 193.615 229.997 193.485 230.567 193.477C238.132 193.462 245.696 193.508 253.261 193.438C254.786 193.423 255.349 193.87 255.218 195.409C255.033 197.557 255.757 200.405 254.648 201.652C253.677 202.738 250.688 202.06 248.593 202.068C242.8 202.099 237.007 202.076 231.214 202.076C230.482 202.076 229.758 202.076 228.896 202.076Z" fill="#F1F1F1"/>
<path d="M177.83 193.469C181.513 193.469 185.195 193.531 188.869 193.438C190.333 193.4 191.003 193.754 190.888 195.355C190.757 197.049 190.795 198.766 190.88 200.467C190.941 201.745 190.425 202.099 189.208 202.091C181.574 202.053 173.94 202.045 166.314 202.099C164.912 202.106 164.558 201.568 164.612 200.29C164.696 198.588 164.704 196.879 164.612 195.178C164.535 193.808 165.074 193.423 166.391 193.446C170.196 193.515 174.017 193.469 177.83 193.469Z" fill="#F1F1F1"/>
<path d="M209.707 202.076C206.017 202.076 202.335 202.03 198.652 202.099C197.181 202.122 196.503 201.652 196.58 200.105C196.665 198.473 196.634 196.826 196.588 195.194C196.557 193.985 197.066 193.461 198.29 193.469C206.001 193.492 213.72 193.492 221.431 193.469C222.525 193.461 222.864 193.923 222.833 194.94C222.787 196.779 222.764 198.627 222.841 200.467C222.895 201.737 222.402 202.122 221.169 202.099C217.356 202.037 213.527 202.076 209.707 202.076Z" fill="#F1F1F1"/>
<path d="M335.494 337.355C336.164 338.586 336.834 339.826 337.504 341.058C337.127 341.989 336.549 342.897 336.395 343.867C335.494 349.541 334.639 355.23 333.868 360.926C332.998 367.362 332.174 373.798 331.457 380.256C330.802 386.176 330.263 392.111 329.793 398.047C329.185 405.745 328.53 413.451 328.206 421.164C327.944 427.361 328.152 433.574 328.152 439.786C328.152 440.771 328.129 441.764 328.122 442.75C327.713 441.941 327.305 441.125 326.889 440.317C326.766 435.39 326.481 430.464 326.558 425.537C326.635 420.448 327.059 415.367 327.328 410.287C327.621 404.721 327.837 399.148 328.206 393.59C328.676 386.423 329.246 379.271 329.801 372.112C330.063 368.732 330.263 365.337 330.702 361.981C331.403 356.608 332.15 351.242 333.121 345.915C333.645 343.005 334.685 340.203 335.494 337.355Z" fill="#E7EFFF"/>
<path d="M335.494 337.355C334.685 340.203 333.653 343.005 333.121 345.907C332.15 351.234 331.403 356.6 330.702 361.973C330.263 365.33 330.063 368.725 329.801 372.104C329.246 379.263 328.676 386.423 328.206 393.582C327.844 399.14 327.621 404.713 327.328 410.279C327.059 415.36 326.635 420.441 326.558 425.529C326.481 430.456 326.766 435.383 326.889 440.309C326.481 439.493 326.065 438.67 325.657 437.854C325.672 431.788 325.633 425.714 325.711 419.648C325.78 414.074 325.88 408.493 326.126 402.927C326.45 395.683 326.851 388.432 327.351 381.196C327.96 372.381 328.376 363.536 329.493 354.783C330.302 348.509 332.12 342.359 333.522 336.162C333.622 335.715 333.961 335.33 334.184 334.914C334.623 335.73 335.055 336.539 335.494 337.355Z" fill="#E7EFFF"/>
<path d="M315.85 416.468C315.735 416.43 315.619 416.391 315.504 416.353C315.072 415.021 314.648 413.682 314.217 412.35C314.356 402.943 314.541 393.536 314.61 384.121C314.672 376.677 314.587 369.233 314.571 361.789C314.595 361.134 314.618 360.48 314.641 359.826C314.772 357.801 314.895 355.776 315.034 353.752C315.303 349.903 315.419 346.031 315.889 342.205C316.559 336.716 318.446 331.573 320.796 326.585C321.951 324.129 323.007 321.627 324.116 319.149C324.624 319.888 325.133 320.627 325.649 321.358C325.125 322.012 324.47 322.605 324.1 323.344C318.754 333.998 316.621 345.407 316.274 357.208C316.081 363.813 315.958 370.418 315.858 377.031C315.696 387.6 315.542 398.162 315.465 408.732C315.45 411.311 315.712 413.889 315.85 416.468Z" fill="#E7EFFF"/>
<path d="M328.122 442.742C328.129 441.757 328.152 440.764 328.152 439.778C328.152 433.574 327.944 427.354 328.206 421.157C328.53 413.443 329.185 405.737 329.793 398.039C330.263 392.104 330.802 386.169 331.457 380.249C332.166 373.798 332.998 367.354 333.868 360.919C334.639 355.222 335.494 349.533 336.395 343.86C336.549 342.89 337.127 341.989 337.504 341.05C338.066 342.135 338.621 343.228 339.183 344.314C338.521 346.87 337.643 349.402 337.227 351.997C335.886 360.341 334.7 368.709 333.468 377.077C332.651 382.627 331.704 388.17 331.095 393.744C330.479 399.332 330.063 404.944 329.824 410.564C329.431 419.732 329.208 428.909 329 438.077C328.946 440.44 329.239 442.804 329.369 445.167C328.954 444.366 328.538 443.55 328.122 442.742Z" fill="#E7EFFF"/>
<path d="M311.806 406.592C310.966 404.275 310.119 401.965 309.279 399.648C309.148 398.963 309.017 398.285 308.886 397.6C308.894 395.984 308.902 394.359 308.902 392.743C308.902 388.632 308.925 384.521 308.886 380.41C308.863 377.801 308.748 375.199 308.671 372.589C308.601 370.133 308.532 367.685 308.47 365.23C309.703 364.699 310.935 364.167 312.168 363.628C312.153 377.985 312.145 392.335 312.129 406.692C312.022 406.669 311.914 406.63 311.806 406.592Z" fill="#E7EFFF"/>
<path d="M324.116 319.156C323.014 321.635 321.951 324.137 320.796 326.593C318.446 331.581 316.567 336.723 315.889 342.212C315.419 346.038 315.296 349.91 315.034 353.759C314.895 355.784 314.772 357.809 314.641 359.833C313.948 359.433 313.262 359.04 312.569 358.64C312.299 357.924 311.814 357.216 311.791 356.5C311.698 353.39 311.744 350.272 311.744 347.162C312.006 346.523 312.268 345.884 312.53 345.245C313.069 338.502 314.78 332.066 317.853 326.038C319.386 323.044 321.166 320.173 322.837 317.255C323.261 317.886 323.692 318.517 324.116 319.156Z" fill="#E7EFFF"/>
<path d="M307.23 343.028C306.691 342.905 306.152 342.774 305.613 342.651C305.751 341.858 305.982 341.058 306.005 340.265C306.159 334.337 308.547 329.287 311.975 324.614C314.695 320.912 317.345 317.163 320.033 313.437C320.665 314.307 321.289 315.169 321.92 316.039C321.458 316.477 320.834 316.832 320.549 317.363C318.03 322.02 315.211 326.562 313.216 331.435C311.644 335.269 311.097 339.518 310.096 343.59C309.141 343.398 308.185 343.213 307.23 343.028Z" fill="#E7EFFF"/>
<path d="M312.129 406.699C312.145 392.342 312.153 377.993 312.168 363.636C312.969 363.02 313.77 362.412 314.571 361.796C314.587 369.24 314.672 376.684 314.61 384.129C314.533 393.536 314.356 402.95 314.217 412.358C313.524 410.464 312.823 408.585 312.129 406.699Z" fill="#E7EFFF"/>
<path d="M308.471 365.23C308.54 367.685 308.602 370.133 308.671 372.589C308.748 375.199 308.863 377.801 308.887 380.41C308.925 384.521 308.902 388.632 308.902 392.743C308.902 394.359 308.894 395.984 308.887 397.6C308.055 395.037 307.223 392.473 306.391 389.91C306.136 385.114 305.975 380.318 305.597 375.53C305.358 372.512 304.796 369.517 304.38 366.515C305.744 366.092 307.107 365.661 308.471 365.23Z" fill="#E7EFFF"/>
<path d="M296.661 352.074C297.077 351.658 297.439 350.988 297.917 350.88C300.736 350.264 303.587 349.787 306.421 349.264C306.614 351.796 306.753 354.337 307.061 356.862C307.107 357.231 307.885 357.593 308.393 357.809C308.925 358.04 309.534 358.086 310.111 358.217C306.652 358.471 303.194 358.679 299.743 358.994C298.61 359.094 297.971 358.971 297.786 357.647C297.524 355.776 297.046 353.929 296.661 352.074Z" fill="#E7EFFF"/>
<path d="M304.38 366.523C304.796 369.525 305.359 372.52 305.597 375.537C305.975 380.318 306.137 385.122 306.391 389.917C304.904 384.998 303.425 380.087 301.938 375.168C301.8 374.714 301.638 374.275 301.491 373.828C301.029 371.804 300.567 369.771 300.089 367.701C300.775 367.4 301.376 367.139 301.977 366.885C302.778 366.762 303.579 366.638 304.38 366.523Z" fill="#E7EFFF"/>
<path d="M310.096 343.583C311.097 339.518 311.637 335.261 313.216 331.427C315.219 326.554 318.038 322.012 320.549 317.355C320.834 316.824 321.458 316.47 321.921 316.031C322.229 316.439 322.529 316.839 322.837 317.247C321.166 320.173 319.386 323.036 317.853 326.031C314.78 332.058 313.069 338.494 312.53 345.238C312.407 345.191 312.284 345.161 312.153 345.13C311.467 344.614 310.782 344.098 310.096 343.583Z" fill="#E7EFFF"/>
<path d="M310.104 358.217C309.526 358.086 308.917 358.04 308.386 357.809C307.877 357.593 307.099 357.231 307.053 356.862C306.753 354.345 306.606 351.804 306.414 349.264C308.193 348.563 309.965 347.855 311.745 347.154C311.745 350.264 311.698 353.382 311.791 356.492C311.814 357.216 312.299 357.924 312.569 358.632C311.752 358.501 310.928 358.355 310.104 358.217Z" fill="#E7EFFF"/>
<path d="M99.4727 116.426C100.975 116.28 102.469 116.134 103.971 115.98C103.817 116.349 103.725 116.757 103.501 117.081C99.5266 122.931 96.53 129.267 94.6581 136.057C91.4612 147.665 89.7819 159.513 91.3457 171.537C92.1853 177.965 93.4333 184.416 95.2898 190.613C98.1092 200.028 100.212 209.497 100.713 219.319C101.06 226.117 101.876 232.868 104.341 239.273C105.697 242.799 106.852 246.486 109.733 249.211C109.317 251.397 108.901 253.576 108.485 255.762C104.626 252.621 102.577 248.341 101.175 243.746C98.918 236.386 97.8241 228.827 97.3696 221.136C97.0153 215.07 96.5069 208.989 95.6903 202.969C95.205 199.358 94.0958 195.817 93.1097 192.291C91.1839 185.355 89.6355 178.404 89.1348 171.16C88.0718 155.587 89.8898 140.521 96.0524 126.103C97.3542 123.062 98.9873 120.168 100.513 117.119C100.22 116.934 99.8501 116.68 99.4727 116.426Z" fill="#E7EFFF"/>
<path d="M109.733 249.219C106.852 246.494 105.697 242.806 104.341 239.281C101.876 232.876 101.059 226.125 100.713 219.327C100.212 209.504 98.1091 200.028 95.2897 190.621C93.4332 184.416 92.1853 177.973 91.3456 171.545C89.7818 159.52 91.4534 147.673 94.658 136.064C96.5299 129.275 99.5265 122.939 103.501 117.088C103.725 116.765 103.817 116.357 103.971 115.988C104.926 115.572 105.882 115.148 106.829 114.733C100.204 122.977 96.4837 132.569 94.2343 142.739C92.4318 150.922 91.7693 159.259 92.0928 167.65C92.3778 175.086 93.9878 182.299 96.1525 189.389C97.7008 194.455 99.5265 199.428 101.098 204.485C101.591 206.079 101.799 207.803 101.891 209.481C102.377 217.818 102.939 226.178 105.412 234.185C106.552 237.88 108.794 241.228 110.542 244.731C110.273 246.224 110.003 247.725 109.733 249.219Z" fill="#E7EFFF"/>
<path d="M315.85 416.468C315.719 413.889 315.45 411.311 315.473 408.739C315.558 398.17 315.704 387.608 315.866 377.039C315.966 370.434 316.081 363.821 316.282 357.216C316.628 345.407 318.762 333.998 324.108 323.352C324.478 322.621 325.133 322.028 325.657 321.366C325.965 321.858 326.273 322.359 326.581 322.852C325.156 326.239 323.53 329.557 322.36 333.021C320.241 339.272 318.962 345.723 318.731 352.351C318.462 360.103 318.169 367.855 317.922 375.607C317.753 380.918 317.63 386.23 317.506 391.542C317.36 397.877 317.16 404.213 317.121 410.549C317.098 413.874 317.368 417.207 317.506 420.541C316.944 419.186 316.397 417.831 315.85 416.468Z" fill="#E7EFFF"/>
<path d="M320.026 313.437C317.345 317.163 314.687 320.912 311.968 324.614C308.532 329.287 306.152 334.345 305.998 340.265C305.975 341.065 305.744 341.858 305.605 342.651C304.511 342.651 303.417 342.643 302.331 342.643C302.331 335.807 303.456 329.256 307.6 323.598C308.756 322.028 310.327 320.765 311.683 319.341C314.055 316.839 316.413 314.322 318.785 311.812C319.201 312.351 319.617 312.89 320.026 313.437Z" fill="#E7EFFF"/>
</svg>
