<svg width="12" height="16" viewBox="0 0 12 16" fill="none" xmlns="http://www.w3.org/2000/svg">
<path d="M5.99986 15.3334C5.64624 15.3334 5.3071 15.1929 5.05705 14.9429C4.807 14.6928 4.66652 14.3537 4.66652 14.0001H7.33319C7.33319 14.3537 7.19272 14.6928 6.94267 14.9429C6.69262 15.1929 6.35348 15.3334 5.99986 15.3334ZM11.3332 4.00008C11.3332 3.73637 11.255 3.47859 11.1085 3.25932C10.962 3.04006 10.7537 2.86916 10.5101 2.76824C10.2665 2.66733 9.99838 2.64092 9.73974 2.69237C9.4811 2.74381 9.24352 2.8708 9.05705 3.05727C8.87058 3.24374 8.74359 3.48132 8.69214 3.73996C8.6407 3.9986 8.6671 4.26669 8.76802 4.51033C8.86893 4.75396 9.03983 4.9622 9.2591 5.10871C9.47836 5.25522 9.73615 5.33341 9.99986 5.33341C10.3535 5.33341 10.6926 5.19294 10.9427 4.94289C11.1927 4.69284 11.3332 4.3537 11.3332 4.00008ZM11.8045 11.5287L10.6665 10.3907V6.66675H9.33319V10.6667C9.33323 10.8435 9.40349 11.0131 9.52852 11.1381L9.72386 11.3334H2.27586L2.47119 11.1381C2.59622 11.0131 2.66649 10.8435 2.66652 10.6667V6.66675C2.66456 6.17698 2.77098 5.69285 2.97815 5.24905C3.18532 4.80526 3.48812 4.4128 3.86483 4.09981C4.24154 3.78682 4.68283 3.56105 5.15707 3.43869C5.63131 3.31634 6.12674 3.30042 6.60786 3.39208L7.66652 2.33341C7.63168 2.30725 7.59414 2.2849 7.55452 2.26675C7.26612 2.16768 6.9687 2.09712 6.66652 2.05608V1.33341C6.66652 1.1566 6.59629 0.987034 6.47126 0.86201C6.34624 0.736986 6.17667 0.666748 5.99986 0.666748C5.82305 0.666748 5.65348 0.736986 5.52845 0.86201C5.40343 0.987034 5.33319 1.1566 5.33319 1.33341V2.05341C4.22346 2.21359 3.20849 2.76796 2.47398 3.6151C1.73946 4.46224 1.33451 5.54552 1.33319 6.66675V10.3907L0.195191 11.5287C0.101985 11.622 0.038514 11.7408 0.0128023 11.8701C-0.0129094 11.9994 0.000292634 12.1334 0.0507393 12.2552C0.101186 12.377 0.186612 12.4811 0.296219 12.5543C0.405825 12.6276 0.534691 12.6667 0.666525 12.6667H11.3332C11.465 12.6667 11.5939 12.6276 11.7035 12.5543C11.8131 12.4811 11.8985 12.377 11.949 12.2552C11.9994 12.1334 12.0126 11.9994 11.9869 11.8701C11.9612 11.7408 11.8977 11.622 11.8045 11.5287Z" fill="#003F87"/>
</svg>
