<svg width="24" height="24" viewBox="0 0 24 24" fill="none" xmlns="http://www.w3.org/2000/svg">
<path d="M3 18H7.382L6.105 20.553C6.0463 20.6705 6.01132 20.7985 6.00207 20.9295C5.99281 21.0606 6.00946 21.1922 6.05106 21.3168C6.09266 21.4414 6.1584 21.5566 6.24452 21.6558C6.33065 21.755 6.43547 21.8363 6.553 21.895C6.67053 21.9537 6.79848 21.9887 6.92953 21.9979C7.06058 22.0072 7.19217 21.9905 7.31678 21.9489C7.4414 21.9073 7.5566 21.8416 7.65581 21.7555C7.75502 21.6694 7.8363 21.5645 7.895 21.447L9.618 18H11V20C11 20.2652 11.1054 20.5196 11.2929 20.7071C11.4804 20.8946 11.7348 21 12 21C12.2652 21 12.5196 20.8946 12.7071 20.7071C12.8946 20.5196 13 20.2652 13 20V18H14.382L16.105 21.447C16.1637 21.5645 16.245 21.6694 16.3442 21.7555C16.4434 21.8416 16.5586 21.9073 16.6832 21.9489C16.8078 21.9905 16.9394 22.0072 17.0705 21.9979C17.2015 21.9887 17.3295 21.9537 17.447 21.895C17.5645 21.8363 17.6694 21.755 17.7555 21.6558C17.8416 21.5566 17.9073 21.4414 17.9489 21.3168C17.9905 21.1922 18.0072 21.0606 17.9979 20.9295C17.9887 20.7985 17.9537 20.6705 17.895 20.553L16.618 18H21C21.2652 18 21.5196 17.8946 21.7071 17.7071C21.8946 17.5196 22 17.2652 22 17V5C22 4.73478 21.8946 4.48043 21.7071 4.29289C21.5196 4.10536 21.2652 4 21 4H13V3C13 2.73478 12.8946 2.48043 12.7071 2.29289C12.5196 2.10536 12.2652 2 12 2C11.7348 2 11.4804 2.10536 11.2929 2.29289C11.1054 2.48043 11 2.73478 11 3V4H3C2.73478 4 2.48043 4.10536 2.29289 4.29289C2.10536 4.48043 2 4.73478 2 5V17C2 17.2652 2.10536 17.5196 2.29289 17.7071C2.48043 17.8946 2.73478 18 3 18ZM4 6H20V16H4V6ZM14.923 8.618C14.9737 8.73898 14.9999 8.86883 15 9V13C15 13.2652 14.8946 13.5196 14.7071 13.7071C14.5196 13.8946 14.2652 14 14 14C13.7348 14 13.4804 13.8946 13.2929 13.7071C13.1054 13.5196 13 13.2652 13 13V11.414L10.707 13.707C10.5184 13.8892 10.2658 13.99 10.0036 13.9877C9.7414 13.9854 9.49059 13.8802 9.30518 13.6948C9.11977 13.5094 9.0146 13.2586 9.01233 12.9964C9.01005 12.7342 9.11084 12.4816 9.293 12.293L11.586 10H10C9.73478 10 9.48043 9.89464 9.29289 9.70711C9.10536 9.51957 9 9.26522 9 9C9 8.73478 9.10536 8.48043 9.29289 8.29289C9.48043 8.10536 9.73478 8 10 8H14C14.1311 8.00063 14.2609 8.02678 14.382 8.077C14.6269 8.17849 14.8215 8.37308 14.923 8.618Z" fill="white"/>
</svg>
