<svg width="16" height="12" viewBox="0 0 16 12" fill="none" xmlns="http://www.w3.org/2000/svg">
<path d="M14.666 0H1.33268C1.15587 0 0.986302 0.0702379 0.861278 0.195262C0.736253 0.320286 0.666016 0.489856 0.666016 0.666667V11.3333C0.666016 11.5101 0.736253 11.6797 0.861278 11.8047C0.986302 11.9298 1.15587 12 1.33268 12H14.666C14.8428 12 15.0124 11.9298 15.1374 11.8047C15.2624 11.6797 15.3327 11.5101 15.3327 11.3333V0.666667C15.3327 0.489856 15.2624 0.320286 15.1374 0.195262C15.0124 0.0702379 14.8428 0 14.666 0ZM13.9993 10.6667H1.99935V10.3127L5.35468 7.51267L6.22135 8.164L5.52802 8.862C5.40658 8.98773 5.33938 9.15614 5.3409 9.33093C5.34242 9.50573 5.41253 9.67294 5.53614 9.79655C5.65974 9.92015 5.82695 9.99026 6.00175 9.99178C6.17655 9.9933 6.34495 9.92611 6.47068 9.80467L10.594 5.68133L13.9993 10.222V10.6667ZM13.9993 8L11.1993 4.26667C11.142 4.19027 11.069 4.12708 10.9851 4.08138C10.9013 4.03567 10.8086 4.00852 10.7133 4.00176C10.618 3.99499 10.5224 4.00878 10.4329 4.04217C10.3435 4.07557 10.2622 4.1278 10.1947 4.19533L7.17468 7.21533L5.73268 6.13333C5.61267 6.04323 5.46578 5.99626 5.31576 6.00001C5.16574 6.00376 5.02137 6.05802 4.90602 6.154L1.99935 8.57667V1.33333H13.9993V8ZM3.33268 4C3.33268 3.73629 3.41088 3.47851 3.55739 3.25924C3.7039 3.03997 3.91214 2.86908 4.15577 2.76816C4.39941 2.66724 4.66749 2.64084 4.92614 2.69229C5.18478 2.74373 5.42235 2.87072 5.60882 3.05719C5.79529 3.24366 5.92228 3.48124 5.97373 3.73988C6.02518 3.99852 5.99877 4.26661 5.89785 4.51024C5.79694 4.75388 5.62604 4.96212 5.40678 5.10863C5.18751 5.25513 4.92972 5.33333 4.66602 5.33333C4.31239 5.33333 3.97325 5.19286 3.72321 4.94281C3.47316 4.69276 3.33268 4.35362 3.33268 4Z" fill="#003F87"/>
</svg>
