<svg
  fill="#003F87"
enable-background="new 0 0 486.8 486.8" version="1.1" viewBox="0 0 486.8 486.8" xml:space="preserve" xmlns="http://www.w3.org/2000/svg">
  <path d="m140.35 32c0-17.6-14.4-32-32-32h-76.3c-17.6 0-32 14.4-32 32v76.2c0 17.6 14.4 32 32 32h76.2c17.6 0 32-14.4 32-32v-76.2h0.1zm-24.5 76.3c0 4.1-3.4 7.5-7.5 7.5h-76.3c-4.1 0-7.5-3.4-7.5-7.5v-76.3c0-4.1 3.4-7.5 7.5-7.5h76.2c4.1 0 7.5 3.4 7.5 7.5v76.3h0.1z"/>
  <path d="m140.35 205.3c0-17.6-14.4-32-32-32h-76.3c-17.6 0-32 14.4-32 32v76.2c0 17.6 14.4 32 32 32h76.2c17.6 0 32-14.4 32-32v-76.2h0.1zm-24.5 76.2c0 4.1-3.4 7.5-7.5 7.5h-76.3c-4.1 0-7.5-3.4-7.5-7.5v-76.2c0-4.1 3.4-7.5 7.5-7.5h76.2c4.1 0 7.5 3.4 7.5 7.5v76.2h0.1z"/>
  <path d="m108.35 346.5h-76.3c-17.6 0-32 14.4-32 32v76.2c0 17.6 14.4 32 32 32h76.2c17.6 0 32-14.4 32-32v-76.2c0.1-17.6-14.3-32-31.9-32zm7.5 108.3c0 4.1-3.4 7.5-7.5 7.5h-76.3c-4.1 0-7.5-3.4-7.5-7.5v-76.2c0-4.1 3.4-7.5 7.5-7.5h76.2c4.1 0 7.5 3.4 7.5 7.5v76.2h0.1z"/>
  <path d="m173.35 281.5c0 17.6 14.4 32 32 32h76.2c17.6 0 32-14.4 32-32v-76.2c0-17.6-14.4-32-32-32h-76.2c-17.6 0-32 14.4-32 32v76.2zm24.5-76.2c0-4.1 3.4-7.5 7.5-7.5h76.2c4.1 0 7.5 3.4 7.5 7.5v76.2c0 4.1-3.4 7.5-7.5 7.5h-76.2c-4.1 0-7.5-3.4-7.5-7.5v-76.2z"/>
  <path d="m173.35 454.8c0 17.6 14.4 32 32 32h76.2c17.6 0 32-14.4 32-32v-76.2c0-17.6-14.4-32-32-32h-76.2c-17.6 0-32 14.4-32 32v76.2zm24.5-76.3c0-4.1 3.4-7.5 7.5-7.5h76.2c4.1 0 7.5 3.4 7.5 7.5v76.2c0 4.1-3.4 7.5-7.5 7.5h-76.2c-4.1 0-7.5-3.4-7.5-7.5v-76.2z"/>
  <path d="m346.55 281.5c0 17.6 14.4 32 32 32h76.2c17.6 0 32-14.4 32-32v-76.2c0-17.6-14.4-32-32-32h-76.2c-17.6 0-32 14.4-32 32v76.2zm24.5-76.2c0-4.1 3.4-7.5 7.5-7.5h76.2c4.1 0 7.5 3.4 7.5 7.5v76.2c0 4.1-3.4 7.5-7.5 7.5h-76.2c-4.1 0-7.5-3.4-7.5-7.5v-76.2z"/>
  <path d="m346.55 454.8c0 17.6 14.4 32 32 32h76.2c17.6 0 32-14.4 32-32v-76.2c0-17.6-14.4-32-32-32h-76.2c-17.6 0-32 14.4-32 32v76.2zm24.5-76.3c0-4.1 3.4-7.5 7.5-7.5h76.2c4.1 0 7.5 3.4 7.5 7.5v76.2c0 4.1-3.4 7.5-7.5 7.5h-76.2c-4.1 0-7.5-3.4-7.5-7.5v-76.2z"/>
  <path d="m173.35 32v76.2c0 17.6 14.4 32 32 32h76.2c17.6 0 32-14.4 32-32v-76.2c0-17.6-14.4-32-32-32h-76.2c-17.7 0-32 14.4-32 32zm24.5 0c0-4.1 3.4-7.5 7.5-7.5h76.2c4.1 0 7.5 3.4 7.5 7.5v76.2c0 4.1-3.4 7.5-7.5 7.5h-76.2c-4.1 0-7.5-3.4-7.5-7.5v-76.2z"/>
  <path d="m378.55 140.3h76.2c17.6 0 32-14.4 32-32v-76.3c0-17.6-14.4-32-32-32h-76.2c-17.6 0-32 14.4-32 32v76.2c0 17.7 14.4 32.1 32 32.1zm-7.5-108.3c0-4.1 3.4-7.5 7.5-7.5h76.2c4.1 0 7.5 3.4 7.5 7.5v76.2c0 4.1-3.4 7.5-7.5 7.5h-76.2c-4.1 0-7.5-3.4-7.5-7.5v-76.2z"/>
</svg>