<svg width="22" height="18" viewBox="0 0 22 18" fill="none" xmlns="http://www.w3.org/2000/svg">
<path d="M21 4H15.333V1C15.333 0.734784 15.2276 0.48043 15.0401 0.292893C14.8526 0.105357 14.5982 0 14.333 0H7.667C7.40178 0 7.14743 0.105357 6.95989 0.292893C6.77236 0.48043 6.667 0.734784 6.667 1V8H1C0.734784 8 0.48043 8.10536 0.292893 8.29289C0.105357 8.48043 0 8.73478 0 9V17C0 17.2652 0.105357 17.5196 0.292893 17.7071C0.48043 17.8946 0.734784 18 1 18H21C21.2652 18 21.5196 17.8946 21.7071 17.7071C21.8946 17.5196 22 17.2652 22 17V5C22 4.73478 21.8946 4.48043 21.7071 4.29289C21.5196 4.10536 21.2652 4 21 4ZM6.667 16H2V10H6.667V16ZM13.333 16H8.667V2H13.333V16ZM20 16H15.333V6H20V16Z" fill="white"/>
</svg>
