<svg width="16" height="16" viewBox="0 0 21 21" fill="none" xmlns="http://www.w3.org/2000/svg">
<path d="M19.7068 2.70708L15.4138 7.00008H17.9998C18.265 7.00008 18.5194 7.10544 18.7069 7.29297C18.8944 7.48051 18.9998 7.73486 18.9998 8.00008C18.9998 8.2653 18.8944 8.51965 18.7069 8.70719C18.5194 8.89472 18.265 9.00008 17.9998 9.00008H12.9998C12.7346 9.00008 12.4802 8.89472 12.2927 8.70719C12.1051 8.51965 11.9998 8.2653 11.9998 8.00008V3.00008C11.9998 2.73486 12.1051 2.48051 12.2927 2.29297C12.4802 2.10544 12.7346 2.00008 12.9998 2.00008C13.265 2.00008 13.5194 2.10544 13.7069 2.29297C13.8944 2.48051 13.9998 2.73486 13.9998 3.00008V5.58608L18.2928 1.29308C18.385 1.19757 18.4954 1.12139 18.6174 1.06898C18.7394 1.01657 18.8706 0.988985 19.0034 0.987831C19.1362 0.986677 19.2678 1.01198 19.3907 1.06226C19.5136 1.11254 19.6253 1.18679 19.7192 1.28069C19.8131 1.37458 19.8873 1.48623 19.9376 1.60913C19.9879 1.73202 20.0132 1.8637 20.012 1.99648C20.0109 2.12926 19.9833 2.26048 19.9309 2.38249C19.8785 2.50449 19.8023 2.61483 19.7068 2.70708ZM0.999787 21.0001C1.26498 21 1.51929 20.8946 1.70679 20.7071L5.99979 16.4141V19.0001C5.99979 19.2653 6.10514 19.5197 6.29268 19.7072C6.48022 19.8947 6.73457 20.0001 6.99979 20.0001C7.265 20.0001 7.51936 19.8947 7.70689 19.7072C7.89443 19.5197 7.99979 19.2653 7.99979 19.0001V14.0001C7.99979 13.7349 7.89443 13.4805 7.70689 13.293C7.51936 13.1054 7.265 13.0001 6.99979 13.0001H1.99979C1.73457 13.0001 1.48022 13.1054 1.29268 13.293C1.10514 13.4805 0.999787 13.7349 0.999787 14.0001C0.999787 14.2653 1.10514 14.5197 1.29268 14.7072C1.48022 14.8947 1.73457 15.0001 1.99979 15.0001H4.58579L0.292787 19.2931C0.152977 19.4329 0.057771 19.6111 0.0192035 19.805C-0.0193641 19.999 0.000438951 20.2 0.076109 20.3827C0.151779 20.5654 0.279918 20.7216 0.444328 20.8315C0.608738 20.9414 0.802037 21 0.999787 21.0001Z" fill="white"/>
</svg>
