<svg fill="#003F87" viewBox="0 0 494.3 494.3" preserveAspectRatio="none" xmlns="http://www.w3.org/2000/svg">
    <path d="m416.16 313.3v-177.1c0-5.5-4.5-9.3-10-9.3h-38.7c-5.5 0-10.3 3.8-10.3 9.3v159.8c-6.4 0.2-12.8 1-19 2.5v-110.1c0-5.5-4.7-9.5-10.2-9.5h-38.7c-5.5 0-10.1 3.9-10.1 9.5v149.3c-11.9 16.7-18.3 36.8-18.2 57.4 0 54.8 44.4 99.2 99.1 99.2 54.8 0 99.2-44.4 99.2-99.1 0-32.8-16.1-63.4-43.1-81.9zm-39-166.4h19v155.8c-6.1-2.4-12.5-4.2-19-5.2v-150.6zm-78 52h19v106.5c-6.7 3.1-13.1 6.9-19 11.4v-117.9zm129.1 236.5c-14.3 24.1-40.2 38.8-68.1 38.8-43.7 0-79.1-35.5-79.1-79.1 0-32 19.3-60.9 48.9-73.1 1.2-0.2 2.3-0.7 3.3-1.3 8.6-3.2 17.8-4.8 27-4.8 2.1 0 4.1 0.1 6.2 0.3h0.1c12 0.9 23.7 4.6 34 10.8 37.599 22.3 50 70.8 27.7 108.4z"/>
    <path d="m382.66 429.5c-12.3 4.6-26.1 2.5-36.4-5.6h36.4c5.5 0 10-4.5 10-10s-4.5-10-10-10h-49.2c-0.5-2-0.8-4-1-6h55.4c5.6 0 10.1-4.5 10.1-10s-4.5-10-10-10h-51.2c1.8-3.2 3.9-6.2 6.5-8.9 10.3-10.3 25.7-13.6 39.4-8.4 5.2 2 11-0.6 12.9-5.8s-0.6-11-5.8-12.9c-21-8-44.8-3-60.7 13-6.3 6.5-11.1 14.4-13.9 23h-0.2c-5.5 0-10 4.4-10 9.9 0 4.6 3.1 8.6 7.5 9.7 0.1 2.2 0.3 4.4 0.7 6.5-5.4 1-9 6.2-8 11.7 0.9 4.7 5 8.2 9.8 8.2h5.3c2.5 4.1 5.4 8 8.8 11.4 15.9 15.9 39.7 20.9 60.7 12.9 5.2-2 7.7-7.7 5.8-12.9-1.999-5.2-7.7-7.7-12.9-5.8z"/>
    <path d="m171.16 258.9h-39c-5.5 0-10 4.5-10 10v157c0 5.5 4.5 10 10 10h39c5.5 0 10-4.5 10-10v-157c0-5.5-4.5-10-10-10zm-10 158h-19v-138h19v138z"/>
    <path d="m250.16 235.9h-39c-5.5 0-10 4.5-10 10v181c0 5.5 4.5 10 10 10h39c5.5 0 10-4.5 10-10v-181c0-5.5-4.5-10-10-10zm-10 181h-19v-161h19v161z"/>
    <path d="m92.163 344.9h-39c-5.5 0-10 4.5-10 10v71c0 5.5 4.5 10 10 10h39c5.5 0 10-4.5 10-10v-71c0-5.5-4.5-10-10-10zm-10 72h-19v-52h19v52z"/>
    <path d="m414.66 0-68.4 0.1c-5.5-0.1-10 4.4-10.1 9.9s4.4 10 9.9 10.1h0.2l44.3-0.1-108.5 108.1-37.9-37.6c-1.9-1.8-4.5-2.7-7.1-2.6-2.6-0.1-5.2 0.8-7.1 2.6l-192 192c-3.9 3.9-3.9 10.2 0 14 1.9 1.9 4.4 2.9 7.1 2.9s5.2-1 7.1-2.9l185-185 37.9 38.2c1.8 2 4.4 3.1 7.1 3.2 2.7-0.1 5.2-1.3 7.1-3.2l115.4-115.5-0.1 44.5c0 5.6 4.4 10.1 10 10.3 5.6-0.1 10-4.7 10-10.3l0.1-68.6c0-5.5-4.5-10.1-10-10.1z"/>
</svg>