<svg width="16" height="16" viewBox="0 0 18 18" fill="none" xmlns="http://www.w3.org/2000/svg">
<path d="M7.08852 7.08908C6.93224 7.24531 6.72032 7.33307 6.49935 7.33307C6.27838 7.33307 6.06646 7.24531 5.91018 7.08908L2.33268 3.51158L2.33268 5.66658C2.33268 5.8876 2.24488 6.09956 2.0886 6.25584C1.93232 6.41212 1.72036 6.49992 1.49935 6.49992C1.27833 6.49992 1.06637 6.41212 0.910093 6.25584C0.753812 6.09956 0.666015 5.8876 0.666015 5.66658L0.666015 1.49992C0.666015 1.2789 0.753812 1.06694 0.910093 0.910662C1.06637 0.754381 1.27833 0.666584 1.49935 0.666584L5.66601 0.666584C5.88703 0.666584 6.09899 0.754381 6.25527 0.910661C6.41155 1.06694 6.49935 1.2789 6.49935 1.49992C6.49935 1.72093 6.41155 1.93289 6.25527 2.08917C6.09899 2.24545 5.88703 2.33325 5.66601 2.33325L3.51102 2.33325L7.08852 5.91075C7.24474 6.06702 7.3325 6.27895 7.3325 6.49992C7.3325 6.72089 7.24474 6.93281 7.08852 7.08908ZM17.3327 16.4999L17.3327 12.3333C17.3327 12.1122 17.2449 11.9003 17.0886 11.744C16.9323 11.5877 16.7204 11.4999 16.4993 11.4999C16.2783 11.4999 16.0664 11.5877 15.9101 11.744C15.7538 11.9003 15.666 12.1122 15.666 12.3333L15.666 14.4883L12.0885 10.9108C11.9313 10.759 11.7208 10.675 11.5023 10.6769C11.2839 10.6788 11.0748 10.7664 10.9203 10.9209C10.7658 11.0754 10.6782 11.2844 10.6763 11.5029C10.6744 11.7214 10.7584 11.9319 10.9102 12.0891L14.4877 15.6666L12.3327 15.6666C12.1117 15.6666 11.8997 15.7544 11.7434 15.9107C11.5871 16.0669 11.4993 16.2789 11.4993 16.4999C11.4993 16.7209 11.5871 16.9329 11.7434 17.0892C11.8997 17.2455 12.1117 17.3333 12.3327 17.3333L16.4993 17.3333C16.7204 17.3333 16.9323 17.2455 17.0886 17.0892C17.2449 16.9329 17.3327 16.7209 17.3327 16.4999Z" fill="white"/>
</svg>
