<svg width="19" height="19" viewBox="0 0 512 512" xmlns="http://www.w3.org/2000/svg">
    <path fill-rule="evenodd" fill="#F69036" clip-rule="evenodd" d="m492 127.5h-18v-18c0-11.046-8.954-20-20-20s-20 8.954-20 20v18h-18c-11.046 0-20 8.954-20 20s8.954 20 20 20h18v18c0 11.046 8.954 20 20 20s20-8.954 20-20v-18h18c11.046 0 20-8.954 20-20s-8.954-20-20-20z"/>
    <path fill-rule="evenodd" fill="#F69036" clip-rule="evenodd" d="m315.41 249.23c30.445-23.52 50.091-60.371 50.091-101.73 0-70.855-57.645-128.5-128.5-128.5s-128.5 57.645-128.5 128.5c0 41.359 19.646 78.211 50.091 101.73-90.298 31.562-158.59 118.2-158.59 223.77 0 11.046 8.954 20 20 20h434c11.046 0 20-8.954 20-20 0-105.6-68.344-192.22-158.59-223.77zm-166.91-101.73c0-48.799 39.701-88.5 88.5-88.5s88.5 39.701 88.5 88.5-39.701 88.5-88.5 88.5-88.5-39.701-88.5-88.5zm-107.49 305.5c10.053-99.27 94.115-177 195.99-177s185.94 77.73 195.99 177h-391.98z"/>
</svg>