<svg width="20" height="20" viewBox="0 0 20 20" fill="none" xmlns="http://www.w3.org/2000/svg">
<path d="M9.99968 0.833252C8.18668 0.833252 6.4144 1.37087 4.90695 2.37811C3.3995 3.38536 2.22459 4.817 1.53078 6.49199C0.83698 8.16698 0.655449 10.0101 1.00915 11.7882C1.36284 13.5664 2.23589 15.1997 3.51787 16.4817C4.79985 17.7637 6.43319 18.6368 8.21135 18.9904C9.98951 19.3441 11.8326 19.1626 13.5076 18.4688C15.1826 17.775 16.6142 16.6001 17.6215 15.0926C18.6287 13.5852 19.1663 11.8129 19.1663 9.99992C19.1635 7.56965 18.1968 5.23974 16.4783 3.52127C14.7599 1.80281 12.43 0.836119 9.99968 0.833252ZM2.54885 10.8333H5.02218C5.07061 12.8593 5.58562 14.8469 6.52718 16.6416C5.44002 16.0721 4.50895 15.2449 3.81542 14.2323C3.12189 13.2198 2.68702 12.0527 2.54885 10.8333ZM5.02218 9.16658H2.54885C2.68702 7.9471 3.12189 6.78004 3.81542 5.76749C4.50895 4.75494 5.44002 3.92774 6.52718 3.35825C5.58562 5.1529 5.07061 7.14051 5.02218 9.16658ZM9.16635 17.2216C7.96385 16.4416 6.85385 14.0599 6.68801 10.8333H9.16635V17.2216ZM9.16635 9.16658H6.68801C6.85385 5.93992 7.96385 3.55825 9.16635 2.77825V9.16658ZM10.833 17.2216V10.8333H13.3113C13.1455 14.0599 12.0355 16.4416 10.833 17.2216ZM10.833 9.16658V2.77825C12.0355 3.55825 13.1455 5.93992 13.3113 9.16658H10.833ZM13.4722 16.6416C14.4137 14.8469 14.9288 12.8593 14.9772 10.8333H17.4505C17.3123 12.0527 16.8775 13.2198 16.1839 14.2323C15.4904 15.2449 14.5593 16.0721 13.4722 16.6416ZM14.9772 9.16658C14.9288 7.14051 14.4137 5.1529 13.4722 3.35825C14.5593 3.92774 15.4904 4.75494 16.1839 5.76749C16.8775 6.78004 17.3123 7.9471 17.4505 9.16658H14.9772Z" fill="#003F87"/>
</svg>
