<svg xmlns="http://www.w3.org/2000/svg" width="180" height="53" viewBox="0 0 180 53" fill="none">
<path d="M173.333 0H6.66667C2.98477 0 0 2.96611 0 6.625V46.375C0 50.0339 2.98477 53 6.66667 53H173.333C177.015 53 180 50.0339 180 46.375V6.625C180 2.96611 177.015 0 173.333 0Z" fill="white"/>
<path d="M63.2267 13.5682C63.2486 14.0541 63.1713 14.5394 62.9994 14.9948C62.8276 15.4502 62.5647 15.8664 62.2267 16.2182C61.8479 16.6068 61.3908 16.9115 60.8853 17.1125C60.3798 17.3134 59.8374 17.406 59.2934 17.3842C58.7462 17.3963 58.2024 17.2967 57.6956 17.0916C57.1887 16.8865 56.7296 16.5802 56.3467 16.1917C55.5698 15.4019 55.1348 14.3413 55.1348 13.2369C55.1348 12.1325 55.5698 11.0719 56.3467 10.2822C56.9407 9.70536 57.693 9.31588 58.509 9.16265C59.3251 9.00941 60.1685 9.09926 60.9334 9.42091C61.4142 9.61731 61.843 9.92107 62.1867 10.3087L61.48 11.0109C61.2153 10.6939 60.8798 10.4427 60.5002 10.2771C60.1206 10.1115 59.7074 10.0361 59.2934 10.0569C58.7707 10.0605 58.2569 10.1912 57.7969 10.4377C57.3368 10.6842 56.9446 11.0389 56.6543 11.4708C56.3641 11.9028 56.1847 12.3988 56.1319 12.9155C56.0791 13.4322 56.1544 13.9539 56.3513 14.435C56.5483 14.9161 56.8608 15.342 57.2616 15.6754C57.6624 16.0087 58.1392 16.2395 58.6505 16.3474C59.1617 16.4553 59.6918 16.4372 60.1943 16.2946C60.6969 16.1519 61.1566 15.8891 61.5334 15.5292C61.9406 15.0854 62.1768 14.5128 62.2 13.9127H59.2934V12.9587H63.1734C63.2037 13.1605 63.2215 13.3641 63.2267 13.5682Z" fill="black" stroke="black" stroke-width="0.411304" stroke-miterlimit="10"/>
<path d="M69.3334 10.2559H65.7334V12.7734H69.0134V13.7274H65.7334V16.2449H69.3334V17.2254H64.6934V9.27539H69.3334V10.2559Z" fill="black" stroke="black" stroke-width="0.411304" stroke-miterlimit="10"/>
<path d="M73.7061 17.2254H72.6795V10.2559H70.4395V9.27539H75.9994V10.2559H73.7061V17.2254Z" fill="black" stroke="black" stroke-width="0.411304" stroke-miterlimit="10"/>
<path d="M79.9199 17.2254V9.27539H80.9466V17.2254H79.9199Z" fill="black" stroke="black" stroke-width="0.411304" stroke-miterlimit="10"/>
<path d="M85.5069 17.2254H84.4802V10.2559H82.2402V9.27539H87.7336V10.2559H85.5069V17.2254Z" fill="black" stroke="black" stroke-width="0.411304" stroke-miterlimit="10"/>
<path d="M98.1475 16.1916C97.7624 16.5746 97.3051 16.8785 96.8018 17.0858C96.2985 17.2931 95.759 17.3998 95.2142 17.3998C94.6694 17.3998 94.1299 17.2931 93.6266 17.0858C93.1232 16.8785 92.666 16.5746 92.2809 16.1916C91.5271 15.3954 91.1074 14.3434 91.1074 13.2501C91.1074 12.1569 91.5271 11.1049 92.2809 10.3086C92.6577 9.91485 93.1134 9.60405 93.6187 9.39635C94.124 9.18865 94.6676 9.08867 95.2142 9.10289C95.7601 9.09431 96.3019 9.19686 96.8064 9.40422C97.3108 9.61159 97.7673 9.91938 98.1475 10.3086C98.5309 10.6962 98.8323 11.1562 99.0338 11.6614C99.2353 12.1666 99.3329 12.7068 99.3209 13.2501C99.3383 13.7941 99.2432 14.3359 99.0414 14.8419C98.8396 15.3479 98.5353 15.8073 98.1475 16.1916ZM93.0409 15.5291C93.3249 15.8152 93.6633 16.0423 94.0364 16.1973C94.4094 16.3523 94.8098 16.4322 95.2142 16.4322C95.6186 16.4322 96.0189 16.3523 96.392 16.1973C96.7651 16.0423 97.1035 15.8152 97.3875 15.5291C97.9628 14.9079 98.2822 14.0944 98.2822 13.2501C98.2822 12.4058 97.9628 11.5924 97.3875 10.9711C97.1035 10.6851 96.7651 10.458 96.392 10.303C96.0189 10.1479 95.6186 10.0681 95.2142 10.0681C94.8098 10.0681 94.4094 10.1479 94.0364 10.303C93.6633 10.458 93.3249 10.6851 93.0409 10.9711C92.4655 11.5924 92.1462 12.4058 92.1462 13.2501C92.1462 14.0944 92.4655 14.9079 93.0409 15.5291Z" fill="black" stroke="black" stroke-width="0.411304" stroke-miterlimit="10"/>
<path d="M100.773 17.2254V9.27539H102.013L105.907 15.4631V13.9261V9.27539H106.933V17.2254H105.867L101.8 10.7461V12.2699V17.2254H100.773Z" fill="black" stroke="black" stroke-width="0.411304" stroke-miterlimit="10"/>
<path d="M90.8541 28.8186C89.7307 28.8212 88.6333 29.1548 87.7007 29.7772C86.7681 30.3996 86.0422 31.2829 85.6147 32.3153C85.1873 33.3477 85.0775 34.4829 85.2992 35.5773C85.521 36.6717 86.0643 37.6762 86.8605 38.4637C87.6568 39.2512 88.6701 39.7865 89.7724 40.0017C90.8747 40.2169 92.0165 40.1025 93.0534 39.6728C94.0903 39.2432 94.9757 38.5177 95.5976 37.588C96.2195 36.6583 96.5501 35.5662 96.5474 34.4498C96.5583 33.7051 96.4183 32.9658 96.1357 32.276C95.8531 31.5861 95.4337 30.9599 94.9025 30.4344C94.3712 29.909 93.7391 29.4952 93.0436 29.2176C92.3481 28.94 91.6035 28.8043 90.8541 28.8186ZM90.8541 37.8683C90.1656 37.9162 89.4784 37.7571 88.8821 37.4117C88.2857 37.0664 87.8077 36.5507 87.5101 35.9318C87.2126 35.3129 87.1093 34.6193 87.2137 33.9412C87.3181 33.2632 87.6253 32.6321 88.0954 32.1298C88.5655 31.6276 89.1768 31.2775 89.8498 31.1251C90.5228 30.9727 91.2263 31.025 91.869 31.2753C92.5117 31.5255 93.0638 31.9621 93.4535 32.5282C93.8431 33.0944 94.0524 33.7639 94.0541 34.4498C94.0756 34.8845 94.0093 35.319 93.8591 35.7277C93.7089 36.1364 93.4779 36.5112 93.1796 36.8298C92.8814 37.1484 92.522 37.4044 92.1226 37.5828C91.7232 37.7612 91.2919 37.8583 90.8541 37.8683ZM78.4274 28.8186C77.3041 28.8212 76.2067 29.1548 75.2741 29.7772C74.3415 30.3996 73.6155 31.2829 73.1881 32.3153C72.7606 33.3477 72.6508 34.4829 72.8726 35.5773C73.0943 36.6717 73.6376 37.6762 74.4339 38.4637C75.2301 39.2512 76.2434 39.7865 77.3458 40.0017C78.4481 40.2169 79.5899 40.1025 80.6267 39.6728C81.6636 39.2432 82.549 38.5177 83.1709 37.588C83.7929 36.6583 84.1234 35.5662 84.1208 34.4498C84.1316 33.7051 83.9916 32.9658 83.709 32.276C83.4264 31.5861 83.007 30.9599 82.4758 30.4344C81.9446 29.909 81.3124 29.4952 80.6169 29.2176C79.9214 28.94 79.1768 28.8043 78.4274 28.8186ZM78.4274 37.8683C77.7389 37.9162 77.0518 37.7571 76.4554 37.4117C75.859 37.0664 75.381 36.5507 75.0835 35.9318C74.7859 35.3129 74.6826 34.6193 74.787 33.9412C74.8914 33.2632 75.1986 32.6321 75.6687 32.1298C76.1389 31.6276 76.7502 31.2775 77.4231 31.1251C78.0961 30.9727 78.7997 31.025 79.4424 31.2753C80.085 31.5255 80.6371 31.9621 81.0268 32.5282C81.4165 33.0944 81.6258 33.7639 81.6274 34.4498C81.6489 34.8845 81.5826 35.319 81.4324 35.7277C81.2822 36.1364 81.0512 36.5112 80.753 36.8298C80.4547 37.1484 80.0953 37.4044 79.6959 37.5828C79.2965 37.7612 78.8652 37.8583 78.4274 37.8683ZM63.6541 30.5543V32.9393H69.4141C69.3238 34.0627 68.8539 35.1227 68.0808 35.9471C67.503 36.5321 66.8081 36.9901 66.0409 37.2913C65.2738 37.5926 64.4516 37.7305 63.6274 37.6961C61.9301 37.6961 60.3022 37.026 59.102 35.8333C57.9017 34.6406 57.2274 33.0229 57.2274 31.3361C57.2274 29.6493 57.9017 28.0316 59.102 26.8389C60.3022 25.6462 61.9301 24.9761 63.6274 24.9761C65.2547 24.952 66.826 25.5662 68.0008 26.6853L69.6941 25.0026C68.8994 24.2215 67.9559 23.6059 66.9187 23.1918C65.8816 22.7777 64.7717 22.5735 63.6541 22.5911C62.4688 22.5453 61.2863 22.7377 60.1776 23.1568C59.0689 23.576 58.0567 24.2133 57.2018 25.0304C56.3468 25.8476 55.6667 26.8279 55.2021 27.9126C54.7375 28.9972 54.498 30.1639 54.498 31.3427C54.498 32.5215 54.7375 33.6882 55.2021 34.7729C55.6667 35.8575 56.3468 36.8378 57.2018 37.655C58.0567 38.4722 59.0689 39.1095 60.1776 39.5286C61.2863 39.9478 62.4688 40.1402 63.6541 40.0943C64.7947 40.1396 65.932 39.9446 66.9913 39.5222C68.0507 39.0997 69.0081 38.4593 69.8008 37.6431C71.2009 36.1146 71.947 34.1043 71.8808 32.0383C71.8856 31.5411 71.8454 31.0445 71.7608 30.5543H63.6541ZM124.067 32.4093C123.72 31.3927 123.069 30.505 122.203 29.8638C121.336 29.2226 120.294 28.8581 119.214 28.8186C118.485 28.8172 117.763 28.9644 117.093 29.2513C116.423 29.5381 115.82 29.9584 115.32 30.4862C114.82 31.0139 114.434 31.638 114.187 32.3198C113.939 33.0015 113.835 33.7265 113.881 34.4498C113.869 35.6594 114.252 36.8401 114.972 37.8157C115.691 38.7913 116.709 39.5094 117.873 39.8627C119.037 40.216 120.285 40.1856 121.43 39.776C122.576 39.3664 123.557 38.5996 124.227 37.5901L122.294 36.2651C122.006 36.7425 121.597 37.1367 121.108 37.4086C120.619 37.6805 120.068 37.8208 119.507 37.8153C118.93 37.8391 118.358 37.6885 117.868 37.3834C117.378 37.0784 116.992 36.6331 116.761 36.1061L124.347 32.9923L124.067 32.4093ZM116.334 34.2908C116.307 33.8793 116.363 33.4665 116.498 33.0766C116.634 32.6868 116.846 32.3277 117.123 32.0205C117.4 31.7132 117.736 31.464 118.111 31.2873C118.486 31.1106 118.893 31.0101 119.307 30.9916C119.737 30.9655 120.165 31.066 120.537 31.2805C120.91 31.495 121.21 31.8139 121.401 32.1973L116.334 34.2908ZM110.174 39.7498H112.667V23.1873H110.174V39.7498ZM106.094 30.0773H106.001C105.628 29.6558 105.169 29.3192 104.653 29.0905C104.138 28.8618 103.579 28.7465 103.014 28.7523C101.557 28.8226 100.183 29.4472 99.1767 30.4968C98.1705 31.5464 97.6092 32.9405 97.6092 34.3902C97.6092 35.8399 98.1705 37.234 99.1767 38.2836C100.183 39.3332 101.557 39.9579 103.014 40.0281C103.579 40.0394 104.14 39.9264 104.656 39.6974C105.173 39.4684 105.632 39.1288 106.001 38.7031H106.094V39.5113C106.094 41.6711 104.934 42.8238 103.067 42.8238C102.444 42.8102 101.838 42.6128 101.328 42.2565C100.818 41.9003 100.425 41.4014 100.201 40.8231L98.0408 41.7108C98.4401 42.7076 99.1344 43.5604 100.032 44.1566C100.93 44.7528 101.988 45.0643 103.067 45.0498C105.987 45.0498 108.401 43.3406 108.401 39.1801V29.1498H106.094V30.0773ZM103.227 37.8683C102.354 37.8142 101.534 37.4312 100.935 36.7973C100.335 36.1634 100.002 35.3263 100.002 34.4565C100.002 33.5867 100.335 32.7495 100.935 32.1156C101.534 31.4817 102.354 31.0987 103.227 31.0446C103.654 31.0629 104.073 31.1664 104.459 31.3489C104.845 31.5314 105.19 31.7891 105.474 32.1068C105.757 32.4245 105.974 32.7957 106.11 33.1982C106.247 33.6007 106.3 34.0264 106.267 34.4498C106.304 34.8748 106.253 35.3026 106.118 35.7075C105.984 36.1124 105.768 36.4859 105.483 36.8054C105.199 37.125 104.853 37.3839 104.465 37.5666C104.077 37.7493 103.656 37.852 103.227 37.8683ZM135.747 23.1873H129.774V39.7498H132.267V33.4693H135.747C136.458 33.5201 137.172 33.4248 137.843 33.1894C138.515 32.954 139.131 32.5836 139.653 32.1013C140.174 31.6189 140.59 31.035 140.875 30.3859C141.159 29.7367 141.306 29.0363 141.306 28.3283C141.306 27.6204 141.159 26.92 140.875 26.2708C140.59 25.6217 140.174 25.0378 139.653 24.5554C139.131 24.0731 138.515 23.7027 137.843 23.4673C137.172 23.2319 136.458 23.1366 135.747 23.1873ZM135.747 31.1373H132.267V25.4928H135.801C136.175 25.4928 136.547 25.5662 136.893 25.7087C137.239 25.8512 137.553 26.06 137.818 26.3233C138.083 26.5866 138.294 26.8992 138.437 27.2432C138.58 27.5873 138.654 27.956 138.654 28.3283C138.654 28.7007 138.58 29.0694 138.437 29.4134C138.294 29.7575 138.083 30.07 137.818 30.3333C137.553 30.5966 137.239 30.8055 136.893 30.948C136.547 31.0905 136.175 31.1638 135.801 31.1638L135.747 31.1373ZM151.134 28.7656C150.226 28.71 149.322 28.92 148.532 29.3698C147.743 29.8196 147.104 30.4894 146.694 31.2963L148.894 32.2106C149.116 31.8123 149.45 31.4865 149.855 31.2725C150.259 31.0586 150.717 30.9656 151.174 31.0048C151.491 30.9681 151.811 30.9944 152.118 31.0821C152.424 31.1699 152.709 31.3173 152.957 31.5159C153.206 31.7145 153.412 31.9602 153.563 32.2387C153.715 32.5172 153.809 32.823 153.841 33.1381V33.2971C153.039 32.8783 152.147 32.66 151.241 32.6611C148.867 32.6611 146.441 33.9861 146.441 36.3976C146.464 36.9102 146.591 37.4128 146.814 37.8757C147.037 38.3386 147.351 38.7522 147.738 39.0921C148.124 39.432 148.576 39.6912 149.066 39.8543C149.555 40.0173 150.073 40.0809 150.587 40.0413C151.213 40.0757 151.837 39.9442 152.394 39.6601C152.952 39.376 153.424 38.9497 153.761 38.4248H153.841V39.7498H156.241V33.3766C156.241 30.4748 154.027 28.7921 151.187 28.7921L151.134 28.7656ZM150.827 37.8418C150.014 37.8418 148.881 37.4311 148.881 36.4373C148.881 35.1123 150.294 34.6618 151.547 34.6618C152.339 34.6424 153.122 34.8346 153.814 35.2183C153.73 35.9379 153.387 36.6029 152.848 37.0902C152.308 37.5774 151.61 37.8539 150.881 37.8683L150.827 37.8418ZM164.987 29.1498L162.134 36.3313H162.054L159.094 29.1498H156.427L160.867 39.1933L158.334 44.7716H160.934L167.761 29.1498H164.987ZM142.587 39.7498H145.067V23.1873H142.587V39.7498Z" fill="black"/>
<path d="M13.9195 9.9907C13.4801 10.5069 13.2559 11.1706 13.2928 11.8457V41.1547C13.2475 41.831 13.4727 42.4976 13.9195 43.0097L14.0128 43.1157L30.5328 26.6989V26.3015L14.0128 9.89795L13.9195 9.9907Z" fill="url(#paint0_linear_2412_27105)"/>
<path d="M35.9999 32.1711L30.5332 26.6989V26.3014L35.9999 20.8291L36.1199 20.9086L42.6665 24.5921C44.5332 25.6389 44.5332 27.3614 42.6665 28.4214L36.1465 32.1049L35.9999 32.1711Z" fill="url(#paint1_linear_2412_27105)"/>
<path d="M36.1599 32.0915L30.5333 26.5L13.9199 43.0095C14.2967 43.3428 14.7789 43.5345 15.2831 43.5514C15.7872 43.5684 16.2814 43.4095 16.6799 43.1022L36.1599 32.0915Z" fill="url(#paint2_linear_2412_27105)"/>
<path d="M36.1599 20.9083L16.6799 9.91082C16.284 9.59934 15.7902 9.43655 15.2854 9.45109C14.7806 9.46563 14.2971 9.65657 13.9199 9.99033L30.5333 26.4998L36.1599 20.9083Z" fill="url(#paint3_linear_2412_27105)"/>
<path opacity="0.2" d="M35.9999 31.9727L16.6799 42.9039C16.2958 43.192 15.8278 43.3478 15.3466 43.3478C14.8654 43.3478 14.3973 43.192 14.0133 42.9039L13.9199 42.9967L14.0133 43.1027C14.3973 43.3907 14.8654 43.5465 15.3466 43.5465C15.8278 43.5465 16.2958 43.3907 16.6799 43.1027L36.1599 32.0919L35.9999 31.9727Z" fill="black"/>
<path opacity="0.12" d="M13.9205 42.8238C13.4922 42.2983 13.2823 41.6299 13.3338 40.9556V41.1543C13.2885 41.8306 13.5137 42.4973 13.9605 43.0093L14.0538 42.9166L13.9205 42.8238Z" fill="black"/>
<path opacity="0.12" d="M42.6667 28.2225L36 31.9723L36.12 32.0915L42.6667 28.408C43.0531 28.2456 43.3883 27.9827 43.6371 27.6469C43.8858 27.3111 44.0388 26.9149 44.08 26.5C43.9966 26.8771 43.8253 27.2294 43.5798 27.5286C43.3343 27.8278 43.0215 28.0655 42.6667 28.2225Z" fill="black"/>
<path opacity="0.25" d="M16.6796 10.0964L42.6663 24.7774C43.0212 24.9344 43.334 25.1721 43.5795 25.4713C43.8249 25.7705 43.9963 26.1228 44.0796 26.4999C44.0384 26.085 43.8854 25.6888 43.6367 25.353C43.388 25.0172 43.0527 24.7543 42.6663 24.5919L16.6796 9.9109C14.8263 8.8509 13.293 9.7254 13.293 11.8454V12.0441C13.333 9.92415 14.8263 9.04965 16.6796 10.0964Z" fill="white"/>
<defs>
<linearGradient id="paint0_linear_2412_27105" x1="29.0662" y1="11.5409" x2="6.83311" y2="33.9138" gradientUnits="userSpaceOnUse">
<stop stop-color="#00A0FF"/>
<stop offset="0.01" stop-color="#00A1FF"/>
<stop offset="0.26" stop-color="#00BEFF"/>
<stop offset="0.51" stop-color="#00D2FF"/>
<stop offset="0.76" stop-color="#00DFFF"/>
<stop offset="1" stop-color="#00E3FF"/>
</linearGradient>
<linearGradient id="paint1_linear_2412_27105" x1="45.1065" y1="26.5001" x2="12.8532" y2="26.5001" gradientUnits="userSpaceOnUse">
<stop stop-color="#FFE000"/>
<stop offset="0.41" stop-color="#FFBD00"/>
<stop offset="0.78" stop-color="#FFA500"/>
<stop offset="1" stop-color="#FF9C00"/>
</linearGradient>
<linearGradient id="paint2_linear_2412_27105" x1="33.1066" y1="29.5475" x2="2.9501" y2="59.8803" gradientUnits="userSpaceOnUse">
<stop stop-color="#FF3A44"/>
<stop offset="1" stop-color="#C31162"/>
</linearGradient>
<linearGradient id="paint3_linear_2412_27105" x1="9.73326" y1="0.238326" x2="23.195" y2="13.7847" gradientUnits="userSpaceOnUse">
<stop stop-color="#32A071"/>
<stop offset="0.07" stop-color="#2DA771"/>
<stop offset="0.48" stop-color="#15CF74"/>
<stop offset="0.8" stop-color="#06E775"/>
<stop offset="1" stop-color="#00F076"/>
</linearGradient>
</defs>
</svg>
