<svg fill="#003F87" preserveAspectRatio="none"  enable-background="new 0 0 511.999 511.999" version="1.1" viewBox="0 0 512 512" xml:space="preserve" xmlns="http://www.w3.org/2000/svg">
    <path d="m473.53 259.39c-5.651 0-10.869 1.378-15.497 3.455-7.036-8.998-17.957-14.822-30.268-14.834-6.362 0-12.214 1.688-17.242 4.217l-0.526 0.292-15.72 9.324c-7.047-8.427-17.602-13.827-29.444-13.833-6.362 0-12.214 1.688-17.242 4.217l-0.629 0.355-60.187 36.863c-13.592-4.016-28.683-8.421-43.265-12.557-15.383-4.365-30.177-8.421-42.035-11.413-5.938-1.499-11.132-2.729-15.377-3.604-2.128-0.441-4.016-0.789-5.692-1.046-1.699-0.252-3.118-0.429-4.719-0.435-1.236 6e-3 -2.306 0.114-3.524 0.263-4.433 0.584-10.738 1.934-18.175 3.678-15.194 3.57-34.586 8.764-45.301 11.681v-18.135c0-12.585-10.297-22.883-22.883-22.883h-62.925c-12.586 2e-3 -22.883 10.299-22.883 22.884v177.34c0 12.585 10.297 22.883 22.883 22.883h62.926c12.585 0 22.883-10.297 22.883-22.883v-13.77c13.581 2.957 43.723 9.467 75.501 15.994 21.493 4.411 43.705 8.827 62.051 12.156 9.176 1.664 17.385 3.055 24.107 4.039 6.779 0.979 11.83 1.585 15.68 1.608 2.997-0.011 5.835-0.578 8.901-1.425 5.704-1.608 12.196-4.336 19.627-7.946 25.862-12.608 63.006-36.229 98.045-59.603 34.976-23.346 67.692-46.399 83.721-57.44 10.034-6.916 15.675-18.603 15.675-30.971-0.017-21.234-17.22-38.459-38.466-38.47zm-382 175.83c0 3.1-2.62 5.72-5.72 5.72h-62.926c-3.1 0-5.72-2.62-5.72-5.72v-177.34c0-3.1 2.62-5.72 5.72-5.72h62.926c3.1 0 5.72 2.62 5.72 5.72v177.34zm395.06-120.53c-19.713 13.581-63.825 44.729-106.52 72.463-21.332 13.855-42.309 26.847-59.511 36.263-8.592 4.708-16.258 8.512-22.385 11.058-3.06 1.269-5.738 2.225-7.861 2.814-2.111 0.6-3.702 0.801-4.279 0.789-1.871 0.017-6.824-0.475-13.191-1.425-22.539-3.301-64.728-11.728-101.06-19.307-18.18-3.793-34.925-7.374-47.126-10.006-7.088-1.527-12.557-2.723-15.967-3.461v-110.07c1.677-0.464 3.873-1.064 6.51-1.779 9.045-2.454 22.848-6.133 35.228-9.181 6.184-1.527 12.025-2.888 16.664-3.856 2.311-0.48 4.331-0.863 5.881-1.11 1.521-0.252 2.705-0.343 2.717-0.326 0.029-6e-3 0.927 0.051 2.151 0.241 4.737 0.709 14.444 2.98 26.268 6.075 35.634 9.308 91.821 26.132 114.52 33.025 7.854 2.368 14.965 5.938 19.633 10.269 2.346 2.163 4.108 4.473 5.292 6.973 1.184 2.511 1.853 5.229 1.865 8.552-6e-3 6.733-2.706 12.751-7.116 17.173-4.382 4.365-10.332 7.036-16.973 7.099l-22.145-2.168-75.575-9.703c-4.703-0.6-9.005 2.717-9.611 7.419-0.607 4.703 2.723 8.998 7.419 9.605l75.82 9.73 23.466 2.299h0.423c22.888-6e-3 41.44-18.558 41.452-41.452 0.011-5.76-1.264-11.178-3.524-15.92-3.403-7.145-8.878-12.677-15.068-16.888-6.213-4.222-13.226-7.23-20.365-9.404-3.981-1.207-8.998-2.729-14.73-4.451l46.571-28.529c3.02-1.487 6.11-2.328 9.382-2.334 5.549-6e-3 10.56 2.145 14.348 5.624l-23.008 13.644c-4.073 2.415-5.417 7.683-2.997 11.756s7.683 5.423 11.761 3.004l53.408-31.675c3.037-1.505 6.144-2.351 9.427-2.351 5.921-6e-3 11.247 2.46 15.108 6.373l-62.189 36.881c-4.079 2.415-5.417 7.683-2.997 11.761 2.42 4.073 7.683 5.417 11.761 2.997l67.246-39.884c0.652-0.109 1.31-0.269 1.951-0.544 1.378-0.584 2.5-1.51 3.363-2.609l2.099-1.247c3.037-1.505 6.144-2.351 9.427-2.351 5.898 6e-3 11.172 2.375 15.057 6.242 3.867 3.885 6.235 9.164 6.242 15.068-0.027 7.193-3.322 13.474-8.265 16.838z"/>
    <path d="m314.1 183.92c-8.936 5.171-19.216 8.158-30.233 8.164-16.739-6e-3 -31.812-6.762-42.79-17.722-4.651-4.651-8.478-10.08-11.418-16.023h65.095c4.737 0 8.581-3.844 8.581-8.581 0-4.743-3.844-8.581-8.581-8.581h-70.57c-0.497-3.129-0.836-6.322-0.836-9.599 0-3.283 0.337-6.476 0.836-9.611h70.558c4.737 0 8.581-3.844 8.581-8.581 0-4.743-3.844-8.581-8.581-8.581h-65.083c2.946-5.938 6.779-11.362 11.424-16.018 10.978-10.967 26.052-17.722 42.784-17.729 11.018 0 21.297 2.992 30.233 8.164 4.101 2.38 9.353 0.979 11.728-3.124 2.375-4.101 0.979-9.353-3.124-11.728-11.401-6.607-24.69-10.48-38.837-10.475-33.477 6e-3 -61.914 21.217-72.834 50.902h-10.807c-4.737 0-8.581 3.838-8.581 8.581 0 4.737 3.844 8.581 8.581 8.581h6.625c-0.389 3.158-0.658 6.349-0.658 9.611 0 3.255 0.269 6.447 0.652 9.599h-6.619c-4.737 0.014-8.581 3.858-8.581 8.594s3.844 8.581 8.581 8.581h10.807c10.914 29.684 39.358 50.896 72.834 50.902 14.147 0 27.436-3.862 38.837-10.474 4.101-2.38 5.497-7.625 3.124-11.728-2.381-4.102-7.626-5.498-11.728-3.124z"/>
</svg>