<svg viewBox="0 0 15 18" fill="none" xmlns="http://www.w3.org/2000/svg">
    <path d="M6.53156 13.9175C6.53156 14.9248 6.53207 15.9322 6.53156 16.9389C6.53105 17.5068 6.28058 17.8016 5.80005 17.8016C4.10645 17.8016 2.41286 17.8016 0.719267 17.8016C0.25863 17.8016 0 17.4965 0 16.9522C0 14.9224 0 12.8932 0 10.8633C0 10.3239 0.255569 10.017 0.707534 10.017C2.41388 10.0158 4.12023 10.0158 5.82657 10.017C6.27395 10.017 6.53054 10.3209 6.53105 10.85C6.53258 11.8725 6.53156 12.895 6.53156 13.9175Z" />
    <path d="M6.53157 3.88591C6.53157 4.88297 6.53208 5.88002 6.53157 6.87768C6.53157 7.45703 6.28417 7.74942 5.79496 7.74942C4.11003 7.75003 2.4246 7.75003 0.739674 7.74942C0.245368 7.74942 0 7.45521 0 6.86436C0 4.86965 0 2.87554 0 0.880823C0 0.296029 0.250469 0 0.744775 0C2.4297 0 4.11514 0 5.80006 0C6.27957 0 6.53106 0.296634 6.53106 0.864478C6.53208 1.87182 6.53157 2.87917 6.53157 3.88591Z" />
    <path d="M11.1743 14.662C10.1306 14.662 9.08634 14.6638 8.04264 14.6608C7.60853 14.6595 7.31164 14.2134 7.41112 13.7243C7.481 13.3811 7.73963 13.1516 8.06305 13.1504C8.75885 13.1486 9.45516 13.1498 10.151 13.1498C11.5303 13.1498 12.9092 13.1492 14.2885 13.1504C14.6339 13.1504 14.892 13.3865 14.9563 13.7558C15.0364 14.2146 14.7517 14.6493 14.3569 14.6589C14.009 14.6674 13.6611 14.6614 13.3132 14.6614C12.6 14.662 11.8869 14.662 11.1743 14.662Z" />
    <path d="M11.1945 3.10319C12.2341 3.10319 13.2737 3.10198 14.3133 3.10379C14.6311 3.1044 14.8831 3.33261 14.952 3.67401C15.0464 4.14193 14.7689 4.58079 14.3572 4.61348C14.3276 4.6159 14.298 4.61469 14.2679 4.61469C12.2096 4.61469 10.1518 4.61469 8.09346 4.61469C7.72158 4.61469 7.46601 4.38103 7.40276 3.98696C7.33236 3.54992 7.6114 3.12438 7.98633 3.10682C8.18528 3.09714 8.38525 3.10379 8.5847 3.10379C9.45446 3.10319 10.3242 3.10319 11.1945 3.10319Z" />
</svg>