<svg width="49" height="48" viewBox="0 0 49 48" fill="none" xmlns="http://www.w3.org/2000/svg">
<path fill-rule="evenodd" clip-rule="evenodd" d="M0 23.8088C0 23.0617 0.622196 22.456 1.38971 22.456C1.45476 22.456 1.51876 22.4604 1.58143 22.4688C1.66367 22.4469 1.74896 22.4326 1.83651 22.4268L1.92576 22.4238H8.98435C9.73403 22.4238 10.3418 23.0439 10.3418 23.8088C10.3418 24.5431 9.78168 25.1439 9.0736 25.1908L8.98435 25.1938H2.82533C2.96799 27.3395 3.44181 29.4276 4.22623 31.4057C7.42711 39.4777 15.4202 44.9121 24.459 44.9121C36.4323 44.9121 46.1385 35.4638 46.1385 23.8088C46.1385 12.1538 36.4323 2.70555 24.459 2.70555C15.5084 2.70555 7.5775 8.03428 4.31543 15.9907C4.03094 16.6846 3.22243 17.0226 2.50959 16.7457C1.79674 16.4688 1.4495 15.6817 1.73399 14.9878C5.41416 6.01167 14.3615 0 24.459 0C37.9673 0 48.918 10.6596 48.918 23.8088C48.918 36.958 37.9673 47.6176 24.459 47.6176C14.2619 47.6176 5.24452 41.4868 1.63327 32.38C0.55822 29.6689 0 26.7753 0 23.8088ZM37.207 29.2546C37.207 30.423 35.7974 31.0292 34.9115 30.2809L34.8461 30.2222L29.006 24.6676L29.0055 28.3531C29.0055 29.4623 27.7176 30.0882 26.8113 29.4563L26.7405 29.4038L21.223 25.0486L16.3527 25.0196C15.6159 25.0152 15.0166 24.4534 14.974 23.7475L14.9716 23.6586C14.9761 22.9413 15.5532 22.3579 16.2784 22.3164L16.3698 22.3141L21.7277 22.3461C22.0084 22.3478 22.2811 22.4322 22.5105 22.5868L22.5944 22.6481L26.2266 25.5145L26.2261 21.4546C26.2261 20.2862 27.6356 19.68 28.5216 20.4283L28.587 20.487L34.4281 26.0415L34.4275 16.8091C34.4275 16.0919 35.001 15.505 35.7259 15.4592L35.8173 15.4563C36.5541 15.4563 37.157 16.0145 37.204 16.7202L37.207 16.8091V29.2546Z" fill="#003F87"/>
</svg>
