<svg width="12" height="16" viewBox="0 0 12 16" fill="none" xmlns="http://www.w3.org/2000/svg">
<path d="M11.9941 6.65333C11.9962 5.86619 11.8433 5.08634 11.544 4.35831C11.2447 3.63028 10.8049 2.96833 10.2498 2.41025C9.12875 1.28315 7.60584 0.647575 6.01613 0.643332C4.42642 0.639088 2.90014 1.26653 1.77305 2.38762C0.645952 3.50871 0.0103731 5.03162 0.00612968 6.62133C-0.00794836 8.46815 0.528168 10.2773 1.54615 11.8183C2.56414 13.3593 4.01789 14.5623 5.72213 15.274C5.80925 15.3134 5.90383 15.3337 5.99946 15.3333C6.09579 15.3335 6.19104 15.313 6.2788 15.2733C7.97785 14.5638 9.42801 13.3658 10.4455 11.8313C11.463 10.2967 12.0019 8.49457 11.9941 6.65333ZM5.99946 13.9333C4.59409 13.3146 3.40233 12.2952 2.57324 11.0028C1.74415 9.71028 1.31454 8.20203 1.33813 6.66667C1.33813 6.05453 1.4587 5.44839 1.69295 4.88285C1.92721 4.31731 2.27056 3.80345 2.7034 3.3706C3.13625 2.93776 3.65011 2.59441 4.21565 2.36015C4.78119 2.1259 5.38733 2.00533 5.99946 2.00533C6.6116 2.00533 7.21774 2.1259 7.78328 2.36015C8.34882 2.59441 8.86268 2.93776 9.29552 3.3706C9.72837 3.80345 10.0717 4.31731 10.306 4.88285C10.5402 5.44839 10.6608 6.05453 10.6608 6.66667C10.6608 6.68067 10.6608 6.69667 10.6608 6.71C10.677 8.23827 10.2438 9.73762 9.41508 11.0218C8.58638 12.306 7.39866 13.3184 5.99946 13.9333ZM7.3328 6.66667C7.3328 6.93037 7.2546 7.18816 7.10809 7.40743C6.96158 7.62669 6.75334 7.79759 6.50971 7.89851C6.26607 7.99942 5.99798 8.02583 5.73934 7.97438C5.4807 7.92293 5.24312 7.79594 5.05665 7.60947C4.87018 7.423 4.7432 7.18543 4.69175 6.92679C4.6403 6.66814 4.66671 6.40006 4.76762 6.15642C4.86854 5.91279 5.03944 5.70455 5.2587 5.55804C5.47797 5.41153 5.73575 5.33333 5.99946 5.33333C6.35308 5.33333 6.69222 5.47381 6.94227 5.72386C7.19232 5.97391 7.3328 6.31304 7.3328 6.66667Z" fill="#FFF"/>
</svg>
