<svg viewBox="0 0 32 32" fill="none" xmlns="http://www.w3.org/2000/svg">
    <path d="M30.812 7.85931C30.2523 10.7372 28.5081 12.9703 26.803 15.225C26.2476 15.9563 25.6401 16.6531 25.0414 17.3498C24.6075 17.8605 23.9914 17.8691 23.5575 17.3715C21.9001 15.4716 20.3381 13.4982 19.0885 11.2998C18.5722 10.391 18.1123 9.45188 17.8867 8.41758C17.6177 7.18853 17.8216 6.00275 18.3336 4.88189C19.2447 2.88685 20.798 1.64915 22.9371 1.14281C23.1887 1.08223 23.449 1.0476 23.705 1C24.0912 1 24.4817 1 24.8678 1C24.9503 1.02164 25.0327 1.04328 25.1195 1.05626C27.6794 1.46739 29.4496 2.86954 30.3955 5.27138C30.5994 5.79503 30.6775 6.3706 30.812 6.92021C30.812 7.24046 30.812 7.54772 30.812 7.85931ZM27.085 7.51743C27.0893 5.99843 25.818 4.7261 24.2908 4.7261C22.7722 4.7261 21.5226 5.96813 21.5009 7.49146C21.4792 9.00614 22.7462 10.2828 24.2821 10.2958C25.7963 10.3088 27.0763 9.04076 27.085 7.51743Z"  stroke-miterlimit="10"/>
    <path d="M30.812 26.5636C30.6905 26.979 30.3955 27.2041 30.005 27.3555C27.2672 28.4375 24.5381 29.5324 21.8046 30.6229C21.7178 30.6575 21.6267 30.6878 21.5139 30.7268C21.5139 26.4511 21.5139 22.2013 21.5139 17.8737C21.7092 18.0944 21.8697 18.2718 22.0259 18.4536C22.4207 18.9253 22.885 19.3018 23.4837 19.4663C24.6162 19.7778 25.6054 19.5052 26.3907 18.6354C27.6099 17.2851 28.7467 15.8613 29.775 14.3553C30.1265 13.836 30.4692 13.3167 30.8163 12.7974C30.812 17.3847 30.812 21.972 30.812 26.5636Z"  stroke-miterlimit="10"/>
    <path d="M10.3154 8.45654C10.3154 8.58637 10.3154 8.69024 10.3154 8.7941C10.3154 14.9091 10.3154 21.024 10.3241 27.1433C10.3241 27.3986 10.246 27.5068 10.0117 27.5977C7.48219 28.5974 4.95266 29.5971 2.43181 30.6227C1.69855 30.9213 1.14318 30.5145 1.03471 30.0342C1.00868 29.913 1 29.7832 1 29.662C1 24.088 1 18.514 1 12.94C1 12.3687 1.19091 12.0788 1.7159 11.8711C4.50142 10.7588 7.29128 9.64664 10.0811 8.53877C10.1419 8.50847 10.2156 8.49116 10.3154 8.45654Z"  stroke-miterlimit="10"/>
    <path d="M19.6307 30.4409C18.7933 30.1077 18.0037 29.7917 17.214 29.4758C15.613 28.8353 14.0163 28.1948 12.4109 27.563C12.2461 27.4981 12.168 27.4332 12.168 27.2384C12.1723 21.0369 12.1723 14.8354 12.1723 8.62958C12.1723 8.58198 12.1723 8.53437 12.1723 8.45215C12.2895 8.4911 12.3892 8.51706 12.4804 8.55601C13.7386 9.05802 15.0012 9.5557 16.2551 10.0664C16.3679 10.114 16.4981 10.2092 16.5415 10.313C17.2791 12.0874 18.3074 13.6843 19.4311 15.2292C19.57 15.4197 19.6307 15.6014 19.6307 15.8394C19.6264 20.5998 19.6264 25.3602 19.6264 30.1206C19.6307 30.2159 19.6307 30.3024 19.6307 30.4409Z" stroke-miterlimit="10"/>
</svg>