<svg fill="#003F87" version="1.1" viewBox="0 -55 512 512" xmlns="http://www.w3.org/2000/svg">
    <g>
    <path d="m286.7 195.55h-61.406c-10.699 0-19.402 8.7031-19.402 19.398v31.363c0 10.699 8.7031 19.402 19.402 19.402h61.406c10.699 0 19.402-8.7031 19.402-19.402v-31.363c0-10.695-8.7031-19.398-19.402-19.398zm4.4023 50.766c0 2.4258-1.9727 4.4023-4.4023 4.4023h-61.406c-2.4297 0-4.4023-1.9766-4.4023-4.4023v-31.363c0-2.4297 1.9727-4.4023 4.4023-4.4023h61.406c2.4297 0 4.4023 1.9727 4.4023 4.4023z"/>
    <path d="m511.89 83.922c-1.0664-10.457-9.9219-18.641-20.652-18.641h-146.47v-35.121c0-16.629-13.531-30.16-30.16-30.16h-117.23c-16.629 0-30.16 13.531-30.16 30.16v35.121h-146.47c-10.73 0-19.586 8.1836-20.648 18.641-0.074219 0.69531-0.10938 1.4023-0.10938 2.1172v296.08c0 11.445 9.3125 20.758 20.758 20.758h470.48c11.445 0 20.758-9.3125 20.758-20.758v-296.08c0-0.71484-0.035156-1.4219-0.10547-2.1172zm-329.67-53.762c0-8.3594 6.8008-15.16 15.16-15.16h117.23c8.3594 0 15.16 6.8008 15.16 15.16v35.121h-9.6289v-29.289c0-6.2656-5.0977-11.363-11.363-11.363h-105.56c-6.2656 0-11.363 5.0977-11.363 11.363v29.289h-9.6289zm122.92 9.4688v25.652h-98.289v-25.652zm191.86 56.621c0 18.629-10.879 35.816-27.715 43.789l-139.54 66.086c-3.7422 1.7734-5.3398 6.2461-3.5664 9.9883 1.7695 3.7461 6.2461 5.3398 9.9844 3.5703l139.54-66.086c8.3281-3.9453 15.543-9.6133 21.297-16.449v244.97c0 3.1758-2.582 5.7578-5.7578 5.7578h-470.48c-3.1758 0-5.7578-2.582-5.7578-5.7578v-244.97c5.7539 6.8359 12.969 12.504 21.297 16.449l139.79 66.203c1.0352 0.48828 2.1289 0.72266 3.2031 0.72266 2.8125 0 5.5039-1.5859 6.7852-4.293 1.7734-3.7422 0.17578-8.2148-3.5664-9.9883l-139.79-66.203c-16.836-7.9727-27.715-25.16-27.715-43.789v-10.211c0-0.19922 0.011719-0.39453 0.03125-0.58984 0.29297-2.8984 2.75-5.168 5.7266-5.168h470.48c2.9766 0 5.4336 2.2695 5.7266 5.168 0.019531 0.19531 0.03125 0.39062 0.03125 0.58984z"/>
    </g>
</svg>