<svg width="10" height="12" viewBox="0 0 10 12" fill="none" xmlns="http://www.w3.org/2000/svg">
<path d="M1.03667 0.1121C0.936266 0.045114 0.819564 0.00664097 0.699011 0.000785232C0.578458 -0.0050705 0.458577 0.0219107 0.352157 0.0788505C0.245737 0.13579 0.156771 0.220552 0.0947504 0.324094C0.03273 0.427635 -1.80558e-05 0.546071 7.46852e-09 0.666767V11.3334C-1.80558e-05 11.4541 0.03273 11.5726 0.0947504 11.6761C0.156771 11.7796 0.245737 11.8644 0.352157 11.9213C0.458577 11.9783 0.578458 12.0053 0.699011 11.9994C0.819564 11.9936 0.936266 11.9551 1.03667 11.8881L9.03667 6.55477C9.12797 6.49388 9.20284 6.4114 9.25461 6.31464C9.30639 6.21789 9.33348 6.10984 9.33348 6.0001C9.33348 5.89036 9.30639 5.78231 9.25461 5.68555C9.20284 5.5888 9.12797 5.50632 9.03667 5.44543L1.03667 0.1121ZM1.33333 10.0874V1.91277L7.46667 6.0001L1.33333 10.0874Z" fill="#003F87"/>
</svg>
