<svg width="20" height="20" viewBox="0 0 20 20" fill="none" xmlns="http://www.w3.org/2000/svg">
<path d="M12.9847 5.90005C13.6247 6.62005 13.9247 7.60004 13.7847 8.64004C13.5447 10.56 12.1447 11.24 10.9047 11.24C10.8447 11.24 10.8047 11.24 10.8047 11.24V11.72C10.8047 12.16 10.4447 12.52 10.0047 12.52C9.56469 12.52 9.20469 12.16 9.20469 11.72V11.0801C9.20469 10.4201 9.48469 9.64004 10.9047 9.64004C11.6847 9.64004 12.0847 9.24004 12.1847 8.44004C12.2247 8.18004 12.2447 7.48006 11.7647 6.96006C11.3847 6.54006 10.7647 6.32004 9.92468 6.32004C8.12468 6.32004 8.0647 7.50004 8.0647 7.62004C8.0647 8.06004 7.7047 8.42004 7.2647 8.42004C6.8247 8.42004 6.4647 8.06004 6.4647 7.62004C6.4647 6.82004 7.08468 4.72004 9.92468 4.72004C11.5847 4.72004 12.5047 5.36005 12.9847 5.90005ZM9.94468 13.2001C9.68468 13.2001 9.42468 13.3 9.24468 13.5C9.06468 13.68 8.94468 13.9401 8.94468 14.2001C8.94468 14.46 9.04468 14.72 9.24468 14.9001C9.42468 15.0801 9.68468 15.2001 9.94468 15.2001C10.2047 15.2001 10.4647 15.1 10.6447 14.9001C10.8247 14.72 10.9447 14.46 10.9447 14.2001C10.9447 13.9401 10.8447 13.68 10.6447 13.5C10.4847 13.3201 10.2247 13.2001 9.94468 13.2001ZM19.2047 10C19.2047 15.0801 15.0847 19.2001 10.0047 19.2001C4.92469 19.2001 0.804688 15.0801 0.804688 10C0.804688 4.92005 4.92469 0.800049 10.0047 0.800049C15.0847 0.800049 19.2047 4.92005 19.2047 10ZM17.6047 10C17.6047 5.80005 14.2047 2.40005 10.0047 2.40005C5.80469 2.40005 2.40469 5.80005 2.40469 10C2.40469 14.2001 5.80469 17.6 10.0047 17.6C14.2047 17.6 17.6047 14.2001 17.6047 10Z" fill="#003F87"/>
</svg>
