<svg width="15" height="15" viewBox="0 0 15 15" fill="none" xmlns="http://www.w3.org/2000/svg">
<path d="M2.41599 10.0001C3.33915 10.9246 4.5685 11.4795 5.87246 11.5605C7.17641 11.6414 8.46495 11.2427 9.49532 10.4395L13.0407 13.9848C13.1664 14.1062 13.3348 14.1734 13.5096 14.1719C13.6844 14.1704 13.8516 14.1003 13.9752 13.9767C14.0988 13.8531 14.1689 13.6859 14.1704 13.5111C14.172 13.3363 14.1048 13.1679 13.9833 13.0421L10.438 9.49679C11.2769 8.42023 11.6735 7.06422 11.5469 5.7053C11.4204 4.34638 10.7802 3.08691 9.75698 2.18376C8.73375 1.28061 7.40455 0.801794 6.04043 0.844971C4.67632 0.888148 3.38005 1.45006 2.41599 2.41612C1.91785 2.914 1.5227 3.50515 1.25309 4.15579C0.983492 4.80644 0.844727 5.50383 0.844727 6.20812C0.844727 6.91241 0.983492 7.6098 1.25309 8.26044C1.5227 8.91109 1.91785 9.50224 2.41599 10.0001ZM3.35866 3.36012C4.0177 2.70108 4.88487 2.29095 5.81241 2.19958C6.73994 2.10822 7.67047 2.34128 8.44543 2.85907C9.2204 3.37685 9.79186 4.14732 10.0625 5.0392C10.3331 5.93108 10.286 6.88919 9.92943 7.75029C9.57282 8.6114 8.92868 9.32222 8.10674 9.76164C7.28481 10.2011 6.33594 10.3419 5.4218 10.1602C4.50767 9.97846 3.68482 9.4854 3.09345 8.76501C2.50209 8.04462 2.1788 7.14148 2.17866 6.20945C2.17683 5.67983 2.28019 5.15513 2.48275 4.66577C2.68532 4.17642 2.98304 3.73216 3.35866 3.35879V3.36012Z" fill="#003F87"/>
</svg>
