<svg width="28" height="16" viewBox="0 0 28 16" fill="none" xmlns="http://www.w3.org/2000/svg">
<path d="M3.86195 11.1381C3.74051 11.0123 3.67331 10.8439 3.67483 10.6691C3.67635 10.4943 3.74646 10.3271 3.87007 10.2035C3.99367 10.0799 4.16088 10.0098 4.33568 10.0083C4.51048 10.0068 4.67888 10.074 4.80461 10.1954L7.66661 13.0574V1.33341C7.66661 1.1566 7.73685 0.987034 7.86187 0.86201C7.9869 0.736986 8.15647 0.666748 8.33328 0.666748C8.51009 0.666748 8.67966 0.736986 8.80468 0.86201C8.92971 0.987034 8.99995 1.1566 8.99995 1.33341V13.0574L11.8619 10.1954C11.9877 10.074 12.1561 10.0068 12.3309 10.0083C12.5057 10.0098 12.6729 10.0799 12.7965 10.2035C12.9201 10.3271 12.9902 10.4943 12.9917 10.6691C12.9932 10.8439 12.9261 11.0123 12.8046 11.1381L8.80461 15.1381C8.67959 15.2631 8.51006 15.3333 8.33328 15.3333C8.1565 15.3333 7.98696 15.2631 7.86195 15.1381L3.86195 11.1381Z" fill="#003F87"/>
<g clip-path="url(#clip0_2477_17689)">
<path d="M24.1385 4.86192C24.26 4.98765 24.3272 5.15606 24.3257 5.33085C24.3241 5.50565 24.254 5.67286 24.1304 5.79647C24.0068 5.92007 23.8396 5.99018 23.6648 5.9917C23.49 5.99322 23.3216 5.92603 23.1959 5.80459L20.3339 2.94259L20.3339 14.6666C20.3339 14.8434 20.2636 15.013 20.1386 15.138C20.0136 15.263 19.844 15.3333 19.6672 15.3333C19.4904 15.3333 19.3208 15.263 19.1958 15.138C19.0708 15.013 19.0005 14.8434 19.0005 14.6666L19.0005 2.94259L16.1385 5.80459C16.0128 5.92602 15.8444 5.99322 15.6696 5.9917C15.4948 5.99018 15.3276 5.92007 15.204 5.79647C15.0804 5.67286 15.0103 5.50565 15.0088 5.33085C15.0072 5.15606 15.0744 4.98765 15.1959 4.86192L19.1959 0.86192C19.3209 0.736939 19.4904 0.66673 19.6672 0.66673C19.844 0.66673 20.0135 0.736939 20.1385 0.86192L24.1385 4.86192Z" fill="#003F87"/>
</g>
<defs>
<clipPath id="clip0_2477_17689">
<rect width="16" height="16" fill="white" transform="translate(27.667 16) rotate(-180)"/>
</clipPath>
</defs>
</svg>
