<svg width="22" height="22" viewBox="0 0 22 22" fill="none" xmlns="http://www.w3.org/2000/svg">
<path d="M0.537144 8.48795C0.484857 8.6744 0.487829 8.87202 0.5457 9.05681C0.60357 9.24161 0.713849 9.40562 0.863144 9.52895L5.66814 13.4919L4.15314 20.2819C4.10887 20.4798 4.1258 20.6865 4.20168 20.8745C4.27756 21.0625 4.40881 21.2231 4.57803 21.3348C4.74724 21.4465 4.94642 21.5042 5.14914 21.5001C5.35187 21.496 5.54857 21.4304 5.71314 21.3119L11.0001 17.5089L16.2871 21.3089C16.4517 21.4274 16.6484 21.493 16.8511 21.4971C17.0539 21.5012 17.253 21.4435 17.4223 21.3318C17.5915 21.2201 17.7227 21.0595 17.7986 20.8715C17.8745 20.6835 17.8914 20.4768 17.8471 20.2789L16.3321 13.4889L21.1371 9.52595C21.2865 9.40276 21.3969 9.23886 21.4549 9.05416C21.5129 8.86945 21.5161 8.67187 21.464 8.4854C21.4119 8.29894 21.3068 8.1316 21.1614 8.00371C21.0161 7.87582 20.8367 7.79288 20.6451 7.76495L14.8281 6.91595L11.9001 1.05295C11.8077 0.89797 11.6767 0.769642 11.5198 0.680524C11.3629 0.591407 11.1856 0.544556 11.0051 0.544556C10.8247 0.544556 10.6474 0.591407 10.4905 0.680524C10.3336 0.769642 10.2025 0.89797 10.1101 1.05295L7.17214 6.91895L1.35514 7.76795C1.16377 7.796 0.984641 7.87894 0.839454 8.00673C0.694267 8.13453 0.589256 8.30168 0.537144 8.48795ZM7.97814 8.82295C8.13757 8.7997 8.28902 8.73828 8.41961 8.64392C8.55019 8.54955 8.65604 8.42502 8.72814 8.28095L11.0001 3.73595L13.2721 8.28095C13.3442 8.42502 13.4501 8.54955 13.5807 8.64392C13.7113 8.73828 13.8627 8.7997 14.0221 8.82295L18.1221 9.42295L14.5861 12.3399C14.4439 12.4575 14.3369 12.6121 14.2771 12.7866C14.2173 12.9612 14.2069 13.1489 14.2471 13.3289L15.3231 18.1549L11.5841 15.4649C11.414 15.3426 11.2097 15.2767 11.0001 15.2767C10.7906 15.2767 10.5863 15.3426 10.4161 15.4649L6.67714 18.1549L7.75314 13.3289C7.79338 13.1489 7.78301 12.9612 7.72318 12.7866C7.66335 12.6121 7.55639 12.4575 7.41414 12.3399L3.87614 9.42095L7.97814 8.82295Z" fill="#003F87"/>
</svg>
