<svg width="16" height="12" viewBox="0 0 16 12" fill="none" xmlns="http://www.w3.org/2000/svg">
<path d="M15.3327 0.666667C15.3327 0.843478 15.2624 1.01305 15.1374 1.13807C15.0124 1.2631 14.8428 1.33333 14.666 1.33333H6.66602C6.4892 1.33333 6.31963 1.2631 6.19461 1.13807C6.06959 1.01305 5.99935 0.843478 5.99935 0.666667C5.99935 0.489856 6.06959 0.320286 6.19461 0.195262C6.31963 0.0702379 6.4892 0 6.66602 0H14.666C14.8428 0 15.0124 0.0702379 15.1374 0.195262C15.2624 0.320286 15.3327 0.489856 15.3327 0.666667ZM14.666 5.33333H6.66602C6.4892 5.33333 6.31963 5.40357 6.19461 5.5286C6.06959 5.65362 5.99935 5.82319 5.99935 6C5.99935 6.17681 6.06959 6.34638 6.19461 6.4714C6.31963 6.59643 6.4892 6.66667 6.66602 6.66667H14.666C14.8428 6.66667 15.0124 6.59643 15.1374 6.4714C15.2624 6.34638 15.3327 6.17681 15.3327 6C15.3327 5.82319 15.2624 5.65362 15.1374 5.5286C15.0124 5.40357 14.8428 5.33333 14.666 5.33333ZM14.666 10.6667H6.66602C6.4892 10.6667 6.31963 10.7369 6.19461 10.8619C6.06959 10.987 5.99935 11.1565 5.99935 11.3333C5.99935 11.5101 6.06959 11.6797 6.19461 11.8047C6.31963 11.9298 6.4892 12 6.66602 12H14.666C14.8428 12 15.0124 11.9298 15.1374 11.8047C15.2624 11.6797 15.3327 11.5101 15.3327 11.3333C15.3327 11.1565 15.2624 10.987 15.1374 10.8619C15.0124 10.7369 14.8428 10.6667 14.666 10.6667ZM1.33268 1.33333H3.99935C4.17616 1.33333 4.34573 1.2631 4.47075 1.13807C4.59578 1.01305 4.66602 0.843478 4.66602 0.666667C4.66602 0.489856 4.59578 0.320286 4.47075 0.195262C4.34573 0.0702379 4.17616 0 3.99935 0H1.33268C1.15587 0 0.986302 0.0702379 0.861278 0.195262C0.736253 0.320286 0.666016 0.489856 0.666016 0.666667C0.666016 0.843478 0.736253 1.01305 0.861278 1.13807C0.986302 1.2631 1.15587 1.33333 1.33268 1.33333ZM1.33268 6.66667H3.99935C4.17616 6.66667 4.34573 6.59643 4.47075 6.4714C4.59578 6.34638 4.66602 6.17681 4.66602 6C4.66602 5.82319 4.59578 5.65362 4.47075 5.5286C4.34573 5.40357 4.17616 5.33333 3.99935 5.33333H1.33268C1.15587 5.33333 0.986302 5.40357 0.861278 5.5286C0.736253 5.65362 0.666016 5.82319 0.666016 6C0.666016 6.17681 0.736253 6.34638 0.861278 6.4714C0.986302 6.59643 1.15587 6.66667 1.33268 6.66667ZM1.33268 12H3.99935C4.17616 12 4.34573 11.9298 4.47075 11.8047C4.59578 11.6797 4.66602 11.5101 4.66602 11.3333C4.66602 11.1565 4.59578 10.987 4.47075 10.8619C4.34573 10.7369 4.17616 10.6667 3.99935 10.6667H1.33268C1.15587 10.6667 0.986302 10.7369 0.861278 10.8619C0.736253 10.987 0.666016 11.1565 0.666016 11.3333C0.666016 11.5101 0.736253 11.6797 0.861278 11.8047C0.986302 11.9298 1.15587 12 1.33268 12Z" fill="#003F87"/>
</svg>
