<svg width="24" height="24" viewBox="0 0 24 24" xmlns="http://www.w3.org/2000/svg">
    <path fill-rule="evenodd" d="M 21 5 L 21 7.28000020980835 C 21.59000015258789 7.630000114440918 22 8.260000228881836 22 9 L 22 15 C 22 15.739999771118164 21.59000015258789 16.3700008392334 21 16.719999313354492 L 21 19 C 21 20.100000381469727 20.100000381469727 21 19 21 L 5 21 C 3.890000104904175 21 3 20.100000381469727 3 19 L 3 5 C 3 3.9000000953674316 3.890000104904175 3 5 3 L 19 3 C 20.100000381469727 3 21 3.9000000953674316 21 5 Z M 5 19 Z M 16 13.5 C 16.828399658203125 13.5 17.5 12.828399658203125 17.5 12 C 17.5 11.171600341796875 16.828399658203125 10.5 16 10.5 C 15.171600341796875 10.5 14.5 11.171600341796875 14.5 12 C 14.5 12.828399658203125 15.171600341796875 13.5 16 13.5 Z M 13.00006103515625 9 L 13 9 L 13 15 L 20 15 L 20 9 L 13.00006103515625 9 " fill="#F69036"></path>
</svg>